<?xml version="1.0" standalone="no"?>
<!DOCTYPE svg PUBLIC "-//W3C//DTD SVG 1.1//EN" "http://www.w3.org/Graphics/SVG/1.1/DTD/svg11.dtd" >
<svg xmlns="http://www.w3.org/2000/svg" xmlns:xlink="http://www.w3.org/1999/xlink" version="1.1">
<metadata></metadata>
<defs>
<font id="promptmedium" horiz-adv-x="0" >
<font-face units-per-em="2048" ascent="1536" descent="-512" />
<missing-glyph horiz-adv-x="737" />
<glyph unicode="fi" horiz-adv-x="1269" d="M41 786v197h145v162q0 179 116.5 279t291.5 100q96 0 172 -29v-209q-58 25 -121 25q-99 0 -150 -47.5t-51 -137.5v-143h689v-983h-259v786h-430v-786h-258v786h-145zM856 1298q0 60 42 102t103 42q60 0 103 -42t43 -102q0 -61 -42.5 -102t-103.5 -41q-62 0 -103.5 41 t-41.5 102z" />
<glyph unicode="fl" horiz-adv-x="1259" d="M41 786v197h145v170q0 120 56 205.5t147 125.5t205 40q96 0 172 -29v-209q-58 25 -121 25q-94 0 -147.5 -44.5t-53.5 -131.5v-152h435v465h258v-1448h-258v786h-435v-786h-258v786h-145z" />
<glyph unicode="&#xe24;&#xe45;" horiz-adv-x="1822" d="M82 838q229 288 598 288q181 0 305 -59q48 25 129.5 42t159.5 17q211 0 318.5 -114t107.5 -328v-1085h-260v1101q0 120 -48.5 172t-172.5 52q-33 0 -68 -6q57 -94 57 -224v-1095h-260v1075q0 250 -268 250q-101 0 -178 -29t-142 -94l84 -135v-353q0 -53 24 -74.5 t79 -21.5h110v-217h-249q-107 0 -165.5 61t-58.5 168v439z" />
<glyph unicode="&#xe26;&#xe45;" horiz-adv-x="1851" d="M82 0v217h80q53 0 72.5 20.5t19.5 75.5v355l-143 170q219 288 600 288q179 0 303 -59q48 25 129.5 42t159.5 17q211 0 318.5 -114t107.5 -328v-1085h-261v1101q0 120 -48.5 172t-172.5 52q-33 0 -67 -6q57 -94 57 -224v-1095h-260v1075q0 250 -268 250q-187 0 -314 -115 l119 -141v-437q0 -107 -58 -169t-165 -62h-209z" />
<glyph unicode="&#xd;" horiz-adv-x="532" />
<glyph unicode=" "  horiz-adv-x="737" />
<glyph unicode="&#x09;" horiz-adv-x="737" />
<glyph unicode="&#xa0;" horiz-adv-x="737" />
<glyph unicode="!" horiz-adv-x="454" d="M82 113q0 61 41.5 102t103.5 41q61 0 103.5 -41t42.5 -102q0 -60 -43 -102t-103 -42q-61 0 -103 42t-42 102zM104 428v1004h248v-1004h-248z" />
<glyph unicode="&#x22;" horiz-adv-x="714" d="M82 1036v396h194v-396h-194zM438 1036v396h195v-396h-195z" />
<glyph unicode="#" horiz-adv-x="1579" d="M82 330v190h246l100 352h-260v191h313l105 369h225l-104 -369h391l104 369h228l-105 -369h172v-191h-225l-101 -352h240v-190h-293l-92 -330h-227l92 330h-391l-92 -330h-226l92 330h-192zM553 520h391l100 352h-391z" />
<glyph unicode="$" horiz-adv-x="1161" d="M82 55v224q186 -89 393 -99v455q-201 81 -291 181.5t-90 250.5t103 253.5t278 131.5v190h221v-184q166 -11 310 -76v-217q-156 75 -310 84v-444q103 -44 170.5 -84t117.5 -91t72.5 -114t22.5 -145q0 -159 -96 -259.5t-287 -129.5v-193h-221v182q-248 10 -393 84z M371 1067q0 -57 24.5 -95t79.5 -69v318q-104 -44 -104 -154zM696 213q103 50 103 160q0 55 -25 93t-78 69v-322z" />
<glyph unicode="%" horiz-adv-x="1824" d="M94 1085q0 157 109 267t266 110t267 -110t110 -267q0 -156 -110 -265t-267 -109t-266 108.5t-109 265.5zM281 1081q0 -79 54.5 -133.5t133.5 -54.5q81 0 135.5 54t54.5 134q0 82 -54 136.5t-136 54.5q-80 0 -134 -54.5t-54 -136.5zM397 0l793 1432h252l-793 -1432h-252z M991 344q0 157 109 267t266 110t267 -110t110 -267t-110 -266t-267 -109t-266 109t-109 266zM1176 340q0 -80 54 -134t134 -54q81 0 135.5 54t54.5 134q0 82 -54 136t-136 54q-80 0 -134 -54.5t-54 -135.5z" />
<glyph unicode="&#x26;" horiz-adv-x="1601" d="M82 358q0 136 74.5 231.5t240.5 194.5q-97 90 -144.5 168.5t-47.5 171.5q0 149 110 243.5t291 94.5q176 0 284.5 -95.5t108.5 -242.5q0 -117 -58.5 -201t-195.5 -173l351 -330q55 95 55 321h211q0 -160 -23.5 -266t-83.5 -207l285 -268h-303l-133 123 q-179 -154 -506 -154q-149 0 -264.5 43.5t-183.5 132.5t-68 213zM324 358q0 -106 80.5 -161.5t195.5 -55.5q223 0 356 123l-393 381q-123 -57 -181 -126.5t-58 -160.5zM426 1108q0 -57 38 -107.5t126 -132.5q105 62 151.5 116.5t46.5 123.5q0 77 -49.5 126.5t-132.5 49.5 t-131.5 -49.5t-48.5 -126.5z" />
<glyph unicode="'" horiz-adv-x="358" d="M82 1036v396h194v-396h-194z" />
<glyph unicode="(" horiz-adv-x="696" d="M82 553q0 534 307 909h266q-311 -398 -311 -909t311 -909h-266q-307 375 -307 909z" />
<glyph unicode=")" horiz-adv-x="696" d="M41 -356q311 398 311 909t-311 909h266q307 -375 307 -909t-307 -909h-266z" />
<glyph unicode="*" horiz-adv-x="903" d="M82 1161l61 139l219 -79v211h179v-211l219 82l61 -142l-243 -84l161 -221l-139 -90l-147 207l-148 -209l-139 90l160 221z" />
<glyph unicode="+" horiz-adv-x="843" d="M82 510v207h235v235h207v-235h238v-207h-238v-238h-207v238h-235z" />
<glyph unicode="," horiz-adv-x="600" d="M82 -303l168 418h268l-201 -418h-235z" />
<glyph unicode="-" horiz-adv-x="843" d="M82 510v207h680v-207h-680z" />
<glyph unicode="." horiz-adv-x="372" d="M82 102q0 44 30.5 75.5t73.5 31.5t74 -31.5t31 -75.5q0 -42 -31 -72t-74 -30t-73.5 29.5t-30.5 72.5z" />
<glyph unicode="/" horiz-adv-x="999" d="M82 0l584 1462h252l-584 -1462h-252z" />
<glyph unicode="0" horiz-adv-x="1396" d="M82 715q0 348 163.5 547.5t452.5 199.5q288 0 452.5 -199.5t164.5 -547.5q0 -347 -165 -546.5t-452 -199.5q-286 0 -451 199.5t-165 546.5zM344 713q0 -238 93 -374t261 -136q169 0 263 136t94 374q0 237 -93 374.5t-262 137.5q-171 0 -263.5 -137.5t-92.5 -374.5z" />
<glyph unicode="1" horiz-adv-x="765" d="M82 938v242l344 252h217v-1432h-258v1157z" />
<glyph unicode="2" horiz-adv-x="1198" d="M82 0v168l283 260q45 41 115 102.5t107.5 95t85.5 83t72 87.5t41 87t17 100q0 118 -68.5 180t-195.5 62q-98 0 -204 -36t-192 -102v248q178 127 439 127q229 0 356 -122t127 -336q0 -77 -21.5 -144.5t-71 -136t-104.5 -127t-147 -143.5l-256 -238h651v-215h-1034z" />
<glyph unicode="3" horiz-adv-x="1187" d="M82 51v199q195 -88 414 -88q174 0 261 62.5t87 178.5q0 121 -85 171.5t-263 50.5h-179v200h172q144 0 228 54.5t84 164.5q0 111 -75.5 168.5t-209.5 57.5q-116 0 -209.5 -27t-189.5 -88v201q183 106 434 106q254 0 383 -107.5t129 -299.5q0 -107 -55.5 -193t-167.5 -135 q130 -38 198 -124t68 -212q0 -96 -31.5 -171t-98.5 -132.5t-179.5 -88t-266.5 -30.5q-277 0 -448 82z" />
<glyph unicode="4" horiz-adv-x="1247" d="M41 340v154l690 938h254v-897h221v-195h-221v-340h-260v340h-684zM326 535h436v595z" />
<glyph unicode="5" horiz-adv-x="1181" d="M82 61v220q87 -54 195 -83.5t206 -29.5q355 0 355 281q0 135 -87.5 206.5t-244.5 71.5q-161 0 -293 -53l-109 61l56 697h839v-215h-604l-26 -328q114 24 249 24q228 0 355 -124t127 -340q0 -233 -151 -356.5t-455 -123.5q-115 0 -225.5 25t-186.5 67z" />
<glyph unicode="6" horiz-adv-x="1267" d="M82 596q0 414 183.5 640t510.5 226q125 0 221 -28v-209q-78 37 -200 37q-200 0 -317 -120t-140 -347q130 139 381 139q211 0 338 -126.5t127 -344.5q0 -106 -36.5 -196t-104.5 -156.5t-172 -104t-232 -37.5q-119 0 -221 42t-177.5 120.5t-118 198t-42.5 266.5zM354 451 q0 -120 79.5 -205.5t207.5 -85.5q131 0 210 79.5t79 211.5t-79 212t-210 80q-123 0 -205 -82t-82 -210z" />
<glyph unicode="7" horiz-adv-x="1116" d="M61 1217v215h994v-181l-566 -1251h-251l550 1217h-727z" />
<glyph unicode="8" horiz-adv-x="1253" d="M82 397q0 132 67 222.5t177 125.5q-92 45 -143.5 128.5t-51.5 189.5q0 186 135 292.5t361 106.5q227 0 361 -106.5t134 -292.5q0 -107 -51.5 -190t-142.5 -128q110 -35 176.5 -125.5t66.5 -222.5q0 -206 -146 -317t-398 -111q-251 0 -398 111.5t-147 316.5zM338 414 q0 -120 78.5 -189t210.5 -69q133 0 210.5 68.5t77.5 189.5q0 117 -79.5 184.5t-208.5 67.5q-128 0 -208.5 -68t-80.5 -184zM375 1042q0 -102 69.5 -162.5t182.5 -60.5q115 0 184.5 60.5t69.5 162.5q0 103 -70.5 166.5t-183.5 63.5t-182.5 -63.5t-69.5 -166.5z" />
<glyph unicode="9" horiz-adv-x="1267" d="M82 969q0 217 144.5 355t400.5 138q119 0 221 -42t177.5 -120t118 -197.5t42.5 -266.5q0 -415 -183.5 -641t-510.5 -226q-122 0 -222 29v209q78 -37 201 -37q200 0 317 120t140 347q-130 -139 -371 -139q-212 0 -343.5 127t-131.5 344zM338 981q0 -132 79.5 -212.5 t209.5 -80.5q123 0 204.5 82.5t81.5 210.5q0 120 -79 205.5t-207 85.5q-131 0 -210 -79.5t-79 -211.5z" />
<glyph unicode=":" horiz-adv-x="434" d="M82 168q0 56 40 95.5t95 39.5t95 -39.5t40 -95.5t-40 -95.5t-95 -39.5t-95 39.5t-40 95.5zM82 864q0 56 40 95.5t95 39.5t95 -39.5t40 -95.5t-40 -95.5t-95 -39.5t-95 39.5t-40 95.5z" />
<glyph unicode=";" horiz-adv-x="600" d="M82 -303l168 418h268l-201 -418h-235zM236 864q0 56 40 95.5t95 39.5t95 -39.5t40 -95.5t-40 -95.5t-95 -39.5t-95 39.5t-40 95.5z" />
<glyph unicode="&#x3c;" horiz-adv-x="1112" d="M82 573v183l948 465v-256l-633 -301l633 -302v-256z" />
<glyph unicode="=" horiz-adv-x="1093" d="M82 375v203h930v-203h-930zM82 825v203h930v-203h-930z" />
<glyph unicode="&#x3e;" horiz-adv-x="1112" d="M82 106v256l633 302l-633 301v256l948 -465v-183z" />
<glyph unicode="?" horiz-adv-x="1064" d="M82 1167v215q178 80 387 80q238 0 376 -102t138 -287q0 -34 -7 -65t-14 -53t-28 -49t-32 -41t-44 -41.5t-45.5 -37t-54.5 -41.5q-8 -6 -22 -17q-57 -44 -79.5 -63.5t-46.5 -50t-30.5 -61.5t-6.5 -80v-45h-247v47q0 120 45 203t147 156q19 13 56.5 39t53 37t40 32.5 t34.5 38t18.5 40.5t8.5 52q0 84 -64.5 131t-195.5 47q-208 0 -387 -84zM301 113q0 61 41.5 102t103.5 41q61 0 103.5 -41t42.5 -102q0 -60 -43 -102t-103 -42q-61 0 -103 42t-42 102z" />
<glyph unicode="@" horiz-adv-x="1865" d="M82 582q0 193 65 356t182 278.5t286.5 180.5t371.5 65q374 0 585.5 -184t211.5 -520q0 -153 -42 -272.5t-129.5 -191t-207.5 -71.5q-75 0 -138.5 37t-86.5 100q-47 -66 -125.5 -101.5t-173.5 -35.5q-163 0 -262 92t-99 271q0 138 55.5 248t163 174.5t248.5 64.5 q87 0 175.5 -19t154.5 -53l-27 -458q-4 -70 27 -109t82 -39q88 0 126 93.5t38 269.5q0 260 -141.5 385t-434.5 125q-315 0 -499.5 -182t-184.5 -504q0 -272 159 -409.5t462 -137.5q208 0 379 57v-184q-168 -64 -379 -64q-253 0 -441 83.5t-294.5 251.5t-106.5 403zM741 604 q0 -203 162 -203q90 0 139 49.5t54 122.5l18 301q-53 23 -131 23q-106 0 -174 -82t-68 -211z" />
<glyph unicode="A" horiz-adv-x="1560" d="M82 0l573 1432h252l572 -1432h-265l-131 330h-606l-129 -330h-266zM549 545h463l-232 608z" />
<glyph unicode="B" horiz-adv-x="1347" d="M123 0v1432h680q197 0 306.5 -98t109.5 -287q0 -101 -48.5 -182.5t-128.5 -123.5q224 -74 224 -329q0 -189 -122.5 -300.5t-305.5 -111.5h-715zM381 205h397q109 0 167.5 45.5t58.5 159.5t-61.5 165.5t-178.5 51.5h-383v-422zM381 836h381q88 0 141 47.5t53 146.5 q0 114 -51.5 155.5t-154.5 41.5h-369v-391z" />
<glyph unicode="C" horiz-adv-x="1441" d="M82 715q0 225 97 395.5t270.5 261t398.5 90.5q297 0 495 -141v-248q-179 152 -473 152q-238 0 -382 -138.5t-144 -371.5q0 -234 145 -372t381 -138q151 0 270 38t220 122v-248q-189 -148 -512 -148q-225 0 -398.5 90.5t-270.5 260.5t-97 395z" />
<glyph unicode="D" horiz-adv-x="1445" d="M123 0v1432h479q352 0 557 -191t205 -518q0 -357 -207 -540t-577 -183h-457zM383 215h201q250 0 384 134.5t134 373.5q0 221 -132.5 357.5t-359.5 136.5h-227v-1002z" />
<glyph unicode="E" horiz-adv-x="1153" d="M123 0v1432h969v-215h-709v-394h526v-215h-526v-393h709v-215h-969z" />
<glyph unicode="F" horiz-adv-x="1132" d="M123 0v1432h969v-218h-709v-401h526v-195h-526v-618h-260z" />
<glyph unicode="G" horiz-adv-x="1460" d="M82 715q0 225 97 395.5t270.5 261t398.5 90.5q303 0 493 -137v-248q-175 148 -471 148q-226 0 -376 -140t-150 -370q0 -233 143.5 -372.5t370.5 -139.5q157 0 260 53v322h-241v206h501v-667q-192 -148 -530 -148q-225 0 -398.5 90.5t-270.5 260.5t-97 395z" />
<glyph unicode="H" horiz-adv-x="1452" d="M123 0v1432h260v-594h688v594h258v-1432h-258v623h-688v-623h-260z" />
<glyph unicode="I" horiz-adv-x="505" d="M123 0v1432h260v-1432h-260z" />
<glyph unicode="J" horiz-adv-x="790" d="M41 8v217q67 -28 166 -28q201 0 201 190v1045h260v-1059q0 -189 -105 -296.5t-293 -107.5q-61 0 -127.5 11t-101.5 28z" />
<glyph unicode="K" horiz-adv-x="1404" d="M123 0v1432h260v-650l588 650h311l-635 -701l676 -731h-311l-629 680v-680h-260z" />
<glyph unicode="L" horiz-adv-x="1112" d="M123 0v1432h260v-1217h688v-215h-948z" />
<glyph unicode="M" horiz-adv-x="1712" d="M123 0v1432h254l479 -1049l479 1049h254v-1432h-246v930l-425 -930h-123l-426 930v-930h-246z" />
<glyph unicode="N" horiz-adv-x="1421" d="M123 0v1432h246l669 -998v998h260v-1432h-245l-670 999v-999h-260z" />
<glyph unicode="O" horiz-adv-x="1681" d="M82 715q0 165 58.5 305.5t160 237t241.5 150.5t300 54q213 0 385 -92t272 -263.5t100 -391.5q0 -219 -100 -390t-272 -263.5t-385 -92.5q-160 0 -300 54.5t-241.5 151t-160 236.5t-58.5 304zM344 715q0 -153 67.5 -270.5t180 -178.5t250.5 -61q137 0 248.5 61t179 178.5 t67.5 270.5q0 152 -66.5 269t-178.5 179t-250 62q-140 0 -252.5 -62t-179 -179t-66.5 -269z" />
<glyph unicode="P" horiz-adv-x="1257" d="M123 0v1432h573q235 0 378 -124.5t143 -342.5q0 -224 -141.5 -342.5t-381.5 -118.5h-311v-504h-260zM383 719h281q292 0 292 246q0 252 -292 252h-281v-498z" />
<glyph unicode="Q" horiz-adv-x="1667" d="M82 721q0 220 100.5 390t272.5 260.5t387 90.5q160 0 299 -53t240 -148.5t159.5 -235t58.5 -304.5q0 -148 -65 -282t-170 -212h262v-227h-752q-361 0 -576.5 195.5t-215.5 525.5zM344 721q0 -232 134 -358.5t364 -126.5q227 0 361 127t134 358q0 228 -141.5 366 t-353.5 138q-214 0 -356 -138t-142 -366z" />
<glyph unicode="R" horiz-adv-x="1298" d="M123 0v1432h598q237 0 366.5 -117t129.5 -338q0 -158 -78 -269t-221 -157l290 -551h-266l-276 524h-283v-524h-260zM383 739h291q128 0 205 60t77 178q0 240 -282 240h-291v-478z" />
<glyph unicode="S" horiz-adv-x="1161" d="M82 55v224q205 -99 436 -99q137 0 209 51.5t72 141.5q0 28 -7 51.5t-17.5 42t-34 37t-43.5 32t-61 32t-72 31.5t-89 36q-201 81 -291 181.5t-90 250.5q0 177 139.5 286t366.5 109q230 0 406 -80v-217q-180 86 -361 86q-131 0 -202.5 -47.5t-71.5 -136.5q0 -47 13 -78.5 t61 -63.5t80 -47t131 -56q6 -3 10 -4.5t9.5 -4t10.5 -4.5q107 -45 175.5 -85t120.5 -91.5t74.5 -114.5t22.5 -147q0 -191 -136.5 -296.5t-405.5 -105.5q-127 0 -251.5 23.5t-203.5 62.5z" />
<glyph unicode="T" horiz-adv-x="1206" d="M41 1217v215h1124v-215h-432v-1217h-260v1217h-432z" />
<glyph unicode="U" horiz-adv-x="1447" d="M113 557v875h260v-879q0 -169 95.5 -258.5t256.5 -89.5q160 0 255 89.5t95 258.5v879h260v-875q0 -271 -154 -429.5t-456 -158.5q-154 0 -271.5 42.5t-191.5 121t-111.5 185.5t-37.5 239z" />
<glyph unicode="V" horiz-adv-x="1560" d="M82 1432h276l422 -1084l424 1084h275l-572 -1432h-252z" />
<glyph unicode="W" horiz-adv-x="2035" d="M82 1432h270l285 -1012l281 1012h200l281 -1012l284 1012h271l-408 -1432h-241l-287 995l-287 -995h-242z" />
<glyph unicode="X" horiz-adv-x="1519" d="M82 0l530 723l-518 709h297l369 -506l370 506h297l-518 -709l529 -723h-297l-381 520l-381 -520h-297z" />
<glyph unicode="Y" horiz-adv-x="1462" d="M82 1432h276l369 -637l379 637h274l-530 -887v-545h-248v545z" />
<glyph unicode="Z" horiz-adv-x="1267" d="M82 0v170l749 1047h-731v215h1049v-170l-748 -1047h785v-215h-1104z" />
<glyph unicode="[" horiz-adv-x="653" d="M82 -197v1809h510v-215h-250v-1379h250v-215h-510z" />
<glyph unicode="\" horiz-adv-x="999" d="M82 1462h252l584 -1462h-252z" />
<glyph unicode="]" horiz-adv-x="653" d="M61 18h250v1379h-250v215h510v-1809h-510v215z" />
<glyph unicode="^" horiz-adv-x="1155" d="M82 793l393 680h205l393 -680h-248l-247 438l-248 -438h-248z" />
<glyph unicode="_" horiz-adv-x="999" d="M82 0h836v-227h-836v227z" />
<glyph unicode="`" horiz-adv-x="577" d="M82 1522h272l142 -357h-238z" />
<glyph unicode="a" horiz-adv-x="1181" d="M82 313q0 164 106.5 256.5t298.5 92.5q186 0 322 -76v26q0 104 -65 151.5t-207 47.5q-189 0 -334 -66v203q62 28 165 47t199 19q256 0 379 -110t123 -304v-600h-244v96q-63 -62 -144 -94.5t-198 -32.5q-176 0 -288.5 93.5t-112.5 250.5zM344 313q0 -77 52.5 -116 t150.5 -39q85 0 155 33.5t107 93.5v108q-115 80 -258 80q-207 0 -207 -160z" />
<glyph unicode="b" horiz-adv-x="1361" d="M123 0v1513h258v-626q69 63 169 95t212 32q228 0 373 -146t145 -379q0 -234 -145 -377t-373 -143q-124 0 -214 34t-175 112v-115h-250zM381 391q35 -100 121 -159.5t196 -59.5q139 0 229.5 88t90.5 229q0 142 -90.5 232t-229.5 90q-110 0 -197.5 -60.5t-119.5 -160.5 v-199z" />
<glyph unicode="c" horiz-adv-x="1122" d="M82 489q0 246 158.5 385.5t421.5 139.5q227 0 366 -90v-207q-131 94 -340 94q-158 0 -251 -79.5t-93 -242.5q0 -162 92.5 -239.5t247.5 -77.5q208 0 356 98v-204q-148 -97 -383 -97q-262 0 -418.5 137t-156.5 383z" />
<glyph unicode="d" horiz-adv-x="1361" d="M82 489q0 233 145 379t373 146q242 0 381 -127v626h258v-1513h-250v115q-85 -78 -175 -112t-214 -34q-228 0 -373 143t-145 377zM344 489q0 -141 90.5 -229t229.5 -88q110 0 196 59.5t121 159.5v199q-32 100 -119.5 160.5t-197.5 60.5q-139 0 -229.5 -90t-90.5 -232z" />
<glyph unicode="e" horiz-adv-x="1247" d="M82 489q0 241 141.5 383t403.5 142q130 0 233 -38.5t169 -107t101 -159.5t35 -199v-119h-837q25 -219 381 -219q206 0 364 61v-198q-69 -28 -179 -47t-218 -19q-275 0 -434.5 137t-159.5 383zM328 567h594q-4 118 -82.5 181t-216.5 63q-134 0 -212 -65.5t-83 -178.5z" />
<glyph unicode="f" horiz-adv-x="745" d="M41 786v197h145v170q0 180 106.5 275.5t280.5 95.5q96 0 172 -29v-209q-58 25 -120 25q-93 0 -137 -41.5t-44 -134.5v-152h240v-197h-240v-786h-258v786h-145z" />
<glyph unicode="g" horiz-adv-x="1361" d="M82 494q0 234 145 377t373 143q124 0 214 -34t175 -112v115h250v-924q0 -254 -146.5 -392t-449.5 -138q-98 0 -196 18t-164 50v204q160 -69 360 -69q181 0 259.5 75t78.5 226v63q-139 -127 -373 -127q-229 0 -377.5 146.5t-148.5 378.5zM344 494q0 -142 90.5 -232 t229.5 -90q110 0 197.5 60.5t119.5 160.5v199q-35 100 -121 159.5t-196 59.5q-139 0 -229.5 -88t-90.5 -229z" />
<glyph unicode="h" horiz-adv-x="1249" d="M123 0v1513h258v-655q138 156 360 156q198 0 297 -107.5t99 -285.5v-621h-258v596q0 215 -201 215q-87 0 -165.5 -42t-131.5 -126v-643h-258z" />
<glyph unicode="i" horiz-adv-x="538" d="M123 1298q0 62 42 104t103 42q62 0 105 -42.5t43 -103.5t-43 -102t-105 -41t-103.5 41t-41.5 102zM137 0v983h262v-983h-262z" />
<glyph unicode="j" horiz-adv-x="526" d="M-164 -238q56 -24 127 -24q85 0 125.5 42t40.5 132v1071h258v-1098q0 -179 -102.5 -268.5t-276.5 -89.5q-96 0 -172 27v208zM113 1298q0 60 42 102t103 42q60 0 102.5 -42t42.5 -102q0 -61 -42 -102t-103 -41q-62 0 -103.5 41t-41.5 102z" />
<glyph unicode="k" horiz-adv-x="1206" d="M123 0v1513h258v-962l391 432h303l-438 -481l487 -502h-303l-440 455v-455h-258z" />
<glyph unicode="l" horiz-adv-x="503" d="M123 0v1513h258v-1513h-258z" />
<glyph unicode="m" horiz-adv-x="1785" d="M123 0v983h242v-129q67 77 154 118.5t177 41.5q115 0 184.5 -38t104.5 -114q65 74 158.5 113t185.5 39q184 0 264 -92.5t80 -270.5v-651h-248v616q0 104 -42 149.5t-134 45.5q-138 0 -219 -113q4 -66 4 -106v-592h-250v621q0 105 -35 147.5t-126 42.5q-138 0 -250 -158 v-653h-250z" />
<glyph unicode="n" horiz-adv-x="1249" d="M123 0v983h250v-133q69 84 165.5 124t202.5 40q198 0 297 -107.5t99 -285.5v-621h-258v596q0 215 -201 215q-87 0 -165.5 -42t-131.5 -126v-643h-258z" />
<glyph unicode="o" horiz-adv-x="1314" d="M82 492q0 238 157 380t418 142q260 0 418 -142.5t158 -379.5q0 -244 -157 -383.5t-419 -139.5t-418.5 139.5t-156.5 383.5zM348 492q0 -141 84 -230.5t225 -89.5t225.5 89.5t84.5 230.5q0 150 -83.5 234.5t-226.5 84.5t-226 -84.5t-83 -234.5z" />
<glyph unicode="p" horiz-adv-x="1361" d="M123 -449v1432h250v-119q156 150 389 150q228 0 373 -143t145 -377q0 -233 -145 -379t-373 -146q-112 0 -212 32t-169 95v-545h-258zM381 393q32 -100 119.5 -160.5t197.5 -60.5q139 0 229.5 90t90.5 232q0 141 -90.5 229t-229.5 88q-110 0 -196 -59.5t-121 -159.5v-199z " />
<glyph unicode="q" horiz-adv-x="1361" d="M82 494q0 234 145 377t373 143q233 0 389 -150v119h250v-1432h-258v545q-69 -63 -169 -95t-212 -32q-228 0 -373 146t-145 379zM344 494q0 -142 90.5 -232t229.5 -90q110 0 197.5 60.5t119.5 160.5v199q-35 100 -121 159.5t-196 59.5q-139 0 -229.5 -88t-90.5 -229z" />
<glyph unicode="r" horiz-adv-x="833" d="M123 0v983h250v-158q60 79 169.5 118.5t250.5 39.5v-197q-150 0 -260 -46t-152 -144v-596h-258z" />
<glyph unicode="s" horiz-adv-x="1021" d="M82 717q0 148 116.5 222.5t315.5 74.5q102 0 203.5 -20t159.5 -54v-211q-61 37 -150 59.5t-180 22.5q-100 0 -151.5 -19.5t-51.5 -74.5q0 -49 50 -74t186 -61q6 -1 9.5 -2t9 -2.5t9.5 -2.5q188 -50 260 -120.5t72 -196.5q0 -132 -111 -210.5t-323 -78.5q-107 0 -227.5 25 t-188.5 67v220q81 -48 191 -78.5t208 -30.5t143.5 17.5t45.5 64.5q0 53 -52 81.5t-208 70.5q-92 27 -149.5 51.5t-102.5 60t-64.5 84t-19.5 115.5z" />
<glyph unicode="t" horiz-adv-x="794" d="M41 786v197h147v295h258v-295h236v-197h-236v-440q0 -93 35.5 -133.5t126.5 -40.5q62 0 125 29v-197q-87 -35 -215 -35q-161 0 -245.5 90t-84.5 254v473h-147z" />
<glyph unicode="u" horiz-adv-x="1249" d="M113 362v621h258v-596q0 -215 200 -215q87 0 165.5 42t131.5 126v643h258v-983h-249v133q-69 -84 -166 -124t-203 -40q-198 0 -296.5 107.5t-98.5 285.5z" />
<glyph unicode="v" horiz-adv-x="1216" d="M82 983h260l266 -680l266 680h261l-406 -983h-242z" />
<glyph unicode="w" horiz-adv-x="1699" d="M82 983h258l201 -666l196 666h226l196 -666l201 666h258l-322 -983h-237l-209 668l-209 -668h-238z" />
<glyph unicode="x" horiz-adv-x="1290" d="M82 0l420 510l-391 473h286l248 -301l248 301h287l-392 -473l420 -510h-284l-279 336l-278 -336h-285z" />
<glyph unicode="y" horiz-adv-x="1228" d="M82 983h260l303 -717l285 717h258l-430 -1071q-65 -163 -159 -240.5t-241 -77.5q-126 0 -202 27v197q54 -21 127 -21q78 0 116.5 34.5t67.5 111.5l39 102z" />
<glyph unicode="z" horiz-adv-x="1026" d="M82 0v162l522 624h-508v197h832v-162l-520 -624h536v-197h-862z" />
<glyph unicode="{" horiz-adv-x="704" d="M41 594v227h47q63 0 95 37.5t32 106.5v438q0 105 48 157t136 52h224v-217h-74q-42 0 -59 -20t-17 -66v-383q0 -171 -137 -217v-4q137 -40 137 -218v-383q0 -46 17 -66t59 -20h74v-217h-224q-88 0 -136 52t-48 157v439q0 145 -127 145h-47z" />
<glyph unicode="|" horiz-adv-x="423" d="M82 -295v1958h260v-1958h-260z" />
<glyph unicode="}" horiz-adv-x="704" d="M82 18h74q42 0 58.5 19.5t16.5 66.5v383q0 177 138 218v4q-138 47 -138 217v383q0 47 -16.5 66.5t-58.5 19.5h-74v217h223q88 0 136 -52t48 -157v-438q0 -69 32 -106.5t95 -37.5h48v-227h-48q-127 0 -127 -145v-439q0 -105 -48 -157t-136 -52h-223v217z" />
<glyph unicode="~" horiz-adv-x="1107" d="M82 541v231q32 49 93 75.5t138 26.5q71 0 159 -30.5t173 -61t150 -30.5q145 0 231 120v-231q-32 -49 -93 -75.5t-138 -26.5q-57 0 -124.5 19t-119.5 42.5t-118 42.5t-120 19q-144 0 -231 -121z" />
<glyph unicode="&#xa1;" horiz-adv-x="454" d="M82 983q0 60 42 101.5t103 41.5q60 0 103 -41.5t43 -101.5q0 -61 -42.5 -102t-103.5 -41q-62 0 -103.5 41t-41.5 102zM104 -346v1003h248v-1003h-248z" />
<glyph unicode="&#xa2;" horiz-adv-x="1122" d="M82 489q0 218 126 353.5t343 163.5v184h221v-182q148 -15 256 -84v-207q-104 74 -256 90v-631q152 18 268 94v-204q-111 -74 -268 -91v-182h-221v182q-217 27 -343 160.5t-126 353.5zM344 489q0 -239 207 -301v605q-98 -29 -152.5 -105t-54.5 -199z" />
<glyph unicode="&#xa3;" horiz-adv-x="1007" d="M82 0v215h160v440h-150v215h150v201q0 125 59 215t154.5 133t214.5 43q99 0 172 -28v-209q-56 24 -121 24q-101 0 -160 -50.5t-59 -145.5v-183h336v-215h-336v-440h424v-215h-844z" />
<glyph unicode="&#xa4;" horiz-adv-x="1224" d="M82 229l174 129q-61 88 -61 205q0 116 61 207l-172 129l109 135l180 -143q105 78 239 78q135 0 240 -78l180 143l109 -135l-172 -129q61 -91 61 -207q0 -117 -61 -205l174 -129l-111 -137l-182 141q-105 -75 -238 -75q-132 0 -237 75l-182 -141zM399 563q0 -89 62 -152 t151 -63t151 63t62 152q0 91 -62 154t-151 63t-151 -63t-62 -154z" />
<glyph unicode="&#xa5;" horiz-adv-x="1462" d="M82 1432h276l369 -637l379 637h274l-456 -764h206v-170h-280v-131h280v-172h-280v-195h-248v195h-280v172h280v131h-280v170h208z" />
<glyph unicode="&#xa6;" horiz-adv-x="423" d="M82 -295v797h260v-797h-260zM82 866v797h260v-797h-260z" />
<glyph unicode="&#xa7;" horiz-adv-x="1161" d="M82 -39q203 -98 436 -98q137 0 209 51t72 141q0 28 -7 51t-16 40.5t-33 36.5t-42.5 32t-61.5 33t-72 32.5t-92 38.5q-201 84 -291 183t-90 248q0 88 41 153q-41 66 -41 164q0 177 139.5 286t366.5 109q230 0 406 -80v-217q-180 86 -361 86q-121 0 -197.5 -54t-76.5 -136 q0 -74 71.5 -129t243.5 -131q79 -35 125 -57.5t97 -53.5t77.5 -59t51 -67t33.5 -86t9 -107q0 -82 -37 -154q37 -72 37 -164q0 -190 -136.5 -295.5t-405.5 -105.5q-127 0 -251.5 23.5t-203.5 62.5v223zM315 717q0 -71 66 -123t213 -115q107 -46 170 -79.5t96 -69.5q8 36 8 63 q0 35 -13.5 64t-32.5 49.5t-62 45t-78.5 41t-106.5 46.5q-189 80 -249 143q-11 -37 -11 -65z" />
<glyph unicode="&#xa8;" horiz-adv-x="921" d="M82 1319q0 57 40.5 97t96.5 40t95.5 -40t39.5 -97t-39.5 -96t-95.5 -39t-96.5 39.5t-40.5 95.5zM567 1319q0 57 41 97t97 40t95.5 -40t39.5 -97t-39.5 -96t-95.5 -39t-97 39.5t-41 95.5z" />
<glyph unicode="&#xa9;" horiz-adv-x="1673" d="M82 715q0 219 101.5 391t273 264t381.5 92q156 0 294.5 -54t239.5 -150.5t160 -237t59 -305.5q0 -218 -100.5 -389.5t-272 -264t-380.5 -92.5t-381 92.5t-273.5 264t-101.5 389.5zM313 715q0 -245 148.5 -387t376.5 -142t376 142t148 387q0 162 -69 283t-187 183t-268 62 q-231 0 -378 -142t-147 -386zM381 713q0 210 125.5 330t329.5 120q196 0 317 -78v-186q-113 80 -291 80q-266 0 -266 -266q0 -264 262 -264q177 0 307 86v-187q-128 -84 -334 -84q-201 0 -325.5 119t-124.5 330z" />
<glyph unicode="&#xaa;" horiz-adv-x="870" d="M82 961q0 117 76.5 183t214.5 66q136 0 229 -55v21q0 74 -46.5 107.5t-147.5 33.5q-140 0 -240 -47v145q44 20 118.5 33.5t143.5 13.5q182 0 270 -79t88 -218v-428h-174v68q-93 -90 -245 -90q-127 0 -207 67t-80 179zM270 961q0 -111 144 -111q62 0 112 24t76 66v78 q-77 57 -184 57q-148 0 -148 -114z" />
<glyph unicode="&#xab;" horiz-adv-x="1286" d="M82 631v65l485 422l129 -162l-346 -292l346 -291l-129 -162zM590 631v65l485 422l129 -162l-346 -292l346 -291l-129 -162z" />
<glyph unicode="&#xac;" horiz-adv-x="913" d="M82 520v197h749v-447h-258v250h-491z" />
<glyph unicode="&#xad;" horiz-adv-x="843" d="M82 510v207h680v-207h-680z" />
<glyph unicode="&#xae;" horiz-adv-x="1673" d="M82 715q0 219 101.5 391t273 264t381.5 92q156 0 294.5 -54t239.5 -150.5t160 -237t59 -305.5q0 -218 -100.5 -389.5t-272 -264t-380.5 -92.5t-381 92.5t-273.5 264t-101.5 389.5zM313 715q0 -245 148.5 -387t376.5 -142t376 142t148 387q0 162 -69 283t-187 183t-268 62 q-231 0 -378 -142t-147 -386zM532 299v842h347q142 0 227.5 -70t85.5 -197q0 -93 -53 -155.5t-148 -87.5l166 -332h-201l-161 319h-64v-319h-199zM731 770h139q76 0 110 25t34 79q0 63 -33.5 88t-110.5 25h-139v-217z" />
<glyph unicode="&#xaf;" horiz-adv-x="825" d="M82 1217v172h661v-172h-661z" />
<glyph unicode="&#xb0;" horiz-adv-x="753" d="M82 1194q0 122 87 208.5t208 86.5t208 -86.5t87 -208.5t-87 -208.5t-208 -86.5t-208 86.5t-87 208.5zM242 1194q0 -55 40.5 -96t94.5 -41q56 0 95.5 40.5t39.5 96.5q0 55 -39.5 95t-95.5 40t-95.5 -40t-39.5 -95z" />
<glyph unicode="&#xb1;" horiz-adv-x="843" d="M82 0v207h680v-207h-680zM82 551v207h235v235h207v-235h238v-207h-238v-238h-207v238h-235z" />
<glyph unicode="&#xb2;" horiz-adv-x="700" d="M82 758v121l135 112q126 103 158 139q43 49 43 91q0 71 -92 71q-49 0 -113 -19.5t-102 -45.5v166q38 25 103.5 42t123.5 17q136 0 204 -63t68 -158q0 -26 -3.5 -47t-16.5 -42.5t-21 -34.5t-34.5 -38t-38.5 -35.5t-50 -42.5l-102 -86h274v-147h-536z" />
<glyph unicode="&#xb3;" horiz-adv-x="710" d="M82 776v146q85 -43 211 -43q64 0 99.5 16.5t35.5 58.5q0 39 -31 56.5t-102 17.5h-100v139h98q117 0 117 68q0 34 -33 54t-94 20q-94 0 -187 -54v146q94 51 244 51q128 0 199 -52.5t71 -144.5q0 -109 -102 -157q121 -33 121 -158q0 -94 -77.5 -148.5t-217.5 -54.5 q-161 0 -252 39z" />
<glyph unicode="&#xb4;" horiz-adv-x="577" d="M82 1165l143 357h271l-177 -357h-237z" />
<glyph unicode="&#xb6;" horiz-adv-x="1552" d="M82 1042q0 250 149 384.5t394 134.5h845v-1835h-260v1620h-252v-1620h-260v809h-120q-225 0 -360.5 131.5t-135.5 375.5z" />
<glyph unicode="&#xb7;" horiz-adv-x="372" d="M82 606q0 43 30.5 74t73.5 31t74 -31t31 -74t-31 -73.5t-74 -30.5t-73.5 30.5t-30.5 73.5z" />
<glyph unicode="&#xb8;" horiz-adv-x="645" d="M82 -483l2 141q52 -25 119 -25q121 0 121 84q0 109 -203 109l67 174h232l-41 -106q88 -10 136 -64t48 -137q0 -95 -79.5 -148t-215.5 -53q-120 0 -186 25z" />
<glyph unicode="&#xb9;" horiz-adv-x="483" d="M82 1118v176l186 138h174v-674h-192v481z" />
<glyph unicode="&#xba;" horiz-adv-x="989" d="M82 1087q0 170 113 272.5t301 102.5q186 0 298.5 -102.5t112.5 -272.5q0 -175 -111.5 -274.5t-299.5 -99.5q-190 0 -302 99.5t-112 274.5zM276 1087q0 -100 60 -162.5t160 -62.5q99 0 158 63t59 162q0 105 -58.5 165.5t-158.5 60.5q-102 0 -161 -60.5t-59 -165.5z" />
<glyph unicode="&#xbb;" horiz-adv-x="1286" d="M82 373l346 291l-346 292l129 162l485 -422v-65l-485 -420zM590 373l346 291l-346 292l129 162l485 -422v-65l-485 -420z" />
<glyph unicode="&#xbc;" horiz-adv-x="1501" d="M82 1118v176l186 138h174v-674h-192v481zM207 0l792 1432h265l-793 -1432h-264zM817 139v131l301 404h207v-395h94v-140h-94v-139h-192v139h-316zM997 279h164v215z" />
<glyph unicode="&#xbd;" horiz-adv-x="1533" d="M82 1118v176l186 138h174v-674h-192v481zM207 0l792 1432h265l-793 -1432h-264zM915 0v121l136 112q63 52 87.5 72.5t57.5 53.5t44 56t11 48q0 72 -92 72q-49 0 -112.5 -19.5t-102.5 -46.5v166q38 25 103.5 42t123.5 17q137 0 205 -63t68 -158q0 -26 -3.5 -47 t-16.5 -42.5t-21 -34.5t-34.5 -38t-38.5 -35.5t-50 -42.5l-102 -86h274v-147h-537z" />
<glyph unicode="&#xbe;" horiz-adv-x="1525" d="M82 776v146q85 -43 211 -43q64 0 99.5 16.5t35.5 58.5q0 39 -31 56.5t-102 17.5h-100v139h98q117 0 117 68q0 34 -33 54t-94 20q-94 0 -187 -54v146q94 51 244 51q128 0 199 -52.5t71 -144.5q0 -109 -102 -157q121 -33 121 -158q0 -94 -77.5 -148.5t-217.5 -54.5 q-161 0 -252 39zM231 0l793 1432h264l-792 -1432h-265zM842 139v131l301 404h207v-395h94v-140h-94v-139h-193v139h-315zM1022 279h164v215z" />
<glyph unicode="&#xbf;" horiz-adv-x="1064" d="M82 23q0 56 13.5 100t49 84.5t62 63.5t87.5 69q9 7 13 10q105 81 130 108q47 50 53 125q2 18 2 40v45h247v-47q0 -120 -45 -203t-147 -156q-19 -13 -56.5 -39t-53 -37t-40 -32.5t-34.5 -38t-18.5 -40.5t-8.5 -52q0 -85 64.5 -132t195.5 -47q208 0 387 84v-215 q-178 -80 -387 -80q-238 0 -376 102.5t-138 287.5zM473 983q0 60 42.5 101.5t102.5 41.5q61 0 103.5 -41.5t42.5 -101.5q0 -61 -42 -102t-104 -41q-61 0 -103 41t-42 102z" />
<glyph unicode="&#xc0;" horiz-adv-x="1560" d="M82 0l573 1432h252l572 -1432h-265l-131 330h-606l-129 -330h-266zM479 1876h273l141 -356h-238zM549 545h463l-232 608z" />
<glyph unicode="&#xc1;" horiz-adv-x="1560" d="M82 0l573 1432h252l572 -1432h-265l-131 330h-606l-129 -330h-266zM549 545h463l-232 608zM674 1520l141 356h272l-176 -356h-237z" />
<glyph unicode="&#xc2;" horiz-adv-x="1560" d="M82 0l573 1432h252l572 -1432h-265l-131 330h-606l-129 -330h-266zM367 1520l301 350h229l299 -350h-258l-156 202l-155 -202h-260zM549 545h463l-232 608z" />
<glyph unicode="&#xc3;" horiz-adv-x="1560" d="M82 0l573 1432h252l572 -1432h-265l-131 330h-606l-129 -330h-266zM383 1520v211q66 88 205 88q70 0 195.5 -51.5t191.5 -51.5q128 0 205 105v-211q-64 -86 -205 -86q-63 0 -132.5 25.5t-135 51t-119.5 25.5q-124 0 -205 -106zM549 545h463l-232 608z" />
<glyph unicode="&#xc4;" horiz-adv-x="1560" d="M82 0l573 1432h252l572 -1432h-265l-131 330h-606l-129 -330h-266zM401 1675q0 57 41 97t97 40t95.5 -40t39.5 -97t-39.5 -96t-95.5 -39t-97 39.5t-41 95.5zM549 545h463l-232 608zM887 1675q0 57 40.5 97t96.5 40t95.5 -40t39.5 -97t-39.5 -96t-95.5 -39t-96.5 39.5 t-40.5 95.5z" />
<glyph unicode="&#xc5;" horiz-adv-x="1560" d="M82 0l555 1384q-52 34 -81.5 89t-29.5 120q0 106 74 181t180 75t181 -75t75 -181q0 -65 -29 -120t-81 -89l553 -1384h-265l-131 330h-606l-129 -330h-266zM549 545h463l-232 608zM676 1593q0 -43 30.5 -73.5t73.5 -30.5t74 30.5t31 73.5t-31 74t-74 31t-73.5 -31 t-30.5 -74z" />
<glyph unicode="&#xc6;" horiz-adv-x="1892" d="M82 0l678 1432h1050v-215h-636v-394h454v-215h-454v-393h636v-215h-897v350h-391l-162 -350h-278zM621 545h292v647h-6z" />
<glyph unicode="&#xc7;" horiz-adv-x="1441" d="M82 715q0 225 97 395.5t270.5 261t398.5 90.5q297 0 495 -141v-248q-179 152 -473 152q-238 0 -382 -138.5t-144 -371.5q0 -234 145 -372t381 -138q151 0 270 38t220 122v-248q-149 -117 -377 -142l-33 -81q88 -10 136.5 -64t48.5 -137q0 -95 -79.5 -148t-215.5 -53 q-121 0 -187 25l2 141q52 -25 119 -25q121 0 121 84q0 109 -203 109l58 147q-302 30 -485 229.5t-183 512.5z" />
<glyph unicode="&#xc8;" horiz-adv-x="1173" d="M123 0v1432h969v-215h-709v-394h526v-215h-526v-393h709v-215h-969zM313 1876h273l141 -356h-238z" />
<glyph unicode="&#xc9;" horiz-adv-x="1153" d="M123 0v1432h969v-215h-709v-394h526v-215h-526v-393h709v-215h-969zM446 1520l142 356h272l-176 -356h-238z" />
<glyph unicode="&#xca;" horiz-adv-x="1173" d="M123 0v1432h969v-215h-709v-394h526v-215h-526v-393h709v-215h-969zM162 1520l301 350h229l299 -350h-258l-155 202l-156 -202h-260z" />
<glyph unicode="&#xcb;" horiz-adv-x="1173" d="M123 0v1432h969v-215h-709v-394h526v-215h-526v-393h709v-215h-969zM213 1675q0 57 40.5 97t96.5 40t95.5 -40t39.5 -97t-39.5 -96t-95.5 -39t-96.5 39.5t-40.5 95.5zM698 1675q0 57 41 97t97 40t95.5 -40t39.5 -97t-39.5 -96t-95.5 -39t-97 39.5t-41 95.5z" />
<glyph unicode="&#xcc;" horiz-adv-x="518" d="M-39 1876h272l142 -356h-238zM129 0v1432h260v-1432h-260z" />
<glyph unicode="&#xcd;" horiz-adv-x="518" d="M129 0v1432h260v-1432h-260zM141 1520l142 356h272l-176 -356h-238z" />
<glyph unicode="&#xce;" horiz-adv-x="518" d="M-156 1520l301 350h230l299 -350h-258l-156 202l-156 -202h-260zM129 0v1432h260v-1432h-260z" />
<glyph unicode="&#xcf;" horiz-adv-x="518" d="M-121 1675q0 57 40.5 97t96.5 40t96 -40t40 -97t-40 -96t-96 -39t-96.5 39.5t-40.5 95.5zM129 0v1432h260v-1432h-260zM365 1675q0 57 40.5 97t96.5 40t95.5 -40t39.5 -97t-39.5 -96t-95.5 -39t-96.5 39.5t-40.5 95.5z" />
<glyph unicode="&#xd0;" horiz-adv-x="1484" d="M41 616v197h121v619h479q352 0 557 -191t205 -518q0 -357 -207.5 -540t-577.5 -183h-456v616h-121zM422 215h201q250 0 384 134.5t134 373.5q0 221 -132.5 357.5t-359.5 136.5h-227v-404h352v-197h-352v-401z" />
<glyph unicode="&#xd1;" horiz-adv-x="1421" d="M123 0v1432h246l669 -998v998h260v-1432h-245l-670 999v-999h-260zM328 1520v211q66 88 204 88q70 0 196 -51.5t192 -51.5q127 0 204 105v-211q-64 -86 -204 -86q-63 0 -132.5 25.5t-135.5 51t-120 25.5q-123 0 -204 -106z" />
<glyph unicode="&#xd2;" horiz-adv-x="1681" d="M82 715q0 165 58.5 305.5t160 237t241.5 150.5t300 54q213 0 385 -92t272 -263.5t100 -391.5q0 -219 -100 -390t-272 -263.5t-385 -92.5q-160 0 -300 54.5t-241.5 151t-160 236.5t-58.5 304zM344 715q0 -153 67.5 -270.5t180 -178.5t250.5 -61q137 0 248.5 61t179 178.5 t67.5 270.5q0 152 -66.5 269t-178.5 179t-250 62q-140 0 -252.5 -62t-179 -179t-66.5 -269zM563 1876h273l141 -356h-238z" />
<glyph unicode="&#xd3;" horiz-adv-x="1681" d="M82 715q0 165 58.5 305.5t160 237t241.5 150.5t300 54q213 0 385 -92t272 -263.5t100 -391.5q0 -219 -100 -390t-272 -263.5t-385 -92.5q-160 0 -300 54.5t-241.5 151t-160 236.5t-58.5 304zM344 715q0 -153 67.5 -270.5t180 -178.5t250.5 -61q137 0 248.5 61t179 178.5 t67.5 270.5q0 152 -66.5 269t-178.5 179t-250 62q-140 0 -252.5 -62t-179 -179t-66.5 -269zM719 1520l141 356h273l-177 -356h-237z" />
<glyph unicode="&#xd4;" horiz-adv-x="1681" d="M82 715q0 165 58.5 305.5t160 237t241.5 150.5t300 54q213 0 385 -92t272 -263.5t100 -391.5q0 -219 -100 -390t-272 -263.5t-385 -92.5q-160 0 -300 54.5t-241.5 151t-160 236.5t-58.5 304zM344 715q0 -153 67.5 -270.5t180 -178.5t250.5 -61q137 0 248.5 61t179 178.5 t67.5 270.5q0 152 -66.5 269t-178.5 179t-250 62q-140 0 -252.5 -62t-179 -179t-66.5 -269zM426 1520l301 350h229l299 -350h-258l-155 202l-156 -202h-260z" />
<glyph unicode="&#xd5;" horiz-adv-x="1681" d="M82 715q0 165 58.5 305.5t160 237t241.5 150.5t300 54q213 0 385 -92t272 -263.5t100 -391.5q0 -219 -100 -390t-272 -263.5t-385 -92.5q-160 0 -300 54.5t-241.5 151t-160 236.5t-58.5 304zM344 715q0 -153 67.5 -270.5t180 -178.5t250.5 -61q137 0 248.5 61t179 178.5 t67.5 270.5q0 152 -66.5 269t-178.5 179t-250 62q-140 0 -252.5 -62t-179 -179t-66.5 -269zM444 1520v211q66 88 205 88q70 0 195.5 -51.5t191.5 -51.5q128 0 205 105v-211q-64 -86 -205 -86q-63 0 -132.5 25.5t-135 51t-119.5 25.5q-124 0 -205 -106z" />
<glyph unicode="&#xd6;" horiz-adv-x="1681" d="M82 715q0 165 58.5 305.5t160 237t241.5 150.5t300 54q213 0 385 -92t272 -263.5t100 -391.5q0 -219 -100 -390t-272 -263.5t-385 -92.5q-160 0 -300 54.5t-241.5 151t-160 236.5t-58.5 304zM344 715q0 -153 67.5 -270.5t180 -178.5t250.5 -61q137 0 248.5 61t179 178.5 t67.5 270.5q0 152 -66.5 269t-178.5 179t-250 62q-140 0 -252.5 -62t-179 -179t-66.5 -269zM461 1675q0 57 40.5 97t96.5 40t95.5 -40t39.5 -97t-39.5 -96t-95.5 -39t-96.5 39.5t-40.5 95.5zM946 1675q0 57 40.5 97t96.5 40t96 -40t40 -97t-40 -96t-96 -39t-96.5 39.5 t-40.5 95.5z" />
<glyph unicode="&#xd7;" horiz-adv-x="792" d="M82 791l147 145l166 -168l168 170l148 -147l-168 -168l166 -166l-146 -148l-168 166l-164 -164l-147 146l166 166z" />
<glyph unicode="&#xd8;" horiz-adv-x="1681" d="M82 715q0 165 58.5 305.5t160 237t241.5 150.5t300 54q83 0 168 -16l65 160h254l-96 -242q170 -95 268 -263t98 -386q0 -219 -100 -390t-272 -263.5t-385 -92.5q-76 0 -166 17l-64 -162h-254l97 237q-173 95 -273 265t-100 389zM344 715q0 -139 54 -247.5t149 -174.5 l373 926q-40 6 -78 6q-140 0 -252.5 -62t-179 -179t-66.5 -269zM768 209q46 -4 74 -4q137 0 248.5 61t179 178.5t67.5 270.5q0 135 -52.5 242.5t-145.5 175.5z" />
<glyph unicode="&#xd9;" horiz-adv-x="1447" d="M113 557v875h260v-879q0 -169 95.5 -258.5t256.5 -89.5q160 0 255 89.5t95 258.5v879h260v-875q0 -271 -154 -429.5t-456 -158.5q-154 0 -271.5 42.5t-191.5 121t-111.5 185.5t-37.5 239zM438 1876h273l141 -356h-238z" />
<glyph unicode="&#xda;" horiz-adv-x="1447" d="M113 557v875h260v-879q0 -169 95.5 -258.5t256.5 -89.5q160 0 255 89.5t95 258.5v879h260v-875q0 -271 -154 -429.5t-456 -158.5q-154 0 -271.5 42.5t-191.5 121t-111.5 185.5t-37.5 239zM592 1520l141 356h273l-177 -356h-237z" />
<glyph unicode="&#xdb;" horiz-adv-x="1447" d="M113 557v875h260v-879q0 -169 95.5 -258.5t256.5 -89.5q160 0 255 89.5t95 258.5v879h260v-875q0 -271 -154 -429.5t-456 -158.5q-154 0 -271.5 42.5t-191.5 121t-111.5 185.5t-37.5 239zM309 1520l301 350h230l299 -350h-258l-156 202l-156 -202h-260z" />
<glyph unicode="&#xdc;" horiz-adv-x="1447" d="M113 557v875h260v-879q0 -169 95.5 -258.5t256.5 -89.5q160 0 255 89.5t95 258.5v879h260v-875q0 -271 -154 -429.5t-456 -158.5q-154 0 -271.5 42.5t-191.5 121t-111.5 185.5t-37.5 239zM344 1675q0 57 40.5 97t96.5 40t95.5 -40t39.5 -97t-39.5 -96t-95.5 -39 t-96.5 39.5t-40.5 95.5zM829 1675q0 57 41 97t97 40t95.5 -40t39.5 -97t-39.5 -96t-95.5 -39t-97 39.5t-41 95.5z" />
<glyph unicode="&#xdd;" horiz-adv-x="1486" d="M94 1432h277l368 -637l379 637h275l-531 -887v-545h-248v545zM610 1520l142 356h272l-176 -356h-238z" />
<glyph unicode="&#xde;" horiz-adv-x="1257" d="M123 0v1432h260v-265h330q240 0 372 -111.5t132 -336.5t-132 -336t-372 -111h-330v-272h-260zM383 487h281q51 0 91.5 5.5t79 21t64.5 40.5t41.5 67t15.5 98q0 70 -22.5 118t-65.5 72t-91 33.5t-113 9.5h-281v-465z" />
<glyph unicode="&#xdf;" horiz-adv-x="1327" d="M113 0v1020q0 235 133.5 369.5t392.5 134.5q128 0 228 -38t159 -102.5t89 -141.5t30 -161q0 -99 -43.5 -181t-126.5 -120q270 -78 270 -366q0 -206 -120.5 -325.5t-346.5 -119.5q-175 0 -266 39v240q82 -43 223 -43q114 0 180 68t66 178q0 113 -69 163t-203 50h-117v217 h92q197 0 197 200q0 91 -65 147t-175 56q-268 0 -268 -248v-1036h-260z" />
<glyph unicode="&#xe0;" horiz-adv-x="1181" d="M82 313q0 164 106.5 256.5t298.5 92.5q186 0 322 -76v26q0 104 -65 151.5t-207 47.5q-189 0 -334 -66v203q62 28 165 47t199 19q256 0 379 -110t123 -304v-600h-244v96q-63 -62 -144 -94.5t-198 -32.5q-176 0 -288.5 93.5t-112.5 250.5zM344 313q0 -77 52.5 -116 t150.5 -39q85 0 155 33.5t107 93.5v108q-115 80 -258 80q-207 0 -207 -160zM360 1452h273l141 -356h-237z" />
<glyph unicode="&#xe1;" horiz-adv-x="1181" d="M82 313q0 164 106.5 256.5t298.5 92.5q186 0 322 -76v26q0 104 -65 151.5t-207 47.5q-189 0 -334 -66v203q62 28 165 47t199 19q256 0 379 -110t123 -304v-600h-244v96q-63 -62 -144 -94.5t-198 -32.5q-176 0 -288.5 93.5t-112.5 250.5zM344 313q0 -77 52.5 -116 t150.5 -39q85 0 155 33.5t107 93.5v108q-115 80 -258 80q-207 0 -207 -160zM475 1096l141 356h273l-176 -356h-238z" />
<glyph unicode="&#xe2;" horiz-adv-x="1181" d="M82 313q0 164 106.5 256.5t298.5 92.5q186 0 322 -76v26q0 104 -65 151.5t-207 47.5q-189 0 -334 -66v203q62 28 165 47t199 19q256 0 379 -110t123 -304v-600h-244v96q-63 -62 -144 -94.5t-198 -32.5q-176 0 -288.5 93.5t-112.5 250.5zM193 1096l301 350h229l299 -350 h-258l-156 202l-155 -202h-260zM344 313q0 -77 52.5 -116t150.5 -39q85 0 155 33.5t107 93.5v108q-115 80 -258 80q-207 0 -207 -160z" />
<glyph unicode="&#xe3;" horiz-adv-x="1181" d="M82 313q0 164 106.5 256.5t298.5 92.5q186 0 322 -76v26q0 104 -65 151.5t-207 47.5q-189 0 -334 -66v203q62 28 165 47t199 19q256 0 379 -110t123 -304v-600h-244v96q-63 -62 -144 -94.5t-198 -32.5q-176 0 -288.5 93.5t-112.5 250.5zM236 1092v211q66 88 204 88 q70 0 195.5 -51.5t191.5 -51.5q128 0 205 105v-211q-64 -86 -205 -86q-63 0 -132.5 25.5t-135 51t-119.5 25.5q-123 0 -204 -106zM344 313q0 -77 52.5 -116t150.5 -39q85 0 155 33.5t107 93.5v108q-115 80 -258 80q-207 0 -207 -160z" />
<glyph unicode="&#xe4;" horiz-adv-x="1181" d="M82 313q0 164 106.5 256.5t298.5 92.5q186 0 322 -76v26q0 104 -65 151.5t-207 47.5q-189 0 -334 -66v203q62 28 165 47t199 19q256 0 379 -110t123 -304v-600h-244v96q-63 -62 -144 -94.5t-198 -32.5q-176 0 -288.5 93.5t-112.5 250.5zM217 1251q0 57 40.5 97.5 t96.5 40.5t95.5 -40.5t39.5 -97.5t-39.5 -96t-95.5 -39t-96.5 39.5t-40.5 95.5zM344 313q0 -77 52.5 -116t150.5 -39q85 0 155 33.5t107 93.5v108q-115 80 -258 80q-207 0 -207 -160zM702 1251q0 57 41 97.5t97 40.5t95.5 -40.5t39.5 -97.5t-39.5 -96t-95.5 -39t-97 39.5 t-41 95.5z" />
<glyph unicode="&#xe5;" horiz-adv-x="1181" d="M82 313q0 164 106.5 256.5t298.5 92.5q186 0 322 -76v26q0 104 -65 151.5t-207 47.5q-189 0 -334 -66v203q62 28 165 47t199 19q256 0 379 -110t123 -304v-600h-244v96q-63 -62 -144 -94.5t-198 -32.5q-176 0 -288.5 93.5t-112.5 250.5zM344 313q0 -77 52.5 -116 t150.5 -39q85 0 155 33.5t107 93.5v108q-115 80 -258 80q-207 0 -207 -160zM369 1350q0 106 74 181t180 75t181 -75t75 -181t-75 -180t-181 -74t-180 74t-74 180zM518 1350q0 -43 31 -74t74 -31t73.5 31t30.5 74t-30.5 73.5t-73.5 30.5t-74 -30.5t-31 -73.5z" />
<glyph unicode="&#xe6;" horiz-adv-x="1984" d="M82 313q0 164 106.5 256.5t298.5 92.5q186 0 322 -76v26q0 104 -65 151.5t-207 47.5q-189 0 -334 -66v203q62 28 165 47t199 19q266 0 394 -144q147 144 403 144q130 0 233 -38.5t169.5 -106.5t101.5 -159.5t35 -199.5v-119h-834q25 -219 377 -219q206 0 364 61v-198 q-69 -28 -179 -47t-218 -19q-284 0 -459 158q-84 -77 -188.5 -117.5t-265.5 -40.5q-195 0 -306.5 92t-111.5 252zM344 313q0 -77 52.5 -116t150.5 -39q85 0 153.5 31.5t108.5 89.5v114q-115 80 -258 80q-207 0 -207 -160zM1069 567h590q-4 118 -82.5 181t-216.5 63 q-134 0 -210 -65t-81 -179z" />
<glyph unicode="&#xe7;" horiz-adv-x="1122" d="M82 489q0 246 158.5 385.5t421.5 139.5q227 0 366 -90v-207q-131 94 -340 94q-158 0 -251 -79.5t-93 -242.5q0 -162 92.5 -239.5t247.5 -77.5q208 0 356 98v-204q-112 -74 -270 -91l-31 -81q88 -10 136.5 -64t48.5 -137q0 -95 -79.5 -148t-215.5 -53q-121 0 -187 25 l2 141q52 -25 119 -25q121 0 121 84q0 109 -203 109l60 151q-214 30 -336.5 162.5t-122.5 349.5z" />
<glyph unicode="&#xe8;" horiz-adv-x="1247" d="M82 489q0 241 141.5 383t403.5 142q130 0 233 -38.5t169 -107t101 -159.5t35 -199v-119h-837q25 -219 381 -219q206 0 364 61v-198q-69 -28 -179 -47t-218 -19q-275 0 -434.5 137t-159.5 383zM328 567h594q-4 118 -82.5 181t-216.5 63q-134 0 -212 -65.5t-83 -178.5z M356 1452h273l141 -356h-238z" />
<glyph unicode="&#xe9;" horiz-adv-x="1247" d="M82 489q0 241 141.5 383t403.5 142q130 0 233 -38.5t169 -107t101 -159.5t35 -199v-119h-837q25 -219 381 -219q206 0 364 61v-198q-69 -28 -179 -47t-218 -19q-275 0 -434.5 137t-159.5 383zM328 567h594q-4 118 -82.5 181t-216.5 63q-134 0 -212 -65.5t-83 -178.5z M485 1096l142 356h272l-176 -356h-238z" />
<glyph unicode="&#xea;" horiz-adv-x="1247" d="M82 489q0 241 141.5 383t403.5 142q130 0 233 -38.5t169 -107t101 -159.5t35 -199v-119h-837q25 -219 381 -219q206 0 364 61v-198q-69 -28 -179 -47t-218 -19q-275 0 -434.5 137t-159.5 383zM227 1096l301 350h230l299 -350h-258l-156 202l-156 -202h-260zM328 567h594 q-4 118 -82.5 181t-216.5 63q-134 0 -212 -65.5t-83 -178.5z" />
<glyph unicode="&#xeb;" horiz-adv-x="1247" d="M82 489q0 241 141.5 383t403.5 142q130 0 233 -38.5t169 -107t101 -159.5t35 -199v-119h-837q25 -219 381 -219q206 0 364 61v-198q-69 -28 -179 -47t-218 -19q-275 0 -434.5 137t-159.5 383zM256 1251q0 57 40.5 97.5t96.5 40.5t95.5 -40.5t39.5 -97.5t-39.5 -96 t-95.5 -39t-96.5 39.5t-40.5 95.5zM328 567h594q-4 118 -82.5 181t-216.5 63q-134 0 -212 -65.5t-83 -178.5zM741 1251q0 57 41 97.5t97 40.5t95.5 -40.5t39.5 -97.5t-39.5 -96t-95.5 -39t-97 39.5t-41 95.5z" />
<glyph unicode="&#xec;" horiz-adv-x="507" d="M-41 1452h272l142 -356h-238zM123 0v983h262v-983h-262z" />
<glyph unicode="&#xed;" horiz-adv-x="507" d="M123 0v983h262v-983h-262zM131 1096l141 356h273l-176 -356h-238z" />
<glyph unicode="&#xee;" horiz-adv-x="507" d="M-160 1096l301 350h230l299 -350h-258l-156 202l-156 -202h-260zM123 0v983h262v-983h-262z" />
<glyph unicode="&#xef;" horiz-adv-x="507" d="M-125 1251q0 57 40.5 97.5t96.5 40.5t95.5 -40.5t39.5 -97.5t-39.5 -96t-95.5 -39t-96.5 39.5t-40.5 95.5zM123 0v983h262v-983h-262zM360 1251q0 57 41 97.5t97 40.5t95.5 -40.5t39.5 -97.5t-39.5 -96t-95.5 -39t-97 39.5t-41 95.5z" />
<glyph unicode="&#xf0;" horiz-adv-x="1298" d="M82 453q0 222 139.5 348.5t388.5 126.5q98 0 189 -33t153 -94q-6 184 -84 309l-274 -133v166l162 78q-68 41 -158 41q-61 0 -136.5 -10.5t-115.5 -28.5v209q45 11 122 20.5t130 9.5q236 0 379 -135l240 117v-166l-146 -72q115 -200 115 -547q0 -169 -42 -301.5 t-118.5 -217t-179.5 -128t-228 -43.5q-256 0 -396 133.5t-140 350.5zM338 446q0 -126 80.5 -202t208.5 -76q124 0 199 80.5t75 197.5q0 123 -78 201t-196 78q-127 0 -208 -76.5t-81 -202.5z" />
<glyph unicode="&#xf1;" horiz-adv-x="1249" d="M123 0v983h250v-133q69 84 165.5 124t202.5 40q198 0 297 -107.5t99 -285.5v-621h-258v596q0 215 -201 215q-87 0 -165.5 -42t-131.5 -126v-643h-258zM207 1096v211q66 88 205 88q70 0 195.5 -51.5t191.5 -51.5q128 0 205 105v-211q-64 -86 -205 -86q-63 0 -132.5 25.5 t-135 51t-119.5 25.5q-124 0 -205 -106z" />
<glyph unicode="&#xf2;" horiz-adv-x="1314" d="M82 492q0 238 157 380t418 142q260 0 418 -142.5t158 -379.5q0 -244 -157 -383.5t-419 -139.5t-418.5 139.5t-156.5 383.5zM348 492q0 -141 84 -230.5t225 -89.5t225.5 89.5t84.5 230.5q0 150 -83.5 234.5t-226.5 84.5t-226 -84.5t-83 -234.5zM395 1452h273l141 -356 h-238z" />
<glyph unicode="&#xf3;" horiz-adv-x="1314" d="M82 492q0 238 157 380t418 142q260 0 418 -142.5t158 -379.5q0 -244 -157 -383.5t-419 -139.5t-418.5 139.5t-156.5 383.5zM348 492q0 -141 84 -230.5t225 -89.5t225.5 89.5t84.5 230.5q0 150 -83.5 234.5t-226.5 84.5t-226 -84.5t-83 -234.5zM532 1096l142 356h272 l-176 -356h-238z" />
<glyph unicode="&#xf4;" horiz-adv-x="1388" d="M156 492q0 238 157 380t418 142q260 0 418 -142.5t158 -379.5q0 -244 -157 -383.5t-419 -139.5t-418.5 139.5t-156.5 383.5zM317 1096l301 350h230l299 -350h-258l-156 202l-155 -202h-261zM422 492q0 -141 84 -230.5t225 -89.5t225 89.5t84 230.5q0 150 -83 234.5 t-226 84.5t-226 -84.5t-83 -234.5z" />
<glyph unicode="&#xf5;" horiz-adv-x="1372" d="M139 492q0 237 157.5 379.5t418.5 142.5q260 0 417.5 -142.5t157.5 -379.5q0 -244 -156.5 -383.5t-418.5 -139.5t-419 139.5t-157 383.5zM317 1122v211q66 88 205 88q70 0 195.5 -51t191.5 -51q129 0 205 104v-211q-64 -86 -205 -86q-63 0 -132.5 26t-135 51.5 t-119.5 25.5q-123 0 -205 -107zM406 492q0 -141 84 -230.5t225 -89.5t225 89.5t84 230.5q0 150 -83 234.5t-226 84.5t-226 -84.5t-83 -234.5z" />
<glyph unicode="&#xf6;" horiz-adv-x="1351" d="M119 492q0 238 157 380t418 142q260 0 418 -142.5t158 -379.5q0 -244 -157 -383.5t-419 -139.5t-418.5 139.5t-156.5 383.5zM315 1251q0 57 41 97.5t97 40.5t95.5 -40.5t39.5 -97.5t-39.5 -96t-95.5 -39t-97 39.5t-41 95.5zM385 492q0 -141 84 -230.5t225 -89.5 t225.5 89.5t84.5 230.5q0 150 -83.5 234.5t-226.5 84.5t-226 -84.5t-83 -234.5zM801 1251q0 57 40.5 97.5t96.5 40.5t95.5 -40.5t39.5 -97.5t-39.5 -96t-95.5 -39t-96.5 39.5t-40.5 95.5z" />
<glyph unicode="&#xf7;" horiz-adv-x="843" d="M82 510v207h680v-207h-680zM307 326q0 49 33.5 82.5t81.5 33.5t81.5 -33.5t33.5 -82.5q0 -47 -34 -80t-81 -33t-81 33t-34 80zM307 897q0 49 33.5 83t81.5 34t81.5 -34t33.5 -83q0 -47 -34 -80t-81 -33t-81 33t-34 80z" />
<glyph unicode="&#xf8;" horiz-adv-x="1314" d="M82 492q0 238 157 380t418 142q26 0 76 -4l60 149h254l-86 -211q129 -64 200.5 -182t71.5 -274q0 -244 -157 -383.5t-419 -139.5q-30 0 -88 4l-59 -149h-254l86 213q-125 64 -192.5 180.5t-67.5 274.5zM348 492q0 -145 84 -232l221 551q-142 -2 -223.5 -86.5 t-81.5 -232.5zM649 172h8q141 0 225.5 89.5t84.5 230.5q0 154 -93 241z" />
<glyph unicode="&#xf9;" horiz-adv-x="1249" d="M113 362v621h258v-596q0 -215 200 -215q87 0 165.5 42t131.5 126v643h258v-983h-249v133q-69 -84 -166 -124t-203 -40q-198 0 -296.5 107.5t-98.5 285.5zM340 1452h272l142 -356h-238z" />
<glyph unicode="&#xfa;" horiz-adv-x="1249" d="M113 362v621h258v-596q0 -215 200 -215q87 0 165.5 42t131.5 126v643h258v-983h-249v133q-69 -84 -166 -124t-203 -40q-198 0 -296.5 107.5t-98.5 285.5zM483 1096l142 356h272l-176 -356h-238z" />
<glyph unicode="&#xfb;" horiz-adv-x="1249" d="M113 362v621h258v-596q0 -215 200 -215q87 0 165.5 42t131.5 126v643h258v-983h-249v133q-69 -84 -166 -124t-203 -40q-198 0 -296.5 107.5t-98.5 285.5zM195 1096l301 350h229l299 -350h-258l-156 202l-155 -202h-260z" />
<glyph unicode="&#xfc;" horiz-adv-x="1249" d="M113 362v621h258v-596q0 -215 200 -215q87 0 165.5 42t131.5 126v643h258v-983h-249v133q-69 -84 -166 -124t-203 -40q-198 0 -296.5 107.5t-98.5 285.5zM233 1251q0 57 41 97.5t97 40.5t95.5 -40.5t39.5 -97.5t-39.5 -96t-95.5 -39t-97 39.5t-41 95.5zM719 1251 q0 57 40.5 97.5t96.5 40.5t95.5 -40.5t39.5 -97.5t-39.5 -96t-95.5 -39t-96.5 39.5t-40.5 95.5z" />
<glyph unicode="&#xfd;" horiz-adv-x="1228" d="M82 983h260l303 -717l285 717h258l-430 -1071q-65 -163 -159 -240.5t-241 -77.5q-126 0 -202 27v197q54 -21 127 -21q78 0 116.5 34.5t67.5 111.5l39 102zM500 1096l141 356h272l-176 -356h-237z" />
<glyph unicode="&#xfe;" horiz-adv-x="1361" d="M123 -449v1881h258v-545q69 63 169 95t212 32q228 0 373 -143t145 -377q0 -233 -145 -379t-373 -146q-112 0 -212 32t-169 95v-545h-258zM381 393q32 -100 119.5 -160.5t197.5 -60.5q139 0 229.5 90t90.5 232q0 141 -90.5 229t-229.5 88q-110 0 -196 -59.5t-121 -159.5 v-199z" />
<glyph unicode="&#xff;" horiz-adv-x="1228" d="M82 983h260l303 -717l285 717h258l-430 -1071q-65 -163 -159 -240.5t-241 -77.5q-126 0 -202 27v197q54 -21 127 -21q78 0 116.5 34.5t67.5 111.5l39 102zM266 1251q0 57 40.5 97.5t96.5 40.5t96 -40.5t40 -97.5t-40 -96t-96 -39t-96.5 39.5t-40.5 95.5zM752 1251 q0 57 40.5 97.5t96.5 40.5t95.5 -40.5t39.5 -97.5t-39.5 -96t-95.5 -39t-96.5 39.5t-40.5 95.5z" />
<glyph unicode="&#x100;" horiz-adv-x="1560" d="M82 0l573 1432h252l572 -1432h-265l-131 330h-606l-129 -330h-266zM451 1540v172h661v-172h-661zM549 545h463l-232 608z" />
<glyph unicode="&#x101;" horiz-adv-x="1181" d="M82 313q0 164 106.5 256.5t298.5 92.5q186 0 322 -76v26q0 104 -65 151.5t-207 47.5q-189 0 -334 -66v203q62 28 165 47t199 19q256 0 379 -110t123 -304v-600h-244v96q-63 -62 -144 -94.5t-198 -32.5q-176 0 -288.5 93.5t-112.5 250.5zM295 1116v172h661v-172h-661z M344 313q0 -77 52.5 -116t150.5 -39q85 0 155 33.5t107 93.5v108q-115 80 -258 80q-207 0 -207 -160z" />
<glyph unicode="&#x102;" horiz-adv-x="1560" d="M82 0l573 1432h252l572 -1432h-265l-131 330h-606l-129 -330h-266zM451 1829h194q0 -67 35 -102t100 -35t100 35t35 102h195q0 -140 -88.5 -224.5t-241.5 -84.5t-241 84.5t-88 224.5zM549 545h463l-232 608z" />
<glyph unicode="&#x103;" horiz-adv-x="1181" d="M82 313q0 164 106.5 256.5t298.5 92.5q186 0 322 -76v26q0 104 -65 151.5t-207 47.5q-189 0 -334 -66v203q62 28 165 47t199 19q256 0 379 -110t123 -304v-600h-244v96q-63 -62 -144 -94.5t-198 -32.5q-176 0 -288.5 93.5t-112.5 250.5zM289 1405h194q0 -67 35 -102 t100 -35t100.5 35t35.5 102h194q0 -140 -88.5 -224.5t-241.5 -84.5t-241 84.5t-88 224.5zM344 313q0 -77 52.5 -116t150.5 -39q85 0 155 33.5t107 93.5v108q-115 80 -258 80q-207 0 -207 -160z" />
<glyph unicode="&#x104;" horiz-adv-x="1560" d="M82 0l573 1432h252l572 -1432h-39q-82 -49 -122 -97.5t-40 -105.5q0 -39 23 -60.5t61 -21.5q50 0 98 23v-148q-70 -26 -178 -26q-102 0 -165.5 47.5t-63.5 140.5q0 78 40.5 142t108.5 106h12l-131 330h-606l-129 -330h-266zM549 545h463l-232 608z" />
<glyph unicode="&#x105;" horiz-adv-x="1181" d="M82 313q0 164 106.5 256.5t298.5 92.5q186 0 322 -76v26q0 104 -65 151.5t-207 47.5q-189 0 -334 -66v203q62 28 165 47t199 19q256 0 379 -110t123 -304v-600h-6q-82 -49 -122 -97.5t-40 -105.5q0 -39 23 -60.5t61 -21.5q50 0 98 23v-148q-70 -26 -178 -26 q-102 0 -165.5 47.5t-63.5 140.5q0 78 40.5 142t108.5 106v96q-63 -62 -144 -94.5t-198 -32.5q-176 0 -288.5 93.5t-112.5 250.5zM344 313q0 -77 52.5 -116t150.5 -39q85 0 155 33.5t107 93.5v108q-115 80 -258 80q-207 0 -207 -160z" />
<glyph unicode="&#x106;" horiz-adv-x="1441" d="M82 715q0 225 97 395.5t270.5 261t398.5 90.5q297 0 495 -141v-248q-179 152 -473 152q-238 0 -382 -138.5t-144 -371.5q0 -234 145 -372t381 -138q151 0 270 38t220 122v-248q-189 -148 -512 -148q-225 0 -398.5 90.5t-270.5 260.5t-97 395zM711 1520l141 356h272 l-176 -356h-237z" />
<glyph unicode="&#x107;" horiz-adv-x="1122" d="M82 489q0 246 158.5 385.5t421.5 139.5q227 0 366 -90v-207q-131 94 -340 94q-158 0 -251 -79.5t-93 -242.5q0 -162 92.5 -239.5t247.5 -77.5q208 0 356 98v-204q-148 -97 -383 -97q-262 0 -418.5 137t-156.5 383zM537 1096l141 356h272l-176 -356h-237z" />
<glyph unicode="&#x108;" horiz-adv-x="1441" d="M82 715q0 225 97 395.5t270.5 261t398.5 90.5q297 0 495 -141v-248q-179 152 -473 152q-238 0 -382 -138.5t-144 -371.5q0 -234 145 -372t381 -138q151 0 270 38t220 122v-248q-189 -148 -512 -148q-225 0 -398.5 90.5t-270.5 260.5t-97 395zM416 1520l301 350h229 l299 -350h-258l-156 202l-155 -202h-260z" />
<glyph unicode="&#x109;" horiz-adv-x="1122" d="M82 489q0 246 158.5 385.5t421.5 139.5q227 0 366 -90v-207q-131 94 -340 94q-158 0 -251 -79.5t-93 -242.5q0 -162 92.5 -239.5t247.5 -77.5q208 0 356 98v-204q-148 -97 -383 -97q-262 0 -418.5 137t-156.5 383zM209 1096l301 350h229l299 -350h-258l-155 202 l-156 -202h-260z" />
<glyph unicode="&#x10a;" horiz-adv-x="1441" d="M82 715q0 225 97 395.5t270.5 261t398.5 90.5q297 0 495 -141v-248q-179 152 -473 152q-238 0 -382 -138.5t-144 -371.5q0 -234 145 -372t381 -138q151 0 270 38t220 122v-248q-189 -148 -512 -148q-225 0 -398.5 90.5t-270.5 260.5t-97 395zM686 1675q0 57 40.5 97 t96.5 40t95.5 -40t39.5 -97t-39.5 -96t-95.5 -39t-96.5 39.5t-40.5 95.5z" />
<glyph unicode="&#x10b;" horiz-adv-x="1122" d="M82 489q0 246 158.5 385.5t421.5 139.5q227 0 366 -90v-207q-131 94 -340 94q-158 0 -251 -79.5t-93 -242.5q0 -162 92.5 -239.5t247.5 -77.5q208 0 356 98v-204q-148 -97 -383 -97q-262 0 -418.5 137t-156.5 383zM498 1231q0 57 40.5 97t96.5 40t95.5 -40t39.5 -97 t-39.5 -96t-95.5 -39t-96.5 39.5t-40.5 95.5z" />
<glyph unicode="&#x10c;" horiz-adv-x="1441" d="M82 715q0 225 97 395.5t270.5 261t398.5 90.5q297 0 495 -141v-248q-179 152 -473 152q-238 0 -382 -138.5t-144 -371.5q0 -234 145 -372t381 -138q151 0 270 38t220 122v-248q-189 -148 -512 -148q-225 0 -398.5 90.5t-270.5 260.5t-97 395zM416 1870h260l155 -205 l156 205h258l-299 -350h-229z" />
<glyph unicode="&#x10d;" horiz-adv-x="1122" d="M82 489q0 246 158.5 385.5t421.5 139.5q227 0 366 -90v-207q-131 94 -340 94q-158 0 -251 -79.5t-93 -242.5q0 -162 92.5 -239.5t247.5 -77.5q208 0 356 98v-204q-148 -97 -383 -97q-262 0 -418.5 137t-156.5 383zM195 1446h260l155 -205l156 205h258l-299 -350h-229z " />
<glyph unicode="&#x10e;" horiz-adv-x="1445" d="M123 0v1432h479q352 0 557 -191t205 -518q0 -357 -207 -540t-577 -183h-457zM262 1870h260l156 -205l156 205h258l-299 -350h-230zM383 215h201q250 0 384 134.5t134 373.5q0 221 -132.5 357.5t-359.5 136.5h-227v-1002z" />
<glyph unicode="&#x10f;" horiz-adv-x="1689" d="M82 471q0 233 144.5 377.5t373.5 144.5q120 0 224.5 -47t158.5 -131v678h258v-1513h-250v157q-62 -89 -164.5 -138.5t-226.5 -49.5q-229 0 -373.5 143t-144.5 379zM348 469q0 -146 89.5 -231.5t226.5 -85.5q114 0 199 54.5t120 153.5v220q-33 98 -120 154.5t-199 56.5 q-137 0 -226.5 -87t-89.5 -235zM1313 1194l160 381h217l-187 -381h-190z" />
<glyph unicode="&#x110;" horiz-adv-x="1484" d="M41 616v197h121v619h479q352 0 557 -191t205 -518q0 -357 -207.5 -540t-577.5 -183h-456v616h-121zM422 215h201q250 0 384 134.5t134 373.5q0 221 -132.5 357.5t-359.5 136.5h-227v-404h352v-197h-352v-401z" />
<glyph unicode="&#x111;" horiz-adv-x="1382" d="M82 489q0 233 145 379t373 146q242 0 381 -127v260h-373v194h373v172h258v-172h102v-194h-102v-1147h-250v115q-85 -78 -175 -112t-214 -34q-228 0 -373 143t-145 377zM344 489q0 -141 90.5 -229t229.5 -88q110 0 196 59.5t121 159.5v199q-32 100 -119.5 160.5 t-197.5 60.5q-139 0 -229.5 -90t-90.5 -232z" />
<glyph unicode="&#x112;" horiz-adv-x="1173" d="M123 0v1432h969v-215h-709v-394h526v-215h-526v-393h709v-215h-969zM291 1540v172h661v-172h-661z" />
<glyph unicode="&#x113;" horiz-adv-x="1247" d="M82 489q0 241 141.5 383t403.5 142q130 0 233 -38.5t169 -107t101 -159.5t35 -199v-119h-837q25 -219 381 -219q206 0 364 61v-198q-69 -28 -179 -47t-218 -19q-275 0 -434.5 137t-159.5 383zM309 1116v172h662v-172h-662zM328 567h594q-4 118 -82.5 181t-216.5 63 q-134 0 -212 -65.5t-83 -178.5z" />
<glyph unicode="&#x114;" horiz-adv-x="1173" d="M123 0v1432h969v-215h-709v-394h526v-215h-526v-393h709v-215h-969zM305 1829h195q0 -67 35 -102t100 -35t100 35t35 102h195q0 -140 -88.5 -224.5t-241.5 -84.5t-241.5 84.5t-88.5 224.5z" />
<glyph unicode="&#x115;" horiz-adv-x="1247" d="M82 489q0 241 141.5 383t403.5 142q130 0 233 -38.5t169 -107t101 -159.5t35 -199v-119h-837q25 -219 381 -219q206 0 364 61v-198q-69 -28 -179 -47t-218 -19q-275 0 -434.5 137t-159.5 383zM307 1405h195q0 -67 35 -102t100 -35t100 35t35 102h195q0 -140 -88.5 -224.5 t-241.5 -84.5t-241.5 84.5t-88.5 224.5zM328 567h594q-4 118 -82.5 181t-216.5 63q-134 0 -212 -65.5t-83 -178.5z" />
<glyph unicode="&#x116;" horiz-adv-x="1173" d="M123 0v1432h969v-215h-709v-394h526v-215h-526v-393h709v-215h-969zM494 1675q0 57 40.5 97t96.5 40t95.5 -40t39.5 -97t-39.5 -96t-95.5 -39t-96.5 39.5t-40.5 95.5z" />
<glyph unicode="&#x117;" horiz-adv-x="1247" d="M82 489q0 241 141.5 383t403.5 142q130 0 233 -38.5t169 -107t101 -159.5t35 -199v-119h-837q25 -219 381 -219q206 0 364 61v-198q-69 -28 -179 -47t-218 -19q-275 0 -434.5 137t-159.5 383zM328 567h594q-4 118 -82.5 181t-216.5 63q-134 0 -212 -65.5t-83 -178.5z M494 1251q0 57 40.5 97.5t96.5 40.5t95.5 -40.5t39.5 -97.5t-39.5 -96t-95.5 -39t-96.5 39.5t-40.5 95.5z" />
<glyph unicode="&#x118;" horiz-adv-x="1173" d="M123 0v1432h969v-215h-709v-394h526v-215h-526v-393h709v-215h-21q-82 -49 -122 -97.5t-40 -105.5q0 -39 23 -60.5t61 -21.5q51 0 99 23v-148q-70 -26 -179 -26q-102 0 -165.5 47.5t-63.5 140.5q0 78 41 142t109 106h-711z" />
<glyph unicode="&#x119;" horiz-adv-x="1247" d="M82 489q0 241 141.5 383t403.5 142q130 0 233 -38.5t169 -107t101 -159.5t35 -199v-119h-837q25 -219 381 -219q206 0 364 61v-198q-61 -26 -168 -45q-145 -89 -145 -193q0 -39 23 -60.5t61 -21.5q50 0 98 23v-148q-70 -26 -178 -26q-102 0 -165.5 47.5t-63.5 140.5 q0 130 108 217q-261 9 -411 145t-150 375zM328 567h594q-4 118 -82.5 181t-216.5 63q-134 0 -212 -65.5t-83 -178.5z" />
<glyph unicode="&#x11a;" horiz-adv-x="1173" d="M123 0v1432h969v-215h-709v-394h526v-215h-526v-393h709v-215h-969zM229 1870h260l156 -205l156 205h258l-299 -350h-230z" />
<glyph unicode="&#x11b;" horiz-adv-x="1247" d="M82 489q0 241 141.5 383t403.5 142q130 0 233 -38.5t169 -107t101 -159.5t35 -199v-119h-837q25 -219 381 -219q206 0 364 61v-198q-69 -28 -179 -47t-218 -19q-275 0 -434.5 137t-159.5 383zM221 1446h260l156 -205l156 205h258l-299 -350h-230zM328 567h594 q-4 118 -82.5 181t-216.5 63q-134 0 -212 -65.5t-83 -178.5z" />
<glyph unicode="&#x11c;" horiz-adv-x="1460" d="M82 715q0 225 97 395.5t270.5 261t398.5 90.5q303 0 493 -137v-248q-175 148 -471 148q-226 0 -376 -140t-150 -370q0 -233 143.5 -372.5t370.5 -139.5q157 0 260 53v322h-241v206h501v-667q-192 -148 -530 -148q-225 0 -398.5 90.5t-270.5 260.5t-97 395zM424 1520 l301 350h229l299 -350h-258l-155 202l-156 -202h-260z" />
<glyph unicode="&#x11d;" horiz-adv-x="1361" d="M82 494q0 234 145 377t373 143q124 0 214 -34t175 -112v115h250v-924q0 -254 -146.5 -392t-449.5 -138q-98 0 -196 18t-164 50v204q160 -69 360 -69q181 0 259.5 75t78.5 226v63q-139 -127 -373 -127q-229 0 -377.5 146.5t-148.5 378.5zM291 1096l301 350h229l299 -350 h-258l-155 202l-156 -202h-260zM344 494q0 -142 90.5 -232t229.5 -90q110 0 197.5 60.5t119.5 160.5v199q-35 100 -121 159.5t-196 59.5q-139 0 -229.5 -88t-90.5 -229z" />
<glyph unicode="&#x11e;" horiz-adv-x="1460" d="M82 715q0 225 97 395.5t270.5 261t398.5 90.5q303 0 493 -137v-248q-175 148 -471 148q-226 0 -376 -140t-150 -370q0 -233 143.5 -372.5t370.5 -139.5q157 0 260 53v322h-241v206h501v-667q-192 -148 -530 -148q-225 0 -398.5 90.5t-270.5 260.5t-97 395zM526 1829h195 q0 -67 35 -102t100 -35t100 35t35 102h195q0 -140 -88.5 -224.5t-241.5 -84.5t-241.5 84.5t-88.5 224.5z" />
<glyph unicode="&#x11f;" horiz-adv-x="1361" d="M82 494q0 234 145 377t373 143q124 0 214 -34t175 -112v115h250v-924q0 -254 -146.5 -392t-449.5 -138q-98 0 -196 18t-164 50v204q160 -69 360 -69q181 0 259.5 75t78.5 226v63q-139 -127 -373 -127q-229 0 -377.5 146.5t-148.5 378.5zM344 494q0 -142 90.5 -232 t229.5 -90q110 0 197.5 60.5t119.5 160.5v199q-35 100 -121 159.5t-196 59.5q-139 0 -229.5 -88t-90.5 -229zM369 1405h194q0 -67 35 -102t100 -35t100.5 35t35.5 102h194q0 -140 -88.5 -224.5t-241.5 -84.5t-241 84.5t-88 224.5z" />
<glyph unicode="&#x120;" horiz-adv-x="1460" d="M82 715q0 225 97 395.5t270.5 261t398.5 90.5q303 0 493 -137v-248q-175 148 -471 148q-226 0 -376 -140t-150 -370q0 -233 143.5 -372.5t370.5 -139.5q157 0 260 53v322h-241v206h501v-667q-192 -148 -530 -148q-225 0 -398.5 90.5t-270.5 260.5t-97 395zM713 1675 q0 57 40.5 97t96.5 40t95.5 -40t39.5 -97t-39.5 -96t-95.5 -39t-96.5 39.5t-40.5 95.5z" />
<glyph unicode="&#x121;" horiz-adv-x="1361" d="M82 494q0 234 145 377t373 143q124 0 214 -34t175 -112v115h250v-924q0 -254 -146.5 -392t-449.5 -138q-98 0 -196 18t-164 50v204q160 -69 360 -69q181 0 259.5 75t78.5 226v63q-139 -127 -373 -127q-229 0 -377.5 146.5t-148.5 378.5zM344 494q0 -142 90.5 -232 t229.5 -90q110 0 197.5 60.5t119.5 160.5v199q-35 100 -121 159.5t-196 59.5q-139 0 -229.5 -88t-90.5 -229zM569 1251q0 57 41 97.5t97 40.5t95.5 -40.5t39.5 -97.5t-39.5 -96t-95.5 -39t-97 39.5t-41 95.5z" />
<glyph unicode="&#x122;" horiz-adv-x="1460" d="M82 715q0 225 97 395.5t270.5 261t398.5 90.5q303 0 493 -137v-248q-175 148 -471 148q-226 0 -376 -140t-150 -370q0 -233 143.5 -372.5t370.5 -139.5q157 0 260 53v322h-241v206h501v-667q-192 -148 -530 -148q-225 0 -398.5 90.5t-270.5 260.5t-97 395zM588 -530 l168 415h268l-201 -415h-235z" />
<glyph unicode="&#x123;" horiz-adv-x="1361" d="M82 494q0 234 145 377t373 143q124 0 214 -34t175 -112v115h250v-924q0 -254 -146.5 -392t-449.5 -138q-98 0 -196 18t-164 50v204q160 -69 360 -69q181 0 259.5 75t78.5 226v63q-139 -127 -373 -127q-229 0 -377.5 146.5t-148.5 378.5zM344 494q0 -142 90.5 -232 t229.5 -90q110 0 197.5 60.5t119.5 160.5v199q-35 100 -121 159.5t-196 59.5q-139 0 -229.5 -88t-90.5 -229zM590 1096l201 415h235l-168 -415h-268z" />
<glyph unicode="&#x124;" horiz-adv-x="1452" d="M123 0v1432h260v-594h688v594h258v-1432h-258v623h-688v-623h-260zM311 1520l301 350h230l299 -350h-258l-156 202l-156 -202h-260z" />
<glyph unicode="&#x125;" horiz-adv-x="1249" d="M123 0v1513h258v-655q138 156 360 156q198 0 297 -107.5t99 -285.5v-621h-258v596q0 215 -201 215q-87 0 -165.5 -42t-131.5 -126v-643h-258zM131 1571l301 350h230l299 -350h-259l-155 203l-156 -203h-260z" />
<glyph unicode="&#x126;" horiz-adv-x="1486" d="M41 1022v215h92v195h260v-195h688v195h258v-195h107v-215h-107v-1022h-258v623h-688v-623h-260v1022h-92zM393 838h688v184h-688v-184z" />
<glyph unicode="&#x127;" horiz-adv-x="1259" d="M41 1120v187h92v206h258v-206h311v-187h-311v-266q139 160 363 160q202 0 297.5 -102.5t95.5 -280.5v-631h-258v596q0 215 -209 215q-183 0 -289 -168v-643h-258v1120h-92z" />
<glyph unicode="&#x128;" horiz-adv-x="518" d="M-139 1520v211q66 88 205 88q70 0 195.5 -51.5t191.5 -51.5q127 0 204 105v-211q-64 -86 -204 -86q-63 0 -132.5 25.5t-135 51t-119.5 25.5q-124 0 -205 -106zM129 0v1432h260v-1432h-260z" />
<glyph unicode="&#x129;" horiz-adv-x="507" d="M-143 1092v211q66 88 204 88q70 0 196 -51.5t192 -51.5q127 0 204 105v-211q-64 -86 -204 -86q-63 0 -132.5 25.5t-135.5 51t-120 25.5q-123 0 -204 -106zM123 0v983h262v-983h-262z" />
<glyph unicode="&#x12a;" horiz-adv-x="518" d="M-82 1540v172h680v-172h-680zM129 0v1432h260v-1432h-260z" />
<glyph unicode="&#x12b;" horiz-adv-x="507" d="M-86 1116v172h680v-172h-680zM123 0v983h262v-983h-262z" />
<glyph unicode="&#x12c;" horiz-adv-x="518" d="M-72 1829h195q0 -67 35 -102t100 -35t100 35t35 102h195q0 -140 -88.5 -224.5t-241.5 -84.5t-241.5 84.5t-88.5 224.5zM129 0v1432h260v-1432h-260z" />
<glyph unicode="&#x12d;" horiz-adv-x="507" d="M-76 1405h195q0 -67 35 -102t100 -35t100 35t35 102h195q0 -140 -88.5 -224.5t-241.5 -84.5t-241.5 84.5t-88.5 224.5zM123 0v983h262v-983h-262z" />
<glyph unicode="&#x12e;" horiz-adv-x="518" d="M-6 -248q0 78 40.5 142t108.5 106h-14v1432h260v-1432h-8q-82 -49 -122 -97.5t-40 -105.5q0 -39 23 -60.5t61 -21.5q50 0 98 23v-148q-70 -26 -178 -26q-102 0 -165.5 47.5t-63.5 140.5z" />
<glyph unicode="&#x12f;" horiz-adv-x="538" d="M2 -248q0 78 41 142t109 106h-15v983h262v-983h-10q-82 -49 -122 -97.5t-40 -105.5q0 -39 23 -60.5t61 -21.5q51 0 99 23v-148q-70 -26 -179 -26q-102 0 -165.5 47.5t-63.5 140.5zM123 1298q0 62 42 104t103 42q62 0 105 -42.5t43 -103.5t-43 -102t-105 -41t-103.5 41 t-41.5 102z" />
<glyph unicode="&#x130;" horiz-adv-x="518" d="M123 1675q0 57 40.5 97t96.5 40t95.5 -40t39.5 -97t-39.5 -96t-95.5 -39t-96.5 39.5t-40.5 95.5zM129 0v1432h260v-1432h-260z" />
<glyph unicode="&#x131;" horiz-adv-x="507" d="M123 0v983h262v-983h-262z" />
<glyph unicode="&#x132;" horiz-adv-x="1296" d="M129 0v1432h260v-1432h-260zM551 8v217q67 -28 166 -28q201 0 201 190v1045h260v-1059q0 -189 -105 -296.5t-293 -107.5q-61 0 -127.5 11t-101.5 28z" />
<glyph unicode="&#x133;" horiz-adv-x="970" d="M123 1298q0 62 42 104t103 42q62 0 105 -42.5t43 -103.5t-43 -102t-105 -41t-103.5 41t-41.5 102zM137 0v983h262v-983h-262zM281 -238q55 -24 127 -24q85 0 125 42t40 132v1071h258v-1098q0 -179 -102 -268.5t-276 -89.5q-96 0 -172 27v208zM557 1298q0 60 42 102 t103 42q60 0 103 -42t43 -102q0 -61 -42.5 -102t-103.5 -41q-62 0 -103.5 41t-41.5 102z" />
<glyph unicode="&#x134;" horiz-adv-x="786" d="M41 8v217q67 -28 166 -28q201 0 201 190v1045h260v-1059q0 -189 -105 -296.5t-293 -107.5q-61 0 -127.5 11t-101.5 28zM125 1520l301 350h229l299 -350h-258l-155 202l-156 -202h-260z" />
<glyph unicode="&#x135;" horiz-adv-x="509" d="M-164 -238q56 -24 127 -24q85 0 125.5 42t40.5 132v1071h258v-1098q0 -179 -102.5 -268.5t-276.5 -89.5q-96 0 -172 27v208zM-158 1096l301 350h230l299 -350h-258l-156 202l-156 -202h-260z" />
<glyph unicode="&#x136;" horiz-adv-x="1404" d="M123 0v1432h260v-650l588 650h311l-635 -701l676 -731h-311l-629 680v-680h-260zM375 -530l168 415h268l-201 -415h-235z" />
<glyph unicode="&#x137;" horiz-adv-x="1206" d="M123 0v1513h258v-962l391 432h303l-438 -481l487 -502h-303l-440 455v-455h-258zM281 -530l168 415h268l-201 -415h-235z" />
<glyph unicode="&#x138;" horiz-adv-x="1206" d="M123 0v983h248v-467l413 467h291l-438 -491l487 -492h-290l-463 469v-469h-248z" />
<glyph unicode="&#x139;" horiz-adv-x="1112" d="M123 0v1432h260v-1217h688v-215h-948zM135 1520l141 356h273l-176 -356h-238z" />
<glyph unicode="&#x13a;" horiz-adv-x="503" d="M123 0v1513h258v-1513h-258zM135 1567l141 356h273l-176 -356h-238z" />
<glyph unicode="&#x13b;" horiz-adv-x="1112" d="M123 0v1432h260v-1217h688v-215h-948zM313 -530l168 415h269l-201 -415h-236z" />
<glyph unicode="&#x13c;" horiz-adv-x="555" d="M6 -530l168 415h268l-200 -415h-236zM178 0v1513h258v-1513h-258z" />
<glyph unicode="&#x13d;" horiz-adv-x="1112" d="M123 0v1432h260v-1217h688v-215h-948zM584 1032l168 416h268l-201 -416h-235z" />
<glyph unicode="&#x13e;" horiz-adv-x="968" d="M123 0v1513h258v-1513h-258zM471 1126l168 416h268l-200 -416h-236z" />
<glyph unicode="&#x13f;" horiz-adv-x="1112" d="M123 0v1432h260v-1217h688v-215h-948zM639 793q0 57 40.5 97t96.5 40t95.5 -40t39.5 -97t-39.5 -96.5t-95.5 -39.5t-96.5 39.5t-40.5 96.5z" />
<glyph unicode="&#x140;" horiz-adv-x="784" d="M123 0v1513h258v-1513h-258zM492 784q0 57 40.5 97.5t96.5 40.5t95.5 -40.5t39.5 -97.5t-39.5 -96t-95.5 -39t-96.5 39.5t-40.5 95.5z" />
<glyph unicode="&#x141;" horiz-adv-x="1202" d="M20 494v247l193 86v605h260v-490l318 143v-247l-318 -144v-479h688v-215h-948v580z" />
<glyph unicode="&#x142;" horiz-adv-x="811" d="M20 463v248l236 104v698h258v-583l277 125v-248l-277 -125v-682h-258v567z" />
<glyph unicode="&#x143;" horiz-adv-x="1421" d="M123 0v1432h246l669 -998v998h260v-1432h-245l-670 999v-999h-260zM569 1520l142 356h272l-176 -356h-238z" />
<glyph unicode="&#x144;" horiz-adv-x="1249" d="M123 0v983h250v-133q69 84 165.5 124t202.5 40q198 0 297 -107.5t99 -285.5v-621h-258v596q0 215 -201 215q-87 0 -165.5 -42t-131.5 -126v-643h-258zM451 1096l141 356h272l-176 -356h-237z" />
<glyph unicode="&#x145;" horiz-adv-x="1421" d="M123 0v1432h246l669 -998v998h260v-1432h-245l-670 999v-999h-260zM424 -530l168 415h268l-201 -415h-235z" />
<glyph unicode="&#x146;" horiz-adv-x="1249" d="M123 0v983h250v-133q69 84 165.5 124t202.5 40q198 0 297 -107.5t99 -285.5v-621h-258v596q0 215 -201 215q-87 0 -165.5 -42t-131.5 -126v-643h-258zM352 -530l168 415h268l-200 -415h-236z" />
<glyph unicode="&#x147;" horiz-adv-x="1421" d="M123 0v1432h246l669 -998v998h260v-1432h-245l-670 999v-999h-260zM293 1870h260l156 -205l155 205h258l-299 -350h-229z" />
<glyph unicode="&#x148;" horiz-adv-x="1249" d="M123 0v983h250v-133q69 84 165.5 124t202.5 40q198 0 297 -107.5t99 -285.5v-621h-258v596q0 215 -201 215q-87 0 -165.5 -42t-131.5 -126v-643h-258zM231 1446h261l155 -205l156 205h258l-299 -350h-230z" />
<glyph unicode="&#x149;" horiz-adv-x="1499" d="M41 1032l168 416h268l-201 -416h-235zM373 0v983h250v-133q69 84 165.5 124t202.5 40q198 0 296.5 -107.5t98.5 -285.5v-621h-258v596q0 215 -200 215q-87 0 -165.5 -42t-131.5 -126v-643h-258z" />
<glyph unicode="&#x14a;" horiz-adv-x="1421" d="M123 0v1432h246l669 -998v998h260v-1432v-113q0 -179 -102 -268.5t-276 -89.5q-96 0 -172 27v208q56 -24 126 -24q85 0 125.5 42t40.5 132v104l-657 981v-999h-260z" />
<glyph unicode="&#x14b;" horiz-adv-x="1249" d="M123 0v983h250v-133q69 84 165.5 124t202.5 40q198 0 297 -107.5t99 -285.5v-734q0 -179 -102.5 -268.5t-276.5 -89.5q-96 0 -172 27v208q56 -24 127 -24q85 0 125.5 42t40.5 132v682q0 215 -201 215q-87 0 -165.5 -42t-131.5 -126v-643h-258z" />
<glyph unicode="&#x14c;" horiz-adv-x="1681" d="M82 715q0 165 58.5 305.5t160 237t241.5 150.5t300 54q213 0 385 -92t272 -263.5t100 -391.5q0 -219 -100 -390t-272 -263.5t-385 -92.5q-160 0 -300 54.5t-241.5 151t-160 236.5t-58.5 304zM344 715q0 -153 67.5 -270.5t180 -178.5t250.5 -61q137 0 248.5 61t179 178.5 t67.5 270.5q0 152 -66.5 269t-178.5 179t-250 62q-140 0 -252.5 -62t-179 -179t-66.5 -269zM510 1540v172h661v-172h-661z" />
<glyph unicode="&#x14d;" horiz-adv-x="1314" d="M82 492q0 238 157 380t418 142q260 0 418 -142.5t158 -379.5q0 -244 -157 -383.5t-419 -139.5t-418.5 139.5t-156.5 383.5zM328 1116v172h661v-172h-661zM348 492q0 -141 84 -230.5t225 -89.5t225.5 89.5t84.5 230.5q0 150 -83.5 234.5t-226.5 84.5t-226 -84.5 t-83 -234.5z" />
<glyph unicode="&#x14e;" horiz-adv-x="1681" d="M82 715q0 165 58.5 305.5t160 237t241.5 150.5t300 54q213 0 385 -92t272 -263.5t100 -391.5q0 -219 -100 -390t-272 -263.5t-385 -92.5q-160 0 -300 54.5t-241.5 151t-160 236.5t-58.5 304zM344 715q0 -153 67.5 -270.5t180 -178.5t250.5 -61q137 0 248.5 61t179 178.5 t67.5 270.5q0 152 -66.5 269t-178.5 179t-250 62q-140 0 -252.5 -62t-179 -179t-66.5 -269zM510 1829h195q0 -67 35 -102t100 -35t100 35t35 102h194q0 -140 -88 -224.5t-241 -84.5t-241.5 84.5t-88.5 224.5z" />
<glyph unicode="&#x14f;" horiz-adv-x="1314" d="M82 492q0 238 157 380t418 142q260 0 418 -142.5t158 -379.5q0 -244 -157 -383.5t-419 -139.5t-418.5 139.5t-156.5 383.5zM328 1405h194q0 -67 35 -102t100 -35t100.5 35t35.5 102h194q0 -140 -88.5 -224.5t-241.5 -84.5t-241 84.5t-88 224.5zM348 492q0 -141 84 -230.5 t225 -89.5t225.5 89.5t84.5 230.5q0 150 -83.5 234.5t-226.5 84.5t-226 -84.5t-83 -234.5z" />
<glyph unicode="&#x150;" horiz-adv-x="1681" d="M82 715q0 165 58.5 305.5t160 237t241.5 150.5t300 54q213 0 385 -92t272 -263.5t100 -391.5q0 -219 -100 -390t-272 -263.5t-385 -92.5q-160 0 -300 54.5t-241.5 151t-160 236.5t-58.5 304zM344 715q0 -153 67.5 -270.5t180 -178.5t250.5 -61q137 0 248.5 61t179 178.5 t67.5 270.5q0 152 -66.5 269t-178.5 179t-250 62q-140 0 -252.5 -62t-179 -179t-66.5 -269zM481 1520l142 356h251l-176 -356h-217zM938 1520l143 356h250l-176 -356h-217z" />
<glyph unicode="&#x151;" horiz-adv-x="1353" d="M121 492q0 238 157 380t418 142q260 0 418 -142.5t158 -379.5q0 -244 -157 -383.5t-419 -139.5t-418.5 139.5t-156.5 383.5zM338 1096l141 356h252l-176 -356h-217zM387 492q0 -141 84 -230.5t225 -89.5t225.5 89.5t84.5 230.5q0 150 -83.5 234.5t-226.5 84.5t-226 -84.5 t-83 -234.5zM795 1096l143 356h250l-176 -356h-217z" />
<glyph unicode="&#x152;" horiz-adv-x="1830" d="M82 715q0 165 59.5 301t164 226.5t248.5 140t312 49.5h883v-215h-614v-394h432v-215h-432v-393h614v-215h-883q-168 0 -312 49.5t-248.5 140t-164 226t-59.5 299.5zM344 715q0 -230 140.5 -365t363.5 -135h26v1002h-26q-223 0 -363.5 -136.5t-140.5 -365.5z" />
<glyph unicode="&#x153;" horiz-adv-x="2107" d="M82 492q0 238 157 380t418 142q263 0 422 -146q146 146 408 146q130 0 233 -38.5t169 -107t101 -159.5t35 -199v-119h-800q-7 -43 -17 -72q72 -147 361 -147q206 0 364 61v-198q-69 -28 -179 -47t-218 -19q-290 0 -449 150q-156 -150 -430 -150q-262 0 -418.5 139.5 t-156.5 383.5zM348 492q0 -141 84 -230.5t225 -89.5q111 0 188 56t105 153q-8 47 -8 108q0 55 10 117q-29 99 -105 152t-190 53q-143 0 -226 -84.5t-83 -234.5zM1208 662q18 -69 21 -95h553q-4 118 -82.5 181t-216.5 63q-103 0 -174.5 -39t-100.5 -110z" />
<glyph unicode="&#x154;" horiz-adv-x="1298" d="M123 0v1432h598q237 0 366.5 -117t129.5 -338q0 -158 -78 -269t-221 -157l290 -551h-266l-276 524h-283v-524h-260zM383 739h291q128 0 205 60t77 178q0 240 -282 240h-291v-478zM449 1520l141 356h272l-176 -356h-237z" />
<glyph unicode="&#x155;" horiz-adv-x="833" d="M123 0v983h250v-158q60 79 169.5 118.5t250.5 39.5v-197q-150 0 -260 -46t-152 -144v-596h-258zM135 1096l141 356h273l-176 -356h-238z" />
<glyph unicode="&#x156;" horiz-adv-x="1298" d="M123 0v1432h598q237 0 366.5 -117t129.5 -338q0 -158 -78 -269t-221 -157l290 -551h-266l-276 524h-283v-524h-260zM336 -530l168 415h268l-201 -415h-235zM383 739h291q128 0 205 60t77 178q0 240 -282 240h-291v-478z" />
<glyph unicode="&#x157;" horiz-adv-x="833" d="M-53 -530l168 415h268l-201 -415h-235zM123 0v983h250v-158q60 79 169.5 118.5t250.5 39.5v-197q-150 0 -260 -46t-152 -144v-596h-258z" />
<glyph unicode="&#x158;" horiz-adv-x="1298" d="M123 0v1432h598q237 0 366.5 -117t129.5 -338q0 -158 -78 -269t-221 -157l290 -551h-266l-276 524h-283v-524h-260zM139 1870h260l156 -205l156 205h258l-299 -350h-230zM383 739h291q128 0 205 60t77 178q0 240 -282 240h-291v-478z" />
<glyph unicode="&#x159;" horiz-adv-x="1003" d="M39 1446h260l156 -205l155 205h258l-299 -350h-229zM293 0v983h250v-158q60 79 169.5 118.5t250.5 39.5v-197q-150 0 -260 -46t-152 -144v-596h-258z" />
<glyph unicode="&#x15a;" horiz-adv-x="1161" d="M82 55v224q205 -99 436 -99q137 0 209 51.5t72 141.5q0 28 -7 51.5t-17.5 42t-34 37t-43.5 32t-61 32t-72 31.5t-89 36q-201 81 -291 181.5t-90 250.5q0 177 139.5 286t366.5 109q230 0 406 -80v-217q-180 86 -361 86q-131 0 -202.5 -47.5t-71.5 -136.5q0 -47 13 -78.5 t61 -63.5t80 -47t131 -56q6 -3 10 -4.5t9.5 -4t10.5 -4.5q107 -45 175.5 -85t120.5 -91.5t74.5 -114.5t22.5 -147q0 -191 -136.5 -296.5t-405.5 -105.5q-127 0 -251.5 23.5t-203.5 62.5zM451 1520l141 356h272l-176 -356h-237z" />
<glyph unicode="&#x15b;" horiz-adv-x="1021" d="M82 717q0 148 116.5 222.5t315.5 74.5q102 0 203.5 -20t159.5 -54v-211q-61 37 -150 59.5t-180 22.5q-100 0 -151.5 -19.5t-51.5 -74.5q0 -49 50 -74t186 -61q6 -1 9.5 -2t9 -2.5t9.5 -2.5q188 -50 260 -120.5t72 -196.5q0 -132 -111 -210.5t-323 -78.5q-107 0 -227.5 25 t-188.5 67v220q81 -48 191 -78.5t208 -30.5t143.5 17.5t45.5 64.5q0 53 -52 81.5t-208 70.5q-92 27 -149.5 51.5t-102.5 60t-64.5 84t-19.5 115.5zM336 1096l141 356h273l-177 -356h-237z" />
<glyph unicode="&#x15c;" horiz-adv-x="1161" d="M82 55v224q205 -99 436 -99q137 0 209 51.5t72 141.5q0 28 -7 51.5t-17.5 42t-34 37t-43.5 32t-61 32t-72 31.5t-89 36q-201 81 -291 181.5t-90 250.5q0 177 139.5 286t366.5 109q230 0 406 -80v-217q-180 86 -361 86q-131 0 -202.5 -47.5t-71.5 -136.5q0 -47 13 -78.5 t61 -63.5t80 -47t131 -56q6 -3 10 -4.5t9.5 -4t10.5 -4.5q107 -45 175.5 -85t120.5 -91.5t74.5 -114.5t22.5 -147q0 -191 -136.5 -296.5t-405.5 -105.5q-127 0 -251.5 23.5t-203.5 62.5zM152 1520l301 350h229l299 -350h-258l-156 202l-155 -202h-260z" />
<glyph unicode="&#x15d;" horiz-adv-x="1021" d="M82 717q0 148 116.5 222.5t315.5 74.5q102 0 203.5 -20t159.5 -54v-211q-61 37 -150 59.5t-180 22.5q-100 0 -151.5 -19.5t-51.5 -74.5q0 -49 50 -74t186 -61q6 -1 9.5 -2t9 -2.5t9.5 -2.5q188 -50 260 -120.5t72 -196.5q0 -132 -111 -210.5t-323 -78.5q-107 0 -227.5 25 t-188.5 67v220q81 -48 191 -78.5t208 -30.5t143.5 17.5t45.5 64.5q0 53 -52 81.5t-208 70.5q-92 27 -149.5 51.5t-102.5 60t-64.5 84t-19.5 115.5zM98 1096l301 350h230l299 -350h-258l-156 202l-156 -202h-260z" />
<glyph unicode="&#x15e;" horiz-adv-x="1161" d="M82 55v224q205 -99 436 -99q137 0 209 51.5t72 141.5q0 28 -7 51.5t-17.5 42t-34 37t-43.5 32t-61 32t-72 31.5t-89 36q-201 81 -291 181.5t-90 250.5q0 177 139.5 286t366.5 109q230 0 406 -80v-217q-180 86 -361 86q-131 0 -202.5 -47.5t-71.5 -136.5q0 -47 13 -78.5 t61 -63.5t80 -47t131 -56q6 -3 10 -4.5t9.5 -4t10.5 -4.5q107 -45 175.5 -85t120.5 -91.5t74.5 -114.5t22.5 -147q0 -169 -108.5 -272t-323.5 -124l-31 -81q88 -10 136.5 -64t48.5 -137q0 -95 -79.5 -148t-215.5 -53q-121 0 -187 25l3 141q52 -25 118 -25q121 0 121 84 q0 109 -203 109l58 149q-206 16 -334 80z" />
<glyph unicode="&#x15f;" horiz-adv-x="1021" d="M82 717q0 148 116.5 222.5t315.5 74.5q102 0 203.5 -20t159.5 -54v-211q-61 37 -150 59.5t-180 22.5q-100 0 -151.5 -19.5t-51.5 -74.5q0 -49 50 -74t186 -61q6 -1 9.5 -2t9 -2.5t9.5 -2.5q188 -50 260 -120.5t72 -196.5q0 -119 -91.5 -195.5t-266.5 -91.5l-31 -77 q88 -10 136 -64t48 -137q0 -95 -79.5 -148t-215.5 -53q-120 0 -186 25l2 141q52 -25 119 -25q121 0 121 84q0 109 -203 109l59 156q-175 25 -262 79v220q81 -48 191 -78.5t208 -30.5t143.5 17.5t45.5 64.5q0 53 -52 81.5t-208 70.5q-92 27 -149.5 51.5t-102.5 60t-64.5 84 t-19.5 115.5z" />
<glyph unicode="&#x160;" horiz-adv-x="1161" d="M82 55v224q205 -99 436 -99q137 0 209 51.5t72 141.5q0 28 -7 51.5t-17.5 42t-34 37t-43.5 32t-61 32t-72 31.5t-89 36q-201 81 -291 181.5t-90 250.5q0 177 139.5 286t366.5 109q230 0 406 -80v-217q-180 86 -361 86q-131 0 -202.5 -47.5t-71.5 -136.5q0 -47 13 -78.5 t61 -63.5t80 -47t131 -56q6 -3 10 -4.5t9.5 -4t10.5 -4.5q107 -45 175.5 -85t120.5 -91.5t74.5 -114.5t22.5 -147q0 -191 -136.5 -296.5t-405.5 -105.5q-127 0 -251.5 23.5t-203.5 62.5zM180 1870h260l156 -205l156 205h258l-299 -350h-230z" />
<glyph unicode="&#x161;" horiz-adv-x="1021" d="M82 717q0 148 116.5 222.5t315.5 74.5q102 0 203.5 -20t159.5 -54v-211q-61 37 -150 59.5t-180 22.5q-100 0 -151.5 -19.5t-51.5 -74.5q0 -49 50 -74t186 -61q6 -1 9.5 -2t9 -2.5t9.5 -2.5q188 -50 260 -120.5t72 -196.5q0 -132 -111 -210.5t-323 -78.5q-107 0 -227.5 25 t-188.5 67v220q81 -48 191 -78.5t208 -30.5t143.5 17.5t45.5 64.5q0 53 -52 81.5t-208 70.5q-92 27 -149.5 51.5t-102.5 60t-64.5 84t-19.5 115.5zM90 1446h260l156 -205l156 205h258l-299 -350h-230z" />
<glyph unicode="&#x162;" horiz-adv-x="1206" d="M41 1217v215h1124v-215h-432v-1217h-12l-41 -106q88 -10 136 -64t48 -137q0 -95 -79.5 -148t-215.5 -53q-120 0 -186 25l2 141q52 -25 119 -25q121 0 121 84q0 109 -203 109l67 174h-16v1217h-432z" />
<glyph unicode="&#x163;" horiz-adv-x="808" d="M41 786v197h147v295h258v-295h236v-197h-236v-440q0 -93 35.5 -133.5t126.5 -40.5q62 0 125 29v-197q-63 -25 -139 -33l-31 -77q88 -10 136.5 -64t48.5 -137q0 -95 -79.5 -148t-215.5 -53q-121 0 -187 25l2 141q52 -25 119 -25q121 0 121 84q0 109 -203 109l66 168 q-183 71 -183 319v473h-147z" />
<glyph unicode="&#x164;" horiz-adv-x="1206" d="M41 1217v215h1124v-215h-432v-1217h-260v1217h-432zM188 1870h261l155 -205l156 205h258l-299 -350h-230z" />
<glyph unicode="&#x165;" horiz-adv-x="1005" d="M41 786v197h147v295h258v-295h236v-197h-236v-440q0 -93 35.5 -133.5t126.5 -40.5q62 0 125 29v-197q-87 -35 -215 -35q-161 0 -245.5 90t-84.5 254v473h-147zM549 1198l168 416h268l-201 -416h-235z" />
<glyph unicode="&#x166;" horiz-adv-x="1206" d="M41 1202v230h1124v-230h-426v-411h244v-220h-244v-571h-272v571h-242v220h242v411h-426z" />
<glyph unicode="&#x167;" horiz-adv-x="796" d="M41 457v145h149v205h-147v176h147v295h259v-295h237v-176h-237v-205h235v-145h-235v-111q0 -92 38 -133t125 -41q63 0 123 29v-197q-87 -35 -215 -35q-160 0 -245 90t-85 254v144h-149z" />
<glyph unicode="&#x168;" horiz-adv-x="1447" d="M113 557v875h260v-879q0 -169 95.5 -258.5t256.5 -89.5q160 0 255 89.5t95 258.5v879h260v-875q0 -271 -154 -429.5t-456 -158.5q-154 0 -271.5 42.5t-191.5 121t-111.5 185.5t-37.5 239zM336 1520v211q66 88 205 88q70 0 195.5 -51.5t191.5 -51.5q128 0 205 105v-211 q-64 -86 -205 -86q-63 0 -132.5 25.5t-135 51t-119.5 25.5q-124 0 -205 -106z" />
<glyph unicode="&#x169;" horiz-adv-x="1249" d="M113 362v621h258v-596q0 -215 200 -215q87 0 165.5 42t131.5 126v643h258v-983h-249v133q-69 -84 -166 -124t-203 -40q-198 0 -296.5 107.5t-98.5 285.5zM231 1096v211q66 88 205 88q70 0 195.5 -51.5t191.5 -51.5q128 0 205 105v-211q-64 -86 -205 -86 q-63 0 -132.5 25.5t-135 51t-119.5 25.5q-124 0 -205 -106z" />
<glyph unicode="&#x16a;" horiz-adv-x="1447" d="M113 557v875h260v-879q0 -169 95.5 -258.5t256.5 -89.5q160 0 255 89.5t95 258.5v879h260v-875q0 -271 -154 -429.5t-456 -158.5q-154 0 -271.5 42.5t-191.5 121t-111.5 185.5t-37.5 239zM393 1540v172h662v-172h-662z" />
<glyph unicode="&#x16b;" horiz-adv-x="1249" d="M113 362v621h258v-596q0 -215 200 -215q87 0 165.5 42t131.5 126v643h258v-983h-249v133q-69 -84 -166 -124t-203 -40q-198 0 -296.5 107.5t-98.5 285.5zM287 1116v172h661v-172h-661z" />
<glyph unicode="&#x16c;" horiz-adv-x="1447" d="M113 557v875h260v-879q0 -169 95.5 -258.5t256.5 -89.5q160 0 255 89.5t95 258.5v879h260v-875q0 -271 -154 -429.5t-456 -158.5q-154 0 -271.5 42.5t-191.5 121t-111.5 185.5t-37.5 239zM393 1829h195q0 -67 35 -102t100 -35t100 35t35 102h195q0 -140 -88.5 -224.5 t-241.5 -84.5t-241.5 84.5t-88.5 224.5z" />
<glyph unicode="&#x16d;" horiz-adv-x="1249" d="M113 362v621h258v-596q0 -215 200 -215q87 0 165.5 42t131.5 126v643h258v-983h-249v133q-69 -84 -166 -124t-203 -40q-198 0 -296.5 107.5t-98.5 285.5zM287 1405h194q0 -67 35 -102t100 -35t100.5 35t35.5 102h194q0 -140 -88.5 -224.5t-241.5 -84.5t-241 84.5 t-88 224.5z" />
<glyph unicode="&#x16e;" horiz-adv-x="1447" d="M113 557v875h260v-879q0 -169 95.5 -258.5t256.5 -89.5q160 0 255 89.5t95 258.5v879h260v-875q0 -271 -154 -429.5t-456 -158.5q-154 0 -271.5 42.5t-191.5 121t-111.5 185.5t-37.5 239zM469 1774q0 106 74 181t180 75t181 -75t75 -181t-75 -180t-181 -74t-180 74 t-74 180zM618 1774q0 -43 31 -74t74 -31t73.5 31t30.5 74t-30.5 73.5t-73.5 30.5t-74 -30.5t-31 -73.5z" />
<glyph unicode="&#x16f;" horiz-adv-x="1249" d="M113 362v621h258v-596q0 -215 200 -215q87 0 165.5 42t131.5 126v643h258v-983h-249v133q-69 -84 -166 -124t-203 -40q-198 0 -296.5 107.5t-98.5 285.5zM362 1350q0 106 74 181t180 75t181 -75t75 -181t-75 -180t-181 -74t-180 74t-74 180zM512 1350q0 -43 30.5 -74 t73.5 -31t74 31t31 74t-31 73.5t-74 30.5t-73.5 -30.5t-30.5 -73.5z" />
<glyph unicode="&#x170;" horiz-adv-x="1447" d="M113 557v875h260v-879q0 -169 95.5 -258.5t256.5 -89.5q160 0 255 89.5t95 258.5v879h260v-875q0 -271 -154 -429.5t-456 -158.5q-154 0 -271.5 42.5t-191.5 121t-111.5 185.5t-37.5 239zM379 1520l141 356h252l-176 -356h-217zM836 1520l143 356h250l-176 -356h-217z " />
<glyph unicode="&#x171;" horiz-adv-x="1249" d="M113 362v621h258v-596q0 -215 200 -215q87 0 165.5 42t131.5 126v643h258v-983h-249v133q-69 -84 -166 -124t-203 -40q-198 0 -296.5 107.5t-98.5 285.5zM260 1096l141 356h252l-176 -356h-217zM717 1096l143 356h250l-176 -356h-217z" />
<glyph unicode="&#x172;" horiz-adv-x="1447" d="M113 557v875h260v-879q0 -169 95.5 -258.5t256.5 -89.5q160 0 255 89.5t95 258.5v879h260v-875q0 -160 -53 -282t-166.5 -201.5t-279.5 -98.5q-123 -82 -123 -178q0 -39 23 -60.5t61 -21.5q50 0 98 23v-148q-70 -26 -178 -26q-102 0 -166 47.5t-64 140.5q0 133 117 225 q-244 31 -367.5 184.5t-123.5 395.5z" />
<glyph unicode="&#x173;" horiz-adv-x="1259" d="M113 362v621h258v-596q0 -215 200 -215q87 0 165.5 42t131.5 126v643h258v-983h-10q-82 -49 -122 -97.5t-40 -105.5q0 -39 23 -60.5t61 -21.5q51 0 99 23v-148q-70 -26 -179 -26q-102 0 -165.5 47.5t-63.5 140.5q0 78 41 142t109 106h-2v133q-69 -84 -166 -124t-203 -40 q-198 0 -296.5 107.5t-98.5 285.5z" />
<glyph unicode="&#x174;" horiz-adv-x="2060" d="M94 1432h271l284 -1012l281 1012h200l281 -1012l285 1012h270l-407 -1432h-242l-287 995l-287 -995h-241zM616 1520l302 350h229l299 -350h-258l-156 202l-155 -202h-261z" />
<glyph unicode="&#x175;" horiz-adv-x="1699" d="M82 983h258l201 -666l196 666h226l196 -666l201 666h258l-322 -983h-237l-209 668l-209 -668h-238zM436 1096l301 350h230l299 -350h-258l-156 202l-156 -202h-260z" />
<glyph unicode="&#x176;" horiz-adv-x="1486" d="M94 1432h277l368 -637l379 637h275l-531 -887v-545h-248v545zM326 1520l301 350h229l299 -350h-258l-156 202l-155 -202h-260z" />
<glyph unicode="&#x177;" horiz-adv-x="1228" d="M82 983h260l303 -717l285 717h258l-430 -1071q-65 -163 -159 -240.5t-241 -77.5q-126 0 -202 27v197q54 -21 127 -21q78 0 116.5 34.5t67.5 111.5l39 102zM233 1096l302 350h229l299 -350h-258l-156 202l-155 -202h-261z" />
<glyph unicode="&#x178;" horiz-adv-x="1486" d="M94 1432h277l368 -637l379 637h275l-531 -887v-545h-248v545zM360 1675q0 57 41 97t97 40t95.5 -40t39.5 -97t-39.5 -96t-95.5 -39t-97 39.5t-41 95.5zM846 1675q0 57 40.5 97t96.5 40t95.5 -40t39.5 -97t-39.5 -96t-95.5 -39t-96.5 39.5t-40.5 95.5z" />
<glyph unicode="&#x179;" horiz-adv-x="1267" d="M82 0v170l749 1047h-731v215h1049v-170l-748 -1047h785v-215h-1104zM473 1520l141 356h273l-176 -356h-238z" />
<glyph unicode="&#x17a;" horiz-adv-x="1026" d="M82 0v162l522 624h-508v197h832v-162l-520 -624h536v-197h-862zM367 1096l141 356h272l-176 -356h-237z" />
<glyph unicode="&#x17b;" horiz-adv-x="1267" d="M82 0v170l749 1047h-731v215h1049v-170l-748 -1047h785v-215h-1104zM475 1675q0 57 40.5 97t96.5 40t96 -40t40 -97t-40 -96t-96 -39t-96.5 39.5t-40.5 95.5z" />
<glyph unicode="&#x17c;" horiz-adv-x="1026" d="M82 0v162l522 624h-508v197h832v-162l-520 -624h536v-197h-862zM377 1251q0 57 40.5 97.5t96.5 40.5t95.5 -40.5t39.5 -97.5t-39.5 -96t-95.5 -39t-96.5 39.5t-40.5 95.5z" />
<glyph unicode="&#x17d;" horiz-adv-x="1267" d="M82 0v170l749 1047h-731v215h1049v-170l-748 -1047h785v-215h-1104zM211 1870h260l156 -205l155 205h258l-299 -350h-229z" />
<glyph unicode="&#x17e;" horiz-adv-x="1026" d="M82 0v162l522 624h-508v197h832v-162l-520 -624h536v-197h-862zM109 1446h260l155 -205l156 205h258l-299 -350h-229z" />
<glyph unicode="&#x18f;" horiz-adv-x="1691" d="M82 686v123h1251q-20 203 -180 320.5t-420 117.5q-133 0 -274 -25t-244 -65v211q100 40 251.5 67t303.5 27q397 0 618.5 -194.5t221.5 -548.5q0 -228 -87 -395.5t-261 -261t-420 -93.5q-149 0 -273.5 36t-214 100.5t-151 154t-91.5 197t-30 229.5zM332 614 q9 -199 135 -317.5t369 -118.5q239 0 363.5 118.5t135.5 317.5h-1003z" />
<glyph unicode="&#x192;" horiz-adv-x="1075" d="M-195 -442l39 209q56 -27 121 -27q96 0 146 42.5t71 135.5l187 889h-158l33 176h164l34 170q80 371 459 371q108 0 174 -29l-39 -209q-52 25 -125 25q-89 0 -140.5 -40t-72.5 -136l-32 -152h262l-33 -176h-266l-193 -907q-41 -194 -152.5 -282.5t-306.5 -88.5 q-103 0 -172 29z" />
<glyph unicode="&#x1a0;" horiz-adv-x="1785" d="M82 715q0 165 58.5 305.5t160 237t241.5 150.5t300 54q302 0 510 -180q101 1 137.5 38.5t36.5 137.5v72h239v-86q0 -128 -69 -225t-189 -129q92 -165 92 -375q0 -219 -100 -390t-272 -263.5t-385 -92.5q-160 0 -300 54.5t-241.5 151t-160 236.5t-58.5 304zM356 715 q0 -149 66 -264t175.5 -174.5t244.5 -59.5q134 0 243 59.5t174.5 174.5t65.5 264q0 148 -64.5 262.5t-174 174.5t-244.5 60q-208 0 -347 -137t-139 -360z" />
<glyph unicode="&#x1a1;" horiz-adv-x="1413" d="M82 492q0 238 157 380t418 142q232 0 387 -117q140 25 140 174v72h209v-86q0 -109 -58 -193.5t-161 -120.5q59 -115 59 -251q0 -244 -157 -383.5t-419 -139.5t-418.5 139.5t-156.5 383.5zM348 492q0 -141 84 -230.5t225 -89.5t225.5 89.5t84.5 230.5q0 150 -83.5 234.5 t-226.5 84.5t-226 -84.5t-83 -234.5z" />
<glyph unicode="&#x1af;" horiz-adv-x="1765" d="M113 557v875h272v-879q0 -169 89.5 -252.5t250.5 -83.5q160 0 249 83.5t89 252.5v879h272v-152q100 0 135 38.5t35 139.5v72h240v-86q0 -78 -23 -143t-70.5 -115.5t-128.5 -79t-188 -29.5v-520q0 -271 -154 -429.5t-456 -158.5q-154 0 -271.5 42.5t-191.5 121 t-111.5 185.5t-37.5 239z" />
<glyph unicode="&#x1b0;" horiz-adv-x="1511" d="M113 362v621h258v-596q0 -215 200 -215q87 0 165.5 42t131.5 126v643h258v-92q77 7 116.5 51.5t39.5 120.5v80h209v-86q0 -142 -95.5 -235.5t-269.5 -100.5v-721h-249v133q-69 -84 -166 -124t-203 -40q-198 0 -296.5 107.5t-98.5 285.5z" />
<glyph unicode="&#x1cd;" horiz-adv-x="1560" d="M82 0l573 1432h252l572 -1432h-265l-131 330h-606l-129 -330h-266zM367 1870h260l155 -205l156 205h258l-299 -350h-229zM549 545h463l-232 608z" />
<glyph unicode="&#x1ce;" horiz-adv-x="1181" d="M82 313q0 164 106.5 256.5t298.5 92.5q186 0 322 -76v26q0 104 -65 151.5t-207 47.5q-189 0 -334 -66v203q62 28 165 47t199 19q256 0 379 -110t123 -304v-600h-244v96q-63 -62 -144 -94.5t-198 -32.5q-176 0 -288.5 93.5t-112.5 250.5zM221 1446h260l156 -205l156 205 h258l-299 -350h-230zM344 313q0 -77 52.5 -116t150.5 -39q85 0 155 33.5t107 93.5v108q-115 80 -258 80q-207 0 -207 -160z" />
<glyph unicode="&#x1cf;" horiz-adv-x="505" d="M-160 1915h260l156 -205l156 205h258l-299 -350h-230zM123 0v1432h260v-1432h-260z" />
<glyph unicode="&#x1d0;" horiz-adv-x="507" d="M-160 1446h260l156 -205l156 205h258l-299 -350h-230zM123 0v983h262v-983h-262z" />
<glyph unicode="&#x1d1;" horiz-adv-x="1681" d="M82 715q0 165 58.5 305.5t160 237t241.5 150.5t300 54q213 0 385 -92t272 -263.5t100 -391.5q0 -219 -100 -390t-272 -263.5t-385 -92.5q-160 0 -300 54.5t-241.5 151t-160 236.5t-58.5 304zM344 715q0 -153 67.5 -270.5t180 -178.5t250.5 -61q137 0 248.5 61t179 178.5 t67.5 270.5q0 152 -66.5 269t-178.5 179t-250 62q-140 0 -252.5 -62t-179 -179t-66.5 -269zM424 1870h260l156 -205l155 205h258l-299 -350h-229z" />
<glyph unicode="&#x1d2;" horiz-adv-x="1388" d="M156 492q0 238 157 380t418 142q260 0 418 -142.5t158 -379.5q0 -244 -157 -383.5t-419 -139.5t-418.5 139.5t-156.5 383.5zM317 1446h261l155 -205l156 205h258l-299 -350h-230zM422 492q0 -141 84 -230.5t225 -89.5t225 89.5t84 230.5q0 150 -83 234.5t-226 84.5 t-226 -84.5t-83 -234.5z" />
<glyph unicode="&#x1d3;" horiz-adv-x="1447" d="M113 557v875h260v-879q0 -169 95.5 -258.5t256.5 -89.5q160 0 255 89.5t95 258.5v879h260v-875q0 -271 -154 -429.5t-456 -158.5q-154 0 -271.5 42.5t-191.5 121t-111.5 185.5t-37.5 239zM309 1870h260l156 -205l156 205h258l-299 -350h-230z" />
<glyph unicode="&#x1d4;" horiz-adv-x="1249" d="M113 362v621h258v-596q0 -215 200 -215q87 0 165.5 42t131.5 126v643h258v-983h-249v133q-69 -84 -166 -124t-203 -40q-198 0 -296.5 107.5t-98.5 285.5zM205 1446h260l156 -205l155 205h258l-299 -350h-229z" />
<glyph unicode="&#x1d5;" horiz-adv-x="1447" d="M113 557v875h260v-879q0 -169 95.5 -258.5t256.5 -89.5q160 0 255 89.5t95 258.5v879h260v-875q0 -271 -154 -429.5t-456 -158.5q-154 0 -271.5 42.5t-191.5 121t-111.5 185.5t-37.5 239zM344 1675q0 57 40.5 97t96.5 40t95.5 -40t39.5 -97t-39.5 -96t-95.5 -39 t-96.5 39.5t-40.5 95.5zM393 1903v172h662v-172h-662zM829 1675q0 57 41 97t97 40t95.5 -40t39.5 -97t-39.5 -96t-95.5 -39t-97 39.5t-41 95.5z" />
<glyph unicode="&#x1d6;" horiz-adv-x="1249" d="M113 362v621h258v-596q0 -215 200 -215q87 0 165.5 42t131.5 126v643h258v-983h-249v133q-69 -84 -166 -124t-203 -40q-198 0 -296.5 107.5t-98.5 285.5zM242 1251q0 57 40.5 97.5t96.5 40.5t95.5 -40.5t39.5 -97.5t-39.5 -96t-95.5 -39t-96.5 39.5t-40.5 95.5zM291 1483 v172h661v-172h-661zM727 1251q0 57 40.5 97.5t96.5 40.5t95.5 -40.5t39.5 -97.5t-39.5 -96t-95.5 -39t-96.5 39.5t-40.5 95.5z" />
<glyph unicode="&#x1d7;" horiz-adv-x="1447" d="M113 557v875h260v-879q0 -169 95.5 -258.5t256.5 -89.5q160 0 255 89.5t95 258.5v879h260v-875q0 -271 -154 -429.5t-456 -158.5q-154 0 -271.5 42.5t-191.5 121t-111.5 185.5t-37.5 239zM328 1675q0 57 40.5 97t96.5 40t95.5 -40t39.5 -97t-39.5 -96t-95.5 -39 t-96.5 39.5t-40.5 95.5zM621 1769l124 263h240l-158 -263h-206zM854 1675q0 57 40.5 97t96.5 40t95.5 -40t39.5 -97t-39.5 -96t-95.5 -39t-96.5 39.5t-40.5 95.5z" />
<glyph unicode="&#x1d8;" horiz-adv-x="1249" d="M113 362v621h258v-596q0 -215 200 -215q87 0 165.5 42t131.5 126v643h258v-983h-249v133q-69 -84 -166 -124t-203 -40q-198 0 -296.5 107.5t-98.5 285.5zM207 1251q0 57 40.5 97.5t96.5 40.5t95.5 -40.5t39.5 -97.5t-39.5 -96t-95.5 -39t-96.5 39.5t-40.5 95.5zM500 1346 l125 262h239l-157 -262h-207zM733 1251q0 57 40.5 97.5t96.5 40.5t96 -40.5t40 -97.5t-40 -96t-96 -39t-96.5 39.5t-40.5 95.5z" />
<glyph unicode="&#x1d9;" horiz-adv-x="1447" d="M113 557v875h260v-879q0 -169 95.5 -258.5t256.5 -89.5q160 0 255 89.5t95 258.5v879h260v-875q0 -271 -154 -429.5t-456 -158.5q-154 0 -271.5 42.5t-191.5 121t-111.5 185.5t-37.5 239zM324 1675q0 57 39.5 97t95.5 40t96.5 -40t40.5 -97q0 -56 -40.5 -95.5 t-96.5 -39.5t-95.5 39t-39.5 96zM375 2048h217l131 -154l131 154h219l-254 -279h-192zM850 1675q0 57 39.5 97t95.5 40t96.5 -40t40.5 -97q0 -56 -40.5 -95.5t-96.5 -39.5t-95.5 39t-39.5 96z" />
<glyph unicode="&#x1da;" horiz-adv-x="1249" d="M113 362v621h258v-596q0 -215 200 -215q87 0 165.5 42t131.5 126v643h258v-983h-249v133q-69 -84 -166 -124t-203 -40q-198 0 -296.5 107.5t-98.5 285.5zM197 1251q0 57 39.5 97.5t95.5 40.5t96.5 -40.5t40.5 -97.5q0 -56 -40.5 -95.5t-96.5 -39.5t-95.5 39t-39.5 96z M248 1624h217l131 -154l131 154h219l-254 -278h-192zM723 1251q0 57 39.5 97.5t95.5 40.5t96.5 -40.5t40.5 -97.5q0 -56 -40.5 -95.5t-96.5 -39.5t-95.5 39t-39.5 96z" />
<glyph unicode="&#x1db;" horiz-adv-x="1447" d="M113 557v875h260v-879q0 -169 95.5 -258.5t256.5 -89.5q160 0 255 89.5t95 258.5v879h260v-875q0 -271 -154 -429.5t-456 -158.5q-154 0 -271.5 42.5t-191.5 121t-111.5 185.5t-37.5 239zM330 1675q0 57 39.5 97t95.5 40t96.5 -40t40.5 -97q0 -56 -40.5 -95.5 t-96.5 -39.5t-95.5 39t-39.5 96zM471 2032h240l125 -263h-207zM856 1675q0 57 39.5 97t95.5 40t96.5 -40t40.5 -97q0 -56 -40.5 -95.5t-96.5 -39.5t-95.5 39t-39.5 96z" />
<glyph unicode="&#x1dc;" horiz-adv-x="1249" d="M113 362v621h258v-596q0 -215 200 -215q87 0 165.5 42t131.5 126v643h258v-983h-249v133q-69 -84 -166 -124t-203 -40q-198 0 -296.5 107.5t-98.5 285.5zM217 1251q0 57 39.5 97.5t95.5 40.5t96.5 -40.5t40.5 -97.5q0 -56 -40.5 -95.5t-96.5 -39.5t-95.5 39t-39.5 96z M358 1608h240l125 -262h-207zM743 1251q0 57 40 97.5t96 40.5t96.5 -40.5t40.5 -97.5q0 -56 -40.5 -95.5t-96.5 -39.5t-96 39t-40 96z" />
<glyph unicode="&#x1e6;" horiz-adv-x="1460" d="M82 715q0 225 97 395.5t270.5 261t398.5 90.5q303 0 493 -137v-248q-175 148 -471 148q-226 0 -376 -140t-150 -370q0 -233 143.5 -372.5t370.5 -139.5q157 0 260 53v322h-241v206h501v-667q-192 -148 -530 -148q-225 0 -398.5 90.5t-270.5 260.5t-97 395zM401 1870h261 l155 -205l156 205h258l-299 -350h-230z" />
<glyph unicode="&#x1e7;" horiz-adv-x="1361" d="M82 494q0 234 145 377t373 143q124 0 214 -34t175 -112v115h250v-924q0 -254 -146.5 -392t-449.5 -138q-98 0 -196 18t-164 50v204q160 -69 360 -69q181 0 259.5 75t78.5 226v63q-139 -127 -373 -127q-229 0 -377.5 146.5t-148.5 378.5zM246 1446h260l156 -205l155 205 h258l-299 -350h-229zM344 494q0 -142 90.5 -232t229.5 -90q110 0 197.5 60.5t119.5 160.5v199q-35 100 -121 159.5t-196 59.5q-139 0 -229.5 -88t-90.5 -229z" />
<glyph unicode="&#x1fa;" horiz-adv-x="1560" d="M82 0l555 1384q-52 34 -81.5 89t-29.5 120q0 106 74 181t180 75t181 -75t75 -181q0 -65 -29 -120t-81 -89l553 -1384h-265l-131 330h-606l-129 -330h-266zM549 545h463l-232 608zM662 1882l141 285h272l-176 -285h-237zM676 1593q0 -43 30.5 -73.5t73.5 -30.5t74 30.5 t31 73.5t-31 74t-74 31t-73.5 -31t-30.5 -74z" />
<glyph unicode="&#x1fb;" horiz-adv-x="1181" d="M82 313q0 164 106.5 256.5t298.5 92.5q186 0 322 -76v26q0 104 -65 151.5t-207 47.5q-189 0 -334 -66v203q62 28 165 47t199 19q256 0 379 -110t123 -304v-600h-244v96q-63 -62 -144 -94.5t-198 -32.5q-176 0 -288.5 93.5t-112.5 250.5zM344 313q0 -77 52.5 -116 t150.5 -39q85 0 155 33.5t107 93.5v108q-115 80 -258 80q-207 0 -207 -160zM369 1350q0 106 74 181t180 75t181 -75t75 -181t-75 -180t-181 -74t-180 74t-74 180zM506 1677l141 285h273l-177 -285h-237zM518 1350q0 -43 31 -74t74 -31t73.5 31t30.5 74t-30.5 73.5 t-73.5 30.5t-74 -30.5t-31 -73.5z" />
<glyph unicode="&#x1fc;" horiz-adv-x="1892" d="M82 0l678 1432h1050v-215h-636v-394h454v-215h-454v-393h636v-215h-897v350h-391l-162 -350h-278zM621 545h292v647h-6zM1008 1520l141 356h272l-176 -356h-237z" />
<glyph unicode="&#x1fd;" horiz-adv-x="1984" d="M82 313q0 164 106.5 256.5t298.5 92.5q186 0 322 -76v26q0 104 -65 151.5t-207 47.5q-189 0 -334 -66v203q62 28 165 47t199 19q266 0 394 -144q147 144 403 144q130 0 233 -38.5t169.5 -106.5t101.5 -159.5t35 -199.5v-119h-834q25 -219 377 -219q206 0 364 61v-198 q-69 -28 -179 -47t-218 -19q-284 0 -459 158q-84 -77 -188.5 -117.5t-265.5 -40.5q-195 0 -306.5 92t-111.5 252zM344 313q0 -77 52.5 -116t150.5 -39q85 0 153.5 31.5t108.5 89.5v114q-115 80 -258 80q-207 0 -207 -160zM836 1096l141 356h272l-176 -356h-237zM1069 567 h590q-4 118 -82.5 181t-216.5 63q-134 0 -210 -65t-81 -179z" />
<glyph unicode="&#x1fe;" horiz-adv-x="1681" d="M82 715q0 165 58.5 305.5t160 237t241.5 150.5t300 54q83 0 168 -16l65 160h254l-96 -242q170 -95 268 -263t98 -386q0 -219 -100 -390t-272 -263.5t-385 -92.5q-76 0 -166 17l-64 -162h-254l97 237q-173 95 -273 265t-100 389zM344 715q0 -139 54 -247.5t149 -174.5 l373 926q-40 6 -78 6q-140 0 -252.5 -62t-179 -179t-66.5 -269zM717 1520l141 356h272l-176 -356h-237zM768 209q46 -4 74 -4q137 0 248.5 61t179 178.5t67.5 270.5q0 135 -52.5 242.5t-145.5 175.5z" />
<glyph unicode="&#x1ff;" horiz-adv-x="1314" d="M82 492q0 238 157 380t418 142q26 0 76 -4l60 149h254l-86 -211q129 -64 200.5 -182t71.5 -274q0 -244 -157 -383.5t-419 -139.5q-30 0 -88 4l-59 -149h-254l86 213q-125 64 -192.5 180.5t-67.5 274.5zM348 492q0 -145 84 -232l221 551q-142 -2 -223.5 -86.5 t-81.5 -232.5zM455 1096l141 356h272l-176 -356h-237zM649 172h8q141 0 225.5 89.5t84.5 230.5q0 154 -93 241z" />
<glyph unicode="&#x218;" horiz-adv-x="1161" d="M82 55v224q205 -99 436 -99q137 0 209 51.5t72 141.5q0 28 -7 51.5t-17.5 42t-34 37t-43.5 32t-61 32t-72 31.5t-89 36q-201 81 -291 181.5t-90 250.5q0 177 139.5 286t366.5 109q230 0 406 -80v-217q-180 86 -361 86q-131 0 -202.5 -47.5t-71.5 -136.5q0 -47 13 -78.5 t61 -63.5t80 -47t131 -56q6 -3 10 -4.5t9.5 -4t10.5 -4.5q107 -45 175.5 -85t120.5 -91.5t74.5 -114.5t22.5 -147q0 -191 -136.5 -296.5t-405.5 -105.5q-127 0 -251.5 23.5t-203.5 62.5zM250 -530l168 415h268l-201 -415h-235z" />
<glyph unicode="&#x219;" horiz-adv-x="1021" d="M82 717q0 148 116.5 222.5t315.5 74.5q102 0 203.5 -20t159.5 -54v-211q-61 37 -150 59.5t-180 22.5q-100 0 -151.5 -19.5t-51.5 -74.5q0 -49 50 -74t186 -61q6 -1 9.5 -2t9 -2.5t9.5 -2.5q188 -50 260 -120.5t72 -196.5q0 -132 -111 -210.5t-323 -78.5q-107 0 -227.5 25 t-188.5 67v220q81 -48 191 -78.5t208 -30.5t143.5 17.5t45.5 64.5q0 53 -52 81.5t-208 70.5q-92 27 -149.5 51.5t-102.5 60t-64.5 84t-19.5 115.5zM209 -530l168 415h268l-201 -415h-235z" />
<glyph unicode="&#x21a;" horiz-adv-x="1206" d="M41 1217v215h1124v-215h-432v-1217h-260v1217h-432zM295 -530l168 415h268l-201 -415h-235z" />
<glyph unicode="&#x21b;" horiz-adv-x="794" d="M41 786v197h147v295h258v-295h236v-197h-236v-440q0 -93 35.5 -133.5t126.5 -40.5q62 0 125 29v-197q-87 -35 -215 -35q-161 0 -245.5 90t-84.5 254v473h-147zM197 -530l168 415h268l-201 -415h-235z" />
<glyph unicode="&#x237;" horiz-adv-x="509" d="M-164 -238q56 -24 127 -24q85 0 125.5 42t40.5 132v1071h258v-1098q0 -179 -102.5 -268.5t-276.5 -89.5q-96 0 -172 27v208z" />
<glyph unicode="&#x251;" horiz-adv-x="1361" d="M82 489q0 233 145 379t373 146q242 0 381 -127v96h258v-983h-250v115q-85 -78 -175 -112t-214 -34q-228 0 -373 143t-145 377zM344 489q0 -141 90.5 -229t229.5 -88q110 0 196 59.5t121 159.5v199q-32 100 -119.5 160.5t-197.5 60.5q-139 0 -229.5 -90t-90.5 -232z" />
<glyph unicode="&#x259;" horiz-adv-x="1247" d="M82 473v119h838q-25 219 -381 219q-207 0 -365 -61v198q69 28 179 47t218 19q275 0 434.5 -137t159.5 -383q0 -242 -141 -383.5t-403 -141.5q-130 0 -233 38.5t-169.5 106.5t-101.5 159.5t-35 199.5zM326 416q4 -118 82.5 -181t216.5 -63q134 0 212 65.5t83 178.5h-594z " />
<glyph unicode="&#x2bb;" horiz-adv-x="548" d="M82 1061l164 401h221l-135 -401h-250z" />
<glyph unicode="&#x2bc;" horiz-adv-x="548" d="M82 1061l135 401h250l-164 -401h-221z" />
<glyph unicode="&#x2be;" d="M-156 1075v185q70 0 104 26t34 88t-34 88.5t-104 26.5v184q145 0 232.5 -75t87.5 -224t-87.5 -224t-232.5 -75z" />
<glyph unicode="&#x2bf;" d="M-156 1374q0 149 87.5 224t232.5 75v-184q-70 0 -103.5 -26t-33.5 -89q0 -62 33.5 -88t103.5 -26v-185q-145 0 -232.5 75t-87.5 224z" />
<glyph unicode="&#x2c6;" horiz-adv-x="993" d="M82 1212l301 351h229l299 -351h-258l-155 203l-156 -203h-260z" />
<glyph unicode="&#x2c7;" horiz-adv-x="993" d="M82 1563h260l156 -205l155 205h258l-299 -351h-229z" />
<glyph unicode="&#x2c8;" d="M-98 1186v373h192v-373h-192z" />
<glyph unicode="&#x2c9;" horiz-adv-x="1206" d="M262 1217v172h680v-172h-680z" />
<glyph unicode="&#x2ca;" d="M-211 1196l141 356h273l-176 -356h-238z" />
<glyph unicode="&#x2cb;" d="M-213 1196l176 356h238l-142 -356h-272z" />
<glyph unicode="&#x2cc;" d="M-98 -125h192v-373h-192v373z" />
<glyph unicode="&#x2d8;" horiz-adv-x="823" d="M82 1479h194q0 -67 35.5 -102.5t100.5 -35.5t100 35.5t35 102.5h194q0 -140 -88 -225t-241 -85t-241.5 85t-88.5 225z" />
<glyph unicode="&#x2d9;" horiz-adv-x="436" d="M82 1319q0 57 40.5 97t96.5 40t95.5 -40t39.5 -97t-39.5 -96t-95.5 -39t-96.5 39.5t-40.5 95.5z" />
<glyph unicode="&#x2da;" horiz-adv-x="673" d="M82 1346q0 106 74 181t180 75t181 -75t75 -181t-75 -180t-181 -74t-180 74t-74 180zM231 1346q0 -43 31 -74t74 -31t73.5 31t30.5 74t-30.5 73.5t-73.5 30.5t-74 -30.5t-31 -73.5z" />
<glyph unicode="&#x2db;" horiz-adv-x="571" d="M82 -248q0 78 40.5 142t108.5 106h240q-82 -49 -122 -97.5t-40 -105.5q0 -39 23 -60.5t61 -21.5q48 0 96 23v-148q-70 -26 -178 -26q-101 0 -165 48t-64 140z" />
<glyph unicode="&#x2dc;" horiz-adv-x="960" d="M82 1212v211q66 88 205 88q70 0 195.5 -51t191.5 -51q129 0 205 104v-210q-64 -86 -205 -86q-63 0 -132.5 25.5t-135 51t-119.5 25.5q-123 0 -205 -107z" />
<glyph unicode="&#x2dd;" horiz-adv-x="1015" d="M82 1165l143 357h250l-176 -357h-217zM541 1165l141 357h252l-176 -357h-217z" />
<glyph unicode="&#x300;" d="M-981 1552h272l142 -356h-238z" />
<glyph unicode="&#x301;" d="M-756 1196l142 356h272l-176 -356h-238z" />
<glyph unicode="&#x302;" d="M-416 1202l301 350h230l299 -350h-258l-156 203l-156 -203h-260z" />
<glyph unicode="&#x303;" d="M-1030 1212v211q66 88 205 88q70 0 195.5 -51t191.5 -51q129 0 205 104v-210q-64 -86 -205 -86q-63 0 -132.5 25.5t-135 51t-119.5 25.5q-123 0 -205 -107z" />
<glyph unicode="&#x304;" d="M-319 1217v172h661v-172h-661z" />
<glyph unicode="&#x306;" d="M-330 1479h195q0 -67 35 -102.5t100 -35.5t100 35.5t35 102.5h195q0 -140 -88.5 -225t-241.5 -85t-241.5 85t-88.5 225z" />
<glyph unicode="&#x307;" d="M-137 1319q0 57 40.5 97t96.5 40t95.5 -40t39.5 -97t-39.5 -96t-95.5 -39t-96.5 39.5t-40.5 95.5z" />
<glyph unicode="&#x308;" d="M-381 1319q0 57 40.5 97t96.5 40t95.5 -40t39.5 -97t-39.5 -96t-95.5 -39t-96.5 39.5t-40.5 95.5zM104 1319q0 57 41 97t97 40t95.5 -40t39.5 -97t-39.5 -96t-95.5 -39t-97 39.5t-41 95.5z" />
<glyph unicode="&#x309;" d="M-915 1462v135q97 29 200 29q141 0 214 -55.5t73 -149.5q0 -75 -48.5 -127t-137.5 -65v-70h-226v152q93 0 140 22t47 78q0 40 -29.5 58t-97.5 18q-26 0 -70.5 -8t-64.5 -17z" />
<glyph unicode="&#x30a;" d="M-254 1346q0 106 74 181t180 75t181 -75t75 -181t-75 -180t-181 -74t-180 74t-74 180zM-104 1346q0 -43 30.5 -74t73.5 -31t73.5 31t30.5 74t-30.5 73.5t-73.5 30.5t-73.5 -30.5t-30.5 -73.5z" />
<glyph unicode="&#x30b;" d="M-446 1196l141 356h252l-176 -356h-217zM10 1196l144 356h249l-176 -356h-217z" />
<glyph unicode="&#x30c;" d="M-416 1552h260l156 -204l156 204h258l-299 -350h-230z" />
<glyph unicode="&#x31b;" d="M-184 1108v180q87 0 134.5 48t47.5 122v72h207v-86q0 -147 -102 -241.5t-287 -94.5z" />
<glyph unicode="&#x323;" d="M-137 -231q0 57 40.5 97t96.5 40t95.5 -40t39.5 -97t-39.5 -96.5t-95.5 -39.5t-96.5 39.5t-40.5 96.5z" />
<glyph unicode="&#x324;" d="M-358 -231q0 57 40.5 97t96.5 40t95.5 -40t39.5 -97t-39.5 -96.5t-95.5 -39.5t-96.5 39.5t-40.5 96.5zM82 -231q0 57 40.5 97t96.5 40t95.5 -40t39.5 -97t-39.5 -96.5t-95.5 -39.5t-96.5 39.5t-40.5 96.5z" />
<glyph unicode="&#x326;" d="M-518 -530l168 415h268l-201 -415h-235z" />
<glyph unicode="&#x327;" d="M-229 -483l2 141q52 -25 118 -25q121 0 121 84q0 109 -202 109l67 174h232l-41 -106q88 -10 136 -64t48 -137q0 -95 -79.5 -148t-215.5 -53q-120 0 -186 25z" />
<glyph unicode="&#x328;" d="M-197 -248q0 78 41 142t109 106h237q-82 -49 -121.5 -97.5t-39.5 -105.5q0 -39 23 -60.5t61 -21.5q50 0 98 23v-148q-70 -26 -178 -26q-102 0 -166 47.5t-64 140.5z" />
<glyph unicode="&#x32e;" d="M-330 -121h195q0 -67 35 -102t100 -35t100 35t35 102h195q0 -140 -88.5 -224.5t-241.5 -84.5t-241.5 84.5t-88.5 224.5z" />
<glyph unicode="&#x331;" d="M-319 -139h661v-170h-661v170z" />
<glyph unicode="&#x394;" horiz-adv-x="1413" d="M82 0v176l512 1286h225l512 -1286v-176h-1249zM326 211h759l-378 969z" />
<glyph unicode="&#x3a9;" horiz-adv-x="1675" d="M82 0v215h252q-111 88 -180.5 224t-69.5 292q0 161 54 296.5t151.5 231.5t238.5 149.5t310 53.5t310 -53.5t238 -149.5t151 -231.5t54 -296.5q0 -156 -69.5 -292t-180.5 -224h252v-215h-606v195q342 190 342 536q0 223 -138 358.5t-353 135.5t-353.5 -135.5 t-138.5 -358.5q0 -346 342 -536v-195h-606z" />
<glyph unicode="&#x3bc;" horiz-adv-x="1259" d="M123 -449v1432h258v-608q0 -102 49 -152.5t152 -50.5q87 0 165.5 42t131.5 126v643h258v-983h-250v133q-69 -84 -166 -124t-203 -40q-84 0 -137 29v-447h-258z" />
<glyph unicode="&#x3c0;" horiz-adv-x="1425" d="M61 768v215h1209v-215h-178v-414q0 -94 31.5 -134t113.5 -40q69 0 127 25v-209q-76 -27 -172 -27q-171 0 -266 89t-95 270v440h-331v-768h-260v768h-179z" />
<glyph unicode="&#xe01;" horiz-adv-x="1331" d="M82 838q229 288 598 288q255 0 391.5 -114.5t136.5 -317.5v-694h-260v674q0 250 -268 250q-101 0 -178 -29t-142 -94l84 -135v-666h-260v668z" />
<glyph unicode="&#xe02;" horiz-adv-x="1222" d="M82 891v205h254q92 0 146.5 -52.5t54.5 -140.5q0 -50 -19 -100t-45.5 -92.5t-53.5 -84.5t-46 -90.5t-19 -95.5v-51q0 -104 61.5 -160.5t184.5 -56.5q240 0 240 227v697h260v-654q0 -218 -130.5 -345.5t-369.5 -127.5q-233 0 -369.5 114t-136.5 296v51q0 62 28 126.5 t62 108t62 89t28 75.5q0 62 -75 62h-117z" />
<glyph unicode="&#xe03;" horiz-adv-x="1243" d="M82 989v107h182v-74q0 -59 60 -59q35 0 59 24v109h197v-193q0 -54 -21 -110t-51 -101.5t-60.5 -88t-51.5 -87t-21 -82.5v-45q0 -104 61.5 -160.5t184.5 -56.5q239 0 239 227v697h260v-654q0 -218 -130 -345.5t-369 -127.5q-233 0 -369.5 114t-136.5 296v59q0 47 22 98 t53.5 92.5t63.5 79.5t54 70.5t22 52.5v7q-42 -21 -94 -21q-154 0 -154 172z" />
<glyph unicode="&#xe04;" horiz-adv-x="1329" d="M123 0v664q0 221 146.5 341.5t396.5 120.5t395 -120.5t145 -341.5v-664h-260v674q0 126 -73 188t-207 62q-136 0 -209.5 -62t-73.5 -188v-180q26 42 79 69t122 27h166v-217h-185q-81 0 -131.5 -52.5t-50.5 -125.5v-195h-260z" />
<glyph unicode="&#xe05;" horiz-adv-x="1329" d="M123 0v760q0 169 76 267.5t235 98.5q170 0 230 -116q66 116 231 116q160 0 235.5 -98.5t75.5 -267.5v-760h-260v766q0 85 -20.5 121.5t-81.5 36.5q-47 0 -70.5 -28t-36.5 -89h-145q-13 61 -36 89t-71 28q-60 0 -81 -36.5t-21 -119.5v-274q26 42 79 69t122 27h166v-217 h-185q-81 0 -131.5 -52.5t-50.5 -125.5v-195h-260z" />
<glyph unicode="&#xe06;" horiz-adv-x="1292" d="M82 989v107h182v-74q0 -59 60 -59q35 0 59 24v109h197v-193q0 -54 -21 -110t-51 -102t-60.5 -89t-51.5 -87.5t-21 -82.5v-92q106 -168 295 -168q241 0 241 225v699h258v-711q0 -180 -113.5 -298t-312.5 -118q-103 0 -202 42t-176 124v-135h-250v422q0 62 33.5 129.5 t74 115t74 94t33.5 70.5v7q-42 -21 -94 -21q-154 0 -154 172z" />
<glyph unicode="&#xe07;" horiz-adv-x="1288" d="M82 958h260l240 -755q172 0 265 97.5t93 277.5q0 174 -64 260t-202 86q-74 0 -142 -21v199q81 24 187 24q240 0 363.5 -144.5t123.5 -403.5q0 -136 -46.5 -247t-127 -182.5t-186 -110t-225.5 -38.5h-236z" />
<glyph unicode="&#xe08;" horiz-adv-x="1212" d="M82 850v203q169 73 418 73q296 0 463 -149.5t167 -423.5q0 -165 -83.5 -292.5t-222.5 -194t-308 -66.5h-242l-149 602h258l98 -399q172 0 277.5 91t105.5 259q0 181 -92.5 276t-304.5 95q-102 0 -208.5 -20.5t-176.5 -53.5z" />
<glyph unicode="&#xe09;" horiz-adv-x="1261" d="M82 850v203q78 32 203 52.5t245 20.5q319 0 464 -134.5t145 -399.5v-592h-250v135q-63 -81 -162 -123.5t-215 -42.5q-198 0 -303 108.5t-105 297.5v250h261v-234q0 -114 55 -166.5t172 -52.5q90 0 166 43.5t121 124.5v242q0 87 -17.5 148t-60 106t-116 66.5t-181.5 21.5 q-109 0 -229.5 -20.5t-192.5 -53.5z" />
<glyph unicode="&#xe0a;" horiz-adv-x="1210" d="M82 891v205h254q92 0 146.5 -52.5t54.5 -140.5q0 -50 -19 -100t-45.5 -92.5t-53.5 -84.5t-46 -90.5t-19 -95.5v-51q0 -102 64.5 -159.5t183.5 -57.5q124 0 191 69t67 201q0 269 -219 269v137l209 278h278l-227 -303q117 -56 168 -147.5t51 -233.5q0 -209 -142 -341 t-376 -132q-228 0 -368 115t-140 295v51q0 51 18.5 103t45 92.5t53 77t45 69.5t18.5 57q0 62 -75 62h-117z" />
<glyph unicode="&#xe0b;" horiz-adv-x="1230" d="M82 989v107h182v-74q0 -59 60 -59q35 0 59 24v109h197v-193q0 -54 -21 -110t-51 -101.5t-60.5 -88t-51.5 -87t-21 -82.5v-45q0 -102 64.5 -159.5t183.5 -57.5q124 0 191 69t67 201q0 269 -219 269v137l208 278h279l-227 -303q117 -56 168 -147.5t51 -233.5 q0 -209 -142 -341t-376 -132q-228 0 -368 115t-140 295v59q0 47 22 98t53.5 92.5t63.5 79.5t54 70.5t22 52.5v7q-42 -21 -94 -21q-154 0 -154 172z" />
<glyph unicode="&#xe0c;" horiz-adv-x="2043" d="M82 838q112 141 252 214.5t325 73.5q247 0 376.5 -114t129.5 -318v-354q106 -168 277 -168q116 0 168.5 55t52.5 170v699h258v-711q0 -181 -107 -298.5t-298 -117.5q-217 0 -359 160v-129h-250v674q0 128 -61.5 189t-186.5 61q-95 0 -166 -28.5t-133 -94.5l84 -135v-353 q0 -53 24 -74.5t79 -21.5h110v-217h-249q-107 0 -165.5 61t-58.5 168v439z" />
<glyph unicode="&#xe0d;" horiz-adv-x="2070" d="M82 838q112 141 252 214.5t325 73.5q247 0 376.5 -114t129.5 -318v-69q0 -139 58 -206t200 -67q260 0 260 273v471h261v-492q0 -125 -80 -248q104 -91 104 -223q0 -106 -70.5 -183t-188 -114t-269.5 -37q-113 0 -223.5 22.5t-178.5 61.5v215q177 -96 402 -96 q291 0 291 131q0 44 -33 82q-134 -65 -281 -65q-252 0 -381 120t-129 334v70q0 128 -61.5 189t-186.5 61q-95 0 -166 -28.5t-133 -94.5l84 -135v-353q0 -54 22.5 -75t76.5 -21h114v-217h-249q-107 0 -165.5 61t-58.5 168v439z" />
<glyph unicode="&#xe0e;" horiz-adv-x="1359" d="M82 0v217h80q53 0 72.5 20.5t19.5 75.5v355l-143 170q219 288 600 288q254 0 390 -114.5t136 -317.5v-1147h-229q-137 109 -318 109q-94 0 -183 -31.5t-153 -89.5v213q56 51 148.5 81t187.5 30q178 0 287 -70v885q0 250 -268 250q-187 0 -314 -115l119 -141v-437 q0 -107 -58 -169t-165 -62h-209z" />
<glyph unicode="&#xe0f;" horiz-adv-x="1359" d="M82 0v217h80q53 0 72.5 20.5t19.5 75.5v355l-143 170q219 288 600 288q254 0 390 -114.5t136 -317.5v-1147h-248l-244 140q-84 -146 -294 -146q-135 0 -222 64v196q86 -57 205 -57q80 0 132 35t67 106h143l201 -114v903q0 250 -268 250q-187 0 -314 -115l119 -141v-437 q0 -107 -58 -169t-165 -62h-209z" />
<glyph unicode="&#xe10;" horiz-adv-x="1245" d="M82 850v203q169 73 418 73q185 0 321 -59l97 111h286l-207 -236q133 -145 133 -377q0 -170 -84 -300.5t-222.5 -197.5t-307.5 -67h-242l-149 602h258l98 -399q170 0 276.5 97t106.5 267q0 179 -91.5 268t-305.5 89q-102 0 -208.5 -20.5t-176.5 -53.5zM94 -219 q86 -57 205 -57q82 0 129.5 36.5t69.5 114.5h127l217 -131v178h258v-375h-236l-252 148q-43 -83 -112 -118.5t-176 -35.5q-65 0 -127.5 17.5t-102.5 46.5v176z" />
<glyph unicode="&#xe11;" horiz-adv-x="1302" d="M82 989v107h182v-74q0 -59 60 -59q35 0 59 24v109h197v-68q43 45 120.5 71.5t155.5 26.5q324 0 324 -370v-756h-260v786q0 71 -31.5 104.5t-97.5 33.5q-152 0 -232 -115q-16 -51 -44.5 -104t-51 -87t-40 -83t-17.5 -101v-434h-261v438q0 58 28.5 122.5t62 110t62 91 t28.5 69.5v7q-42 -21 -95 -21q-149 0 -149 172z" />
<glyph unicode="&#xe12;" horiz-adv-x="2138" d="M82 530q0 278 113 437t292 159q150 0 218 -116q74 116 262 116q147 0 221 -93t74 -249v-444q106 -168 274 -168q116 0 168.5 55t52.5 170v699h258v-711q0 -181 -107 -298.5t-298 -117.5q-217 0 -359 160v-129h-250v766q0 83 -22.5 120.5t-81.5 37.5q-96 0 -119 -119h-145 q-6 59 -30 89t-73 30q-85 0 -133.5 -98t-48.5 -296q0 -174 84 -266t234 -92q73 0 141 21v-199q-84 -25 -186 -25q-115 0 -213 36t-171 105t-114 176.5t-41 243.5z" />
<glyph unicode="&#xe13;" horiz-adv-x="2043" d="M82 838q112 141 252 214.5t325 73.5q247 0 376.5 -114t129.5 -318v-297q0 -115 52.5 -170t168.5 -55q90 0 165 44t112 124v756h258v-1096h-250v129q-129 -160 -358 -160q-191 0 -298.5 117.5t-107.5 298.5v289q0 128 -61.5 189t-186.5 61q-95 0 -166 -28.5t-133 -94.5 l84 -135v-353q0 -53 24 -74.5t79 -21.5h110v-217h-249q-107 0 -165.5 61t-58.5 168v439z" />
<glyph unicode="&#xe14;" horiz-adv-x="1404" d="M82 520q0 284 165.5 445t454.5 161q155 0 269.5 -39.5t181 -110t98 -158t31.5 -193.5v-625h-260v627q0 143 -75.5 220t-244.5 77q-164 0 -259 -105t-95 -299q0 -176 82 -262t236 -86q73 0 141 21v-199q-84 -25 -186 -25q-250 0 -394.5 140t-144.5 411z" />
<glyph unicode="&#xe15;" horiz-adv-x="1404" d="M82 520q0 278 116.5 442t295.5 164q153 0 221 -116q74 116 268 116q147 0 223 -93t76 -249v-784h-260v766q0 82 -24.5 120t-84.5 38q-102 0 -125 -119h-145q-13 119 -106 119q-85 0 -137 -103.5t-52 -300.5q0 -348 318 -348q73 0 141 21v-199q-84 -25 -186 -25 q-248 0 -393.5 140.5t-145.5 410.5z" />
<glyph unicode="&#xe16;" horiz-adv-x="1331" d="M82 838q229 288 598 288q255 0 391.5 -114.5t136.5 -317.5v-694h-260v674q0 250 -268 250q-101 0 -178 -29t-142 -94l84 -135v-353q0 -53 24 -74.5t79 -21.5h110v-217h-249q-107 0 -165.5 61t-58.5 168v439z" />
<glyph unicode="&#xe17;" horiz-adv-x="1300" d="M123 0v1096h250v-135q76 81 180 123t209 42q203 0 309.5 -113.5t106.5 -291.5v-721h-260v709q0 215 -230 215q-199 0 -305 -168v-756h-260z" />
<glyph unicode="&#xe18;" horiz-adv-x="1155" d="M82 825q0 79 38.5 138.5t106 94t152.5 51.5t186 17q127 0 248 -25.5t195 -64.5v-213q-77 46 -189 73.5t-225 27.5q-62 0 -101 -3t-77 -12.5t-56 -30t-18 -53.5q0 -15 4 -27.5t15 -23.5t22 -19.5t32.5 -17.5t38.5 -15t48.5 -15t54.5 -15t64 -16.5t69 -18.5 q107 -29 174.5 -58t117 -70t70.5 -95t21 -131q0 -151 -127 -242.5t-362 -91.5q-227 0 -362.5 89t-135.5 243v133h256v-115q0 -155 242 -155q231 0 231 139q0 26 -6 46t-14.5 36t-30 29.5t-40.5 23t-60.5 21.5t-74 20t-95.5 23q-101 23 -169.5 47.5t-127 61.5t-87 90 t-28.5 124z" />
<glyph unicode="&#xe19;" horiz-adv-x="1300" d="M123 385v711h260v-699q0 -225 240 -225q189 0 295 168v756h260v-1096h-250v135q-77 -82 -176.5 -124t-202.5 -42q-199 0 -312.5 118t-113.5 298z" />
<glyph unicode="&#xe1a;" horiz-adv-x="1337" d="M127 434v662h260v-652q0 -129 71.5 -200.5t213.5 -71.5q140 0 211 71.5t71 200.5v652h260v-662q0 -205 -148 -335t-394 -130q-247 0 -396 130t-149 335z" />
<glyph unicode="&#xe1b;" horiz-adv-x="1333" d="M123 434v662h260v-652q0 -129 71.5 -200.5t213.5 -71.5q140 0 211 71.5t71 200.5v1018h260v-1028q0 -205 -148 -335t-394 -130q-247 0 -396 130t-149 335z" />
<glyph unicode="&#xe1c;" horiz-adv-x="1335" d="M123 0v856q0 117 62.5 178.5t179.5 61.5h186v-217h-76q-53 0 -73.5 -22.5t-20.5 -80.5v-407l235 368h103l235 -368v727h258v-1096h-233l-311 494l-312 -494h-233z" />
<glyph unicode="&#xe1d;" horiz-adv-x="1335" d="M123 0v856q0 117 62.5 178.5t179.5 61.5h186v-217h-76q-53 0 -73.5 -22.5t-20.5 -80.5v-407l235 368h103l235 -368v1093h258v-1462h-233l-311 494l-312 -494h-233z" />
<glyph unicode="&#xe1e;" horiz-adv-x="1613" d="M61 1096h261l176 -736l213 736h192l213 -736l176 736h260l-305 -1096h-219l-221 754l-221 -754h-219z" />
<glyph unicode="&#xe1f;" horiz-adv-x="1558" d="M61 1096h261l176 -736l213 736h192l213 -736l223 1102h260l-352 -1462h-219l-221 754l-221 -754h-219z" />
<glyph unicode="&#xe20;" horiz-adv-x="1359" d="M82 0v217h80q53 0 72.5 20.5t19.5 75.5v355l-143 170q219 288 600 288q254 0 390 -114.5t136 -317.5v-694h-260v674q0 250 -268 250q-187 0 -314 -115l119 -141v-437q0 -107 -58 -169t-165 -62h-209z" />
<glyph unicode="&#xe21;" horiz-adv-x="1300" d="M123 0v1096h260v-756q106 -168 295 -168q242 0 242 225v699h258v-711q0 -180 -113.5 -298t-312.5 -118q-103 0 -202.5 42t-176.5 124v-135h-250z" />
<glyph unicode="&#xe22;" horiz-adv-x="1312" d="M82 330q0 84 49 151t127 94q-75 35 -120.5 100.5t-45.5 147.5q0 138 94.5 220.5t278.5 82.5q120 0 194 -24v-203q-61 25 -143 25q-158 0 -158 -117q0 -64 39.5 -94.5t124.5 -30.5h137v-211h-137q-174 0 -174 -141q0 -74 73 -116t200 -42q161 0 235 65t74 193v668h260 v-664q0 -67 -17.5 -130t-60 -124.5t-106 -107.5t-162.5 -74.5t-223 -28.5q-244 0 -391.5 94t-147.5 267z" />
<glyph unicode="&#xe23;" horiz-adv-x="1062" d="M82 805q0 154 123.5 237.5t331.5 83.5q110 0 211.5 -24t166.5 -62v-213q-67 44 -163 70.5t-191 26.5q-219 0 -219 -119q0 -16 3.5 -30t13.5 -26.5t19.5 -21.5t28.5 -19t33.5 -16.5t43 -16t47 -15.5t55 -17t59.5 -18q193 -60 264.5 -138t71.5 -211q0 -137 -117 -222 t-350 -85q-117 0 -237 25t-187 74v202q90 -53 199 -79.5t203 -26.5q123 0 177 25t54 92q0 62 -58 96q-42 26 -199 73q-24 8 -34 11q-176 55 -263 133t-87 211z" />
<glyph unicode="&#xe24;" horiz-adv-x="1331" d="M82 838q229 288 598 288q255 0 391.5 -114.5t136.5 -317.5v-1095h-260v1075q0 250 -268 250q-101 0 -178 -29t-142 -94l84 -135v-353q0 -53 24 -74.5t79 -21.5h110v-217h-249q-107 0 -165.5 61t-58.5 168v439z" />
<glyph unicode="&#xe25;" horiz-adv-x="1265" d="M82 322q0 167 124.5 269.5t334.5 102.5q201 0 344 -67v49q0 127 -75 187.5t-241 60.5q-207 0 -366 -76v203q64 31 179.5 53t227.5 22q266 0 399.5 -120.5t133.5 -323.5v-682h-258v422q-137 70 -314 70q-227 0 -227 -173q0 -76 50.5 -111.5t162.5 -35.5q67 0 121 21v-199 q-80 -25 -191 -25q-183 0 -294 92.5t-111 260.5z" />
<glyph unicode="&#xe26;" horiz-adv-x="1359" d="M82 0v217h80q53 0 72.5 20.5t19.5 75.5v355l-143 170q219 288 600 288q254 0 390 -114.5t136 -317.5v-1095h-260v1075q0 250 -268 250q-187 0 -314 -115l119 -141v-437q0 -107 -58 -169t-165 -62h-209z" />
<glyph unicode="&#xe27;" horiz-adv-x="1175" d="M82 57v205q125 -90 354 -90q186 0 288.5 93.5t102.5 281.5t-102 282.5t-289 94.5q-217 0 -348 -90v204q141 88 401 88q282 0 443.5 -152t161.5 -427q0 -273 -161.5 -425.5t-443.5 -152.5q-267 0 -407 88z" />
<glyph unicode="&#xe28;" horiz-adv-x="1359" d="M123 0v664q0 221 146.5 341.5t396.5 120.5q141 0 245 -39l80 91h287l-180 -207q108 -117 108 -307v-664h-260v674q0 126 -73 188t-207 62q-136 0 -209.5 -62t-73.5 -188v-180q26 42 79 69t122 27h166v-217h-185q-81 0 -131.5 -52.5t-50.5 -125.5v-195h-260z" />
<glyph unicode="&#xe29;" horiz-adv-x="1372" d="M123 434v662h260v-652q0 -129 71.5 -200.5t213.5 -71.5q140 0 211 71.5t71 200.5v93h-239v217h239v342h260v-342h111v-217h-111v-103q0 -205 -148 -335t-394 -130q-247 0 -396 130t-149 335z" />
<glyph unicode="&#xe2a;" horiz-adv-x="1314" d="M82 322q0 167 124.5 269.5t334.5 102.5q201 0 344 -67v49q0 127 -75 187.5t-241 60.5q-207 0 -366 -76v203q64 31 179.5 53t227.5 22q166 0 287 -51l90 103h287l-211 -242q80 -92 80 -254v-682h-258v422q-137 70 -314 70q-227 0 -227 -173q0 -76 50.5 -111.5t162.5 -35.5 q67 0 121 21v-199q-80 -25 -191 -25q-183 0 -294 92.5t-111 260.5z" />
<glyph unicode="&#xe2b;" horiz-adv-x="1277" d="M123 0v1096h260v-439l473 439h299l-299 -277q165 -44 231 -139.5t66 -255.5v-424h-260v406q0 118 -42 177t-153 83l-315 -293v-373h-260z" />
<glyph unicode="&#xe2c;" horiz-adv-x="1355" d="M123 0v1096h258v-717l246 420h102l246 -420v440q0 106 -47.5 150.5t-167.5 44.5v143l223 305h287l-236 -321q60 -19 100 -49t61 -73.5t29.5 -91.5t8.5 -114v-813h-234l-321 545l-322 -545h-233z" />
<glyph unicode="&#xe2d;" horiz-adv-x="1263" d="M82 78v573h491v-211h-231v-227q74 -41 209 -41q180 0 272 98t92 287q0 194 -96 280.5t-334 86.5q-104 0 -211.5 -21t-179.5 -63v202q173 84 436 84q311 0 481.5 -148t170.5 -421q0 -271 -163.5 -429.5t-467.5 -158.5q-132 0 -258 28.5t-211 80.5z" />
<glyph unicode="&#xe2e;" horiz-adv-x="1298" d="M82 78v573h491v-211h-231v-227q74 -41 209 -41q180 0 272 98t92 287q0 190 -102 278.5t-328 88.5q-104 0 -211.5 -21t-179.5 -63v202q173 84 436 84q195 0 338 -67l103 119h286l-213 -246q138 -151 138 -375q0 -271 -163.5 -429.5t-467.5 -158.5q-132 0 -258 28.5 t-211 80.5z" />
<glyph unicode="&#xe2f;" horiz-adv-x="1128" d="M41 776q0 164 101.5 257t260.5 93q121 0 195 -26v-197q-65 21 -121 21q-80 0 -125 -36.5t-45 -111.5q0 -143 191 -143q143 0 247 72v391h261v-1096h-261v498q-122 -68 -311 -68q-173 0 -283 91.5t-110 254.5z" />
<glyph unicode="&#xe30;" horiz-adv-x="698" d="M82 283v131h233v-84q0 -30 13.5 -43t46.5 -13h241v-176h-356q-99 0 -138.5 45t-39.5 140zM82 838v131h233v-84q0 -30 13.5 -43t46.5 -13h241v-176h-356q-99 0 -138.5 45t-39.5 140z" />
<glyph unicode="&#xe31;" d="M-721 1442v119h234v-95q0 -32 11.5 -43.5t45.5 -11.5h487v-166h-594q-97 0 -140.5 49.5t-43.5 147.5z" />
<glyph unicode="&#xe32;" horiz-adv-x="858" d="M20 864v203q48 25 129.5 42t159.5 17q211 0 318.5 -114t107.5 -328v-684h-260v700q0 120 -48.5 172t-172.5 52q-116 0 -234 -60z" />
<glyph unicode="&#xe33;" horiz-adv-x="868" d="M-506 1446q0 97 69.5 166t166.5 69q95 0 164 -69t69 -166q0 -98 -68.5 -166t-164.5 -68q-97 0 -166.5 68t-69.5 166zM-358 1444q0 -35 26 -62.5t62 -27.5q33 0 59.5 28t26.5 62q0 36 -25.5 63t-60.5 27q-36 0 -62 -27t-26 -63zM31 864v203q48 25 129 42t159 17 q211 0 318.5 -114t107.5 -328v-684h-260v700q0 120 -48.5 172t-172.5 52q-115 0 -233 -60z" />
<glyph unicode="&#xe34;" d="M-1038 1245v166h915v-166h-915z" />
<glyph unicode="&#xe35;" d="M-1034 1245v166h682v221h233v-387h-915z" />
<glyph unicode="&#xe36;" d="M-1032 1245v166h538q-22 103 38 175.5t167 72.5q98 0 155.5 -60.5t57.5 -142.5q0 -91 -64.5 -151t-166.5 -60h-725zM-379 1456q0 -37 27.5 -64.5t64.5 -27.5t64.5 27.5t27.5 64.5t-27.5 64.5t-64.5 27.5t-64.5 -27.5t-27.5 -64.5z" />
<glyph unicode="&#xe37;" d="M-1032 1245v166h397v221h182v-221h156v221h180v-387h-915z" />
<glyph unicode="&#xe38;" d="M-483 -106h190q103 0 139.5 -38t36.5 -139v-266h-233v211q0 36 -13 51t-49 15h-71v166z" />
<glyph unicode="&#xe39;" d="M-799 -106h207q58 0 80.5 -26t22.5 -83v-115q0 -82 88 -82q86 0 86 82v224h196v-244q0 -94 -71.5 -153.5t-202.5 -59.5q-140 0 -216.5 56.5t-76.5 150.5v37q0 28 -8.5 37.5t-34.5 9.5h-70v166z" />
<glyph unicode="&#xe3a;" d="M-387 -236q0 57 40 97.5t97 40.5q56 0 96.5 -40.5t40.5 -97.5q0 -55 -40.5 -95t-96.5 -40q-57 0 -97 39.5t-40 95.5z" />
<glyph unicode="&#xe3f;" horiz-adv-x="1347" d="M123 0v1432h405v210h222v-210h53q197 0 306.5 -98t109.5 -287q0 -101 -48.5 -182.5t-128.5 -123.5q224 -74 224 -329q0 -189 -122.5 -300.5t-305.5 -111.5h-88v-211h-222v211h-405zM381 205h147v422h-147v-422zM381 836h147v391h-147v-391zM750 205h28q109 0 167.5 45.5 t58.5 159.5t-61.5 165.5t-178.5 51.5h-14v-422zM750 836h12q88 0 141 47.5t53 146.5q0 114 -51.5 155.5t-154.5 41.5v-391z" />
<glyph unicode="&#xe40;" horiz-adv-x="632" d="M123 229v867h260v-785q0 -53 22 -73.5t74 -20.5h72v-217h-209q-106 0 -162.5 61t-56.5 168z" />
<glyph unicode="&#xe41;" horiz-adv-x="1183" d="M123 229v867h260v-785q0 -53 22 -73.5t74 -20.5h72v-217h-209q-106 0 -162.5 61t-56.5 168zM674 229v867h260v-785q0 -53 22 -73.5t74 -20.5h72v-217h-209q-106 0 -162.5 61t-56.5 168z" />
<glyph unicode="&#xe42;" horiz-adv-x="698" d="M-10 1337v203h688v-217h-348q149 -109 149 -354v-658q0 -53 22 -73.5t74 -20.5h72v-217h-209q-106 0 -162.5 61t-56.5 168v746q0 147 -54.5 230.5t-174.5 131.5z" />
<glyph unicode="&#xe43;" horiz-adv-x="636" d="M-20 1286v199q130 76 307 76q166 0 247.5 -78t81.5 -203q0 -61 -24 -116t-58.5 -98.5t-69.5 -88t-59 -102t-24 -121.5v-443q0 -53 22 -73.5t74 -20.5h72v-217h-209q-106 0 -162.5 61t-56.5 168v521q0 72 23.5 136t57.5 108.5t67.5 84t57 80t23.5 78.5q0 64 -32.5 92.5 t-114.5 28.5q-122 0 -223 -72z" />
<glyph unicode="&#xe44;" horiz-adv-x="698" d="M-10 1323v217h688v-203q-120 -48 -174.5 -131.5t-54.5 -230.5v-664q0 -53 22 -73.5t74 -20.5h71v-217h-208q-106 0 -163 61t-57 168v740q0 244 150 354h-348z" />
<glyph unicode="&#xe45;" horiz-adv-x="858" d="M20 864v203q48 25 129.5 42t159.5 17q211 0 318.5 -114t107.5 -328v-1085h-260v1101q0 120 -48.5 172t-172.5 52q-116 0 -234 -60z" />
<glyph unicode="&#xe46;" horiz-adv-x="1255" d="M41 733q0 79 18 147t55 124.5t103 89t154 32.5q150 0 215 -116q63 116 227 116q112 0 185 -49.5t104 -130.5t31 -192v-754h-261v782q0 75 -22.5 108.5t-81.5 33.5q-99 0 -113 -119h-145q-5 62 -22 90.5t-68 28.5q-113 0 -113 -191q0 -86 41.5 -122t116.5 -36q76 0 141 21 v-199q-81 -24 -186 -24q-60 0 -113.5 12t-103 39t-85 68t-56.5 102.5t-21 138.5z" />
<glyph unicode="&#xe47;" d="M-981 1464q0 130 76 197.5t207 67.5h501v-142h-483q-62 0 -93.5 -24.5t-31.5 -79.5q0 -50 25.5 -75.5t72.5 -25.5q52 0 79.5 28.5t27.5 76.5h139q0 -96 109 -96h121v-148h-117q-69 0 -119.5 26.5t-64.5 65.5q-18 -41 -73.5 -70.5t-125.5 -29.5q-115 0 -182.5 63 t-67.5 166z" />
<glyph unicode="&#xe48;" d="M-381 1245v352h260v-352h-260z" />
<glyph unicode="&#xe49;" d="M-727 1417v180h174q70 0 102.5 -33t32.5 -83v-66h420v-170h-592v129q0 24 -9.5 33.5t-33.5 9.5h-94z" />
<glyph unicode="&#xe4a;" d="M-1010 1427q0 113 56.5 178.5t146.5 65.5q111 0 152 -84q44 80 149 80q168 0 168 -182v-101h27q30 0 41.5 14.5t11.5 47.5v213h143v-219q0 -93 -51 -145t-151 -52h-154v178q0 82 -59 82q-39 0 -51.5 -20t-12.5 -64v-37h-119v35q0 42 -12 64t-47 22q-37 0 -54.5 -23.5 t-17.5 -76.5q0 -89 51 -160h-165q-52 79 -52 184z" />
<glyph unicode="&#xe4b;" d="M-627 1333v197h125v88h252v-88h125v-197h-125v-88h-252v88h-125z" />
<glyph unicode="&#xe4c;" d="M-641 1245v131q0 87 45 130.5t145 43.5h453v-166h-348q-34 0 -48 -14t-14 -49v-76h-233z" />
<glyph unicode="&#xe4d;" d="M-506 1446q0 97 69.5 166t166.5 69q95 0 164 -69t69 -166q0 -98 -68.5 -166t-164.5 -68q-97 0 -166.5 68t-69.5 166zM-358 1444q0 -35 26 -62.5t62 -27.5q33 0 59.5 28t26.5 62q0 36 -25.5 63t-60.5 27q-36 0 -62 -27t-26 -63z" />
<glyph unicode="&#xe4e;" d="M-618 1415q0 79 45.5 124.5t121.5 51.5q-30 35 -30 84q0 66 51 104t129 38q77 0 127 -29v-111q-42 31 -98 31q-64 0 -64 -45q0 -51 74 -66v-108q-46 14 -88 14q-57 0 -83 -18.5t-26 -61.5q0 -35 27.5 -52t73.5 -17q70 0 116 35v-113q-53 -35 -159 -35q-102 0 -159.5 47 t-57.5 127z" />
<glyph unicode="&#xe4f;" horiz-adv-x="1204" d="M82 492q0 224 150 373t370 149q145 0 264 -67t187.5 -187t68.5 -268t-68.5 -268t-187.5 -187.5t-264 -67.5q-220 0 -370 149.5t-150 373.5zM262 492q0 -153 96.5 -250t243.5 -97q148 0 245 97.5t97 249.5q0 151 -97.5 247.5t-244.5 96.5t-243.5 -96.5t-96.5 -247.5z M317 492q0 126 82 206t205 80q122 0 204.5 -80t82.5 -206q0 -127 -82.5 -207t-204.5 -80q-123 0 -205 80t-82 207zM475 492q0 -59 36.5 -95.5t92.5 -36.5t91.5 36.5t35.5 95.5t-35.5 95t-91.5 36t-92.5 -36t-36.5 -95z" />
<glyph unicode="&#xe50;" horiz-adv-x="1323" d="M82 492q0 234 160 378t420 144t419.5 -143.5t159.5 -378.5t-159.5 -379t-419.5 -144t-420 144t-160 379zM344 492q0 -147 89.5 -233.5t228.5 -86.5q138 0 227.5 86.5t89.5 233.5q0 145 -89.5 232t-227.5 87t-228 -87t-90 -232z" />
<glyph unicode="&#xe51;" horiz-adv-x="1282" d="M82 559q0 213 144.5 334t391.5 121q281 0 431.5 -144t150.5 -383q0 -251 -165 -420.5t-498 -246.5v219q222 52 311.5 153t89.5 289q0 163 -76.5 246.5t-243.5 83.5q-128 0 -201 -67.5t-73 -182.5q0 -101 57 -154t164 -53q95 0 160 35v-188q-79 -49 -217 -49 q-192 0 -309 111t-117 296z" />
<glyph unicode="&#xe52;" horiz-adv-x="1495" d="M123 508v618h229v-606q0 -177 91 -264.5t307 -87.5q192 0 291.5 74.5t99.5 212.5v260q0 90 -72 90q-75 0 -108 -119h-154q-9 65 -26 95t-62 30q-40 0 -65 -39t-25 -123q0 -88 42.5 -134t119.5 -46q87 0 137 18v-196q-74 -21 -160 -21q-164 0 -262 96.5t-98 282.5 q0 52 10 103t32.5 99t55 84t80 57.5t104.5 21.5q143 0 195 -125q29 57 85 91t130 34q134 0 203 -73.5t69 -201.5v-295q0 -106 -50 -196.5t-135 -150.5t-198 -94t-239 -34q-138 0 -250.5 31t-197.5 95t-132 169t-47 244z" />
<glyph unicode="&#xe53;" horiz-adv-x="1366" d="M82 475q0 260 107.5 399.5t291.5 139.5q143 0 211 -103q37 48 100 75.5t136 27.5q144 0 229.5 -81t85.5 -214v-719h-231v694q0 62 -28 89.5t-87 27.5q-104 0 -104 -109v-333h-209v333q0 57 -20.5 83t-71.5 26q-148 0 -148 -340q0 -299 199 -299q105 0 166 23v-203 q-94 -23 -193 -23q-190 0 -312 133t-122 373z" />
<glyph unicode="&#xe54;" horiz-adv-x="1300" d="M82 483q0 88 22 168t69.5 149.5t116 120.5t167 80t217.5 29q192 0 253 21t83 104h250q-43 -164 -155.5 -245t-324.5 -81q-229 0 -332.5 -79t-103.5 -269q0 -152 66.5 -215t197.5 -63h78q-37 34 -59.5 83t-22.5 103q0 124 92.5 197t241.5 73q156 0 233 -38v-203 q-61 39 -161 39q-148 0 -148 -123q0 -66 43.5 -98.5t120.5 -32.5h191v-203h-592q-250 0 -396.5 122t-146.5 361z" />
<glyph unicode="&#xe55;" horiz-adv-x="1300" d="M82 483q0 213 119.5 351.5t316.5 169.5q-20 46 -20 86q0 97 58 148.5t155 51.5q96 0 151.5 -51.5t55.5 -132.5q0 -38 -15 -68q62 4 91.5 31.5t41.5 85.5h224q-42 -163 -156.5 -243.5t-323.5 -80.5q-229 0 -332.5 -80t-103.5 -270q0 -152 66.5 -215t197.5 -63h78 q-37 34 -59.5 83t-22.5 103q0 124 92.5 197t241.5 73q156 0 233 -38v-203q-61 39 -161 39q-148 0 -148 -123q0 -66 43.5 -98.5t120.5 -32.5h191v-203h-592q-250 0 -396.5 122t-146.5 361zM635 1090q0 -34 22 -58t54 -24q35 0 57.5 24t22.5 58t-22 56.5t-58 22.5 q-32 0 -54 -22.5t-22 -56.5z" />
<glyph unicode="&#xe56;" horiz-adv-x="1329" d="M41 1128h215l76 -303q57 91 159 140t234 49q135 0 237.5 -40.5t163.5 -113t91 -167t30 -208.5q0 -111 -40 -205.5t-113.5 -163.5t-184.5 -108t-247 -39q-125 0 -238.5 32t-183.5 93v217q172 -139 413 -139q159 0 245.5 79t86.5 234q0 160 -70.5 243t-226.5 83 q-115 0 -205 -62t-129 -176h-178z" />
<glyph unicode="&#xe57;" horiz-adv-x="1718" d="M82 475q0 260 107.5 399.5t291.5 139.5q143 0 211 -103q37 48 100 75.5t136 27.5q144 0 229.5 -81t85.5 -214v-520q70 0 105.5 31t35.5 108v788h211v-747q0 -379 -428 -379h-155v694q0 62 -28 89.5t-87 27.5q-104 0 -104 -109v-333h-209v333q0 57 -20.5 83t-71.5 26 q-148 0 -148 -340q0 -299 199 -299q105 0 166 23v-203q-94 -23 -193 -23q-190 0 -312 133t-122 373z" />
<glyph unicode="&#xe58;" horiz-adv-x="1359" d="M82 471q0 88 22 169t69.5 152.5t116 124t167.5 83t217 30.5q192 0 253 21t83 104h250q-43 -164 -155.5 -245t-324.5 -81q-229 0 -334.5 -87.5t-105.5 -272.5q0 -161 31.5 -231t99.5 -70q59 0 83 29.5t24 89.5v82h241v-82q0 -119 105 -119q58 0 89 46t31 134 q0 69 -32 111.5t-94 42.5q-74 0 -123 -27v203q69 27 172 27q135 0 223 -95t88 -262q0 -179 -91.5 -279t-242.5 -100q-69 0 -139.5 27t-106.5 74q-35 -49 -98.5 -75t-140.5 -26q-171 0 -274 128t-103 374z" />
<glyph unicode="&#xe59;" horiz-adv-x="1490" d="M82 473q0 260 111.5 400.5t300.5 140.5q73 0 128.5 -28.5t86.5 -67.5q30 41 86 68.5t118 27.5q85 0 138.5 -27.5t93.5 -85.5l88 225h217l-233 -594h-201l43 109q22 67 -2 118.5t-96 51.5q-74 0 -103 -45t-6 -119l199 -647h-217l-205 670q-13 42 -20 60t-22.5 41 t-37.5 31.5t-55 8.5q-156 0 -156 -338q0 -301 207 -301q67 0 125 21v-203q-89 -21 -172 -21t-157.5 33t-132.5 94.5t-92 159t-34 217.5z" />
<glyph unicode="&#xe5a;" horiz-adv-x="1814" d="M82 776q0 164 101.5 257t260.5 93q121 0 195 -26v-197q-65 21 -121 21q-80 0 -125 -36.5t-45 -111.5q0 -143 191 -143q143 0 247 72v391h261v-432q51 -31 137 -31q144 0 248 72v391h260v-1096h-260v498q-122 -68 -312 -68q-50 0 -73 4v-434h-261v498q-122 -68 -311 -68 q-173 0 -283 91.5t-110 254.5z" />
<glyph unicode="&#xe5b;" horiz-adv-x="2330" d="M82 487q0 150 62 269.5t176 188.5t260 69q218 0 330 -106t112 -296q0 -93 -29.5 -164.5t-81 -114t-115.5 -64t-139 -21.5q-112 0 -186 43v201q69 -52 166 -52q89 0 135.5 40.5t46.5 133.5q0 207 -241 207q-132 0 -212.5 -87.5t-80.5 -246.5q0 -160 91 -242.5t265 -82.5 q239 0 347 114t108 353v198h237l74 -278h4l39 250h205l59 -262h4l35 221h156l76 -226h4l36 97h224v-172h-156l-49 -142h-121l-65 183h-5l-65 -234h-141l-86 262h-5l-71 -305h-146l-71 287h-4q4 -240 -171.5 -389.5t-451.5 -149.5q-260 0 -409.5 133t-149.5 385z" />
<glyph unicode="&#x1e0c;" horiz-adv-x="1445" d="M123 0v1432h479q352 0 557 -191t205 -518q0 -357 -207 -540t-577 -183h-457zM383 215h201q250 0 384 134.5t134 373.5q0 221 -132.5 357.5t-359.5 136.5h-227v-1002zM430 -231q0 57 40.5 97t96.5 40t95.5 -40t39.5 -97t-39.5 -96.5t-95.5 -39.5t-96.5 39.5t-40.5 96.5z " />
<glyph unicode="&#x1e0d;" horiz-adv-x="1361" d="M82 489q0 233 145 379t373 146q242 0 381 -127v626h258v-1513h-250v115q-85 -78 -175 -112t-214 -34q-228 0 -373 143t-145 377zM344 489q0 -141 90.5 -229t229.5 -88q110 0 196 59.5t121 159.5v199q-32 100 -119.5 160.5t-197.5 60.5q-139 0 -229.5 -90t-90.5 -232z M510 -231q0 57 40.5 97t96.5 40t95.5 -40t39.5 -97t-39.5 -96.5t-95.5 -39.5t-96.5 39.5t-40.5 96.5z" />
<glyph unicode="&#x1e0e;" horiz-adv-x="1445" d="M123 0v1432h479q352 0 557 -191t205 -518q0 -357 -207 -540t-577 -183h-457zM272 -139h662v-170h-662v170zM383 215h201q250 0 384 134.5t134 373.5q0 221 -132.5 357.5t-359.5 136.5h-227v-1002z" />
<glyph unicode="&#x1e0f;" horiz-adv-x="1361" d="M82 489q0 233 145 379t373 146q242 0 381 -127v626h258v-1513h-250v115q-85 -78 -175 -112t-214 -34q-228 0 -373 143t-145 377zM344 489q0 -141 90.5 -229t229.5 -88q110 0 196 59.5t121 159.5v199q-32 100 -119.5 160.5t-197.5 60.5q-139 0 -229.5 -90t-90.5 -232z M365 -139h661v-170h-661v170z" />
<glyph unicode="&#x1e20;" horiz-adv-x="1460" d="M82 715q0 225 97 395.5t270.5 261t398.5 90.5q303 0 493 -137v-248q-175 148 -471 148q-226 0 -376 -140t-150 -370q0 -233 143.5 -372.5t370.5 -139.5q157 0 260 53v322h-241v206h501v-667q-192 -148 -530 -148q-225 0 -398.5 90.5t-270.5 260.5t-97 395zM514 1540v172 h662v-172h-662z" />
<glyph unicode="&#x1e21;" horiz-adv-x="1361" d="M82 494q0 234 145 377t373 143q124 0 214 -34t175 -112v115h250v-924q0 -254 -146.5 -392t-449.5 -138q-98 0 -196 18t-164 50v204q160 -69 360 -69q181 0 259.5 75t78.5 226v63q-139 -127 -373 -127q-229 0 -377.5 146.5t-148.5 378.5zM344 494q0 -142 90.5 -232 t229.5 -90q110 0 197.5 60.5t119.5 160.5v199q-35 100 -121 159.5t-196 59.5q-139 0 -229.5 -88t-90.5 -229zM346 1116v172h662v-172h-662z" />
<glyph unicode="&#x1e24;" horiz-adv-x="1452" d="M123 0v1432h260v-594h688v594h258v-1432h-258v623h-688v-623h-260zM590 -231q0 57 40.5 97t96.5 40t95.5 -40t39.5 -97t-39.5 -96.5t-95.5 -39.5t-96.5 39.5t-40.5 96.5z" />
<glyph unicode="&#x1e25;" horiz-adv-x="1249" d="M123 0v1513h258v-655q138 156 360 156q198 0 297 -107.5t99 -285.5v-621h-258v596q0 215 -201 215q-87 0 -165.5 -42t-131.5 -126v-643h-258zM489 -231q0 57 41 97t97 40t95.5 -40t39.5 -97t-39.5 -96.5t-95.5 -39.5t-97 40t-41 96z" />
<glyph unicode="&#x1e2a;" horiz-adv-x="1452" d="M123 0v1432h260v-594h688v594h258v-1432h-258v623h-688v-623h-260zM395 -121h195q0 -67 35 -102t100 -35t100 35t35 102h195q0 -140 -88.5 -224.5t-241.5 -84.5t-241.5 84.5t-88.5 224.5z" />
<glyph unicode="&#x1e2b;" horiz-adv-x="1249" d="M123 0v1513h258v-655q138 156 360 156q198 0 297 -107.5t99 -285.5v-621h-258v596q0 215 -201 215q-87 0 -165.5 -42t-131.5 -126v-643h-258zM309 -121h195q0 -67 35 -102t100 -35t100 35t35 102h195q0 -140 -88.5 -224.5t-241.5 -84.5t-241.5 84.5t-88.5 224.5z" />
<glyph unicode="&#x1e36;" horiz-adv-x="1112" d="M123 0v1432h260v-1217h688v-215h-948zM399 -231q0 57 41 97t97 40t95.5 -40t39.5 -97t-39.5 -96.5t-95.5 -39.5t-97 40t-41 96z" />
<glyph unicode="&#x1e37;" horiz-adv-x="503" d="M117 -231q0 57 40.5 97t96.5 40t95.5 -40t39.5 -97t-39.5 -96.5t-95.5 -39.5t-96.5 39.5t-40.5 96.5zM123 0v1513h258v-1513h-258z" />
<glyph unicode="&#x1e38;" horiz-adv-x="1146" d="M143 1540v172h662v-172h-662zM158 0v1432h260v-1217h688v-215h-948zM483 -231q0 57 41 97t97 40t95.5 -40t39.5 -97t-39.5 -96.5t-95.5 -39.5t-97 40t-41 96z" />
<glyph unicode="&#x1e39;" horiz-adv-x="503" d="M-78 1569v172h662v-172h-662zM117 -231q0 57 40.5 97t96.5 40t95.5 -40t39.5 -97t-39.5 -96.5t-95.5 -39.5t-96.5 39.5t-40.5 96.5zM123 0v1513h258v-1513h-258z" />
<glyph unicode="&#x1e3a;" horiz-adv-x="1112" d="M123 0v1432h260v-1217h688v-215h-948zM256 -139h662v-170h-662v170z" />
<glyph unicode="&#x1e3b;" horiz-adv-x="503" d="M-78 -139h662v-170h-662v170zM123 0v1513h258v-1513h-258z" />
<glyph unicode="&#x1e42;" horiz-adv-x="1712" d="M123 0v1432h254l479 -1049l479 1049h254v-1432h-246v930l-425 -930h-123l-426 930v-930h-246zM721 -231q0 57 40.5 97t96.5 40t95.5 -40t39.5 -97t-39.5 -96.5t-95.5 -39.5t-96.5 39.5t-40.5 96.5z" />
<glyph unicode="&#x1e43;" horiz-adv-x="1785" d="M123 0v983h242v-129q67 77 154 118.5t177 41.5q115 0 184.5 -38t104.5 -114q65 74 158.5 113t185.5 39q184 0 264 -92.5t80 -270.5v-651h-248v616q0 104 -42 149.5t-134 45.5q-138 0 -219 -113q4 -66 4 -106v-592h-250v621q0 105 -35 147.5t-126 42.5q-138 0 -250 -158 v-653h-250zM778 -231q0 57 40.5 97t96.5 40t96 -40t40 -97t-40 -96.5t-96 -39.5t-96.5 39.5t-40.5 96.5z" />
<glyph unicode="&#x1e44;" horiz-adv-x="1421" d="M123 0v1432h246l669 -998v998h260v-1432h-245l-670 999v-999h-260zM580 1675q0 57 40.5 97t96.5 40t95.5 -40t39.5 -97t-39.5 -96t-95.5 -39t-96.5 39.5t-40.5 95.5z" />
<glyph unicode="&#x1e45;" horiz-adv-x="1249" d="M123 0v983h250v-133q69 84 165.5 124t202.5 40q198 0 297 -107.5t99 -285.5v-621h-258v596q0 215 -201 215q-87 0 -165.5 -42t-131.5 -126v-643h-258zM481 1251q0 57 40.5 97.5t96.5 40.5t96 -40.5t40 -97.5t-40 -96t-96 -39t-96.5 39.5t-40.5 95.5z" />
<glyph unicode="&#x1e46;" horiz-adv-x="1421" d="M123 0v1432h246l669 -998v998h260v-1432h-245l-670 999v-999h-260zM578 -231q0 57 40.5 97t96.5 40t95.5 -40t39.5 -97t-39.5 -96.5t-95.5 -39.5t-96.5 39.5t-40.5 96.5z" />
<glyph unicode="&#x1e47;" horiz-adv-x="1249" d="M123 0v983h250v-133q69 84 165.5 124t202.5 40q198 0 297 -107.5t99 -285.5v-621h-258v596q0 215 -201 215q-87 0 -165.5 -42t-131.5 -126v-643h-258zM489 -231q0 57 41 97t97 40t95.5 -40t39.5 -97t-39.5 -96.5t-95.5 -39.5t-97 40t-41 96z" />
<glyph unicode="&#x1e48;" horiz-adv-x="1421" d="M123 0v1432h246l669 -998v998h260v-1432h-245l-670 999v-999h-260zM393 -139h662v-170h-662v170z" />
<glyph unicode="&#x1e49;" horiz-adv-x="1249" d="M123 0v983h250v-133q69 84 165.5 124t202.5 40q198 0 297 -107.5t99 -285.5v-621h-258v596q0 215 -201 215q-87 0 -165.5 -42t-131.5 -126v-643h-258zM324 -139h661v-170h-661v170z" />
<glyph unicode="&#x1e5a;" horiz-adv-x="1298" d="M123 0v1432h598q237 0 366.5 -117t129.5 -338q0 -158 -78 -269t-221 -157l290 -551h-266l-276 524h-283v-524h-260zM383 739h291q128 0 205 60t77 178q0 240 -282 240h-291v-478zM489 -231q0 57 41 97t97 40t95.5 -40t39.5 -97t-39.5 -96.5t-95.5 -39.5t-97 40t-41 96z " />
<glyph unicode="&#x1e5b;" horiz-adv-x="833" d="M100 -231q0 57 41 97t97 40t95.5 -40t39.5 -97t-39.5 -96.5t-95.5 -39.5t-97 40t-41 96zM123 0v983h250v-158q60 79 169.5 118.5t250.5 39.5v-197q-150 0 -260 -46t-152 -144v-596h-258z" />
<glyph unicode="&#x1e5c;" horiz-adv-x="1298" d="M123 0v1432h598q237 0 366.5 -117t129.5 -338q0 -158 -78 -269t-221 -157l290 -551h-266l-276 524h-283v-524h-260zM252 1540v172h661v-172h-661zM383 739h291q128 0 205 60t77 178q0 240 -282 240h-291v-478zM449 -231q0 57 40.5 97t96.5 40t95.5 -40t39.5 -97 t-39.5 -96.5t-95.5 -39.5t-96.5 39.5t-40.5 96.5z" />
<glyph unicode="&#x1e5d;" horiz-adv-x="888" d="M143 1116v172h662v-172h-662zM162 -231q0 57 40.5 97t96.5 40t95.5 -40t39.5 -97t-39.5 -96.5t-95.5 -39.5t-96.5 39.5t-40.5 96.5zM178 0v983h250v-158q60 79 169.5 118.5t250.5 39.5v-197q-150 0 -260 -46t-152 -144v-596h-258z" />
<glyph unicode="&#x1e5e;" horiz-adv-x="1298" d="M123 0v1432h598q237 0 366.5 -117t129.5 -338q0 -158 -78 -269t-221 -157l290 -551h-266l-276 524h-283v-524h-260zM293 -139h661v-170h-661v170zM383 739h291q128 0 205 60t77 178q0 240 -282 240h-291v-478z" />
<glyph unicode="&#x1e5f;" horiz-adv-x="833" d="M35 -139h661v-170h-661v170zM123 0v983h250v-158q60 79 169.5 118.5t250.5 39.5v-197q-150 0 -260 -46t-152 -144v-596h-258z" />
<glyph unicode="&#x1e60;" horiz-adv-x="1161" d="M82 55v224q205 -99 436 -99q137 0 209 51.5t72 141.5q0 28 -7 51.5t-17.5 42t-34 37t-43.5 32t-61 32t-72 31.5t-89 36q-201 81 -291 181.5t-90 250.5q0 177 139.5 286t366.5 109q230 0 406 -80v-217q-180 86 -361 86q-131 0 -202.5 -47.5t-71.5 -136.5q0 -47 13 -78.5 t61 -63.5t80 -47t131 -56q6 -3 10 -4.5t9.5 -4t10.5 -4.5q107 -45 175.5 -85t120.5 -91.5t74.5 -114.5t22.5 -147q0 -191 -136.5 -296.5t-405.5 -105.5q-127 0 -251.5 23.5t-203.5 62.5zM459 1675q0 57 40.5 97t96.5 40t95.5 -40t39.5 -97t-39.5 -96t-95.5 -39t-96.5 39.5 t-40.5 95.5z" />
<glyph unicode="&#x1e61;" horiz-adv-x="1021" d="M82 717q0 148 116.5 222.5t315.5 74.5q102 0 203.5 -20t159.5 -54v-211q-61 37 -150 59.5t-180 22.5q-100 0 -151.5 -19.5t-51.5 -74.5q0 -49 50 -74t186 -61q6 -1 9.5 -2t9 -2.5t9.5 -2.5q188 -50 260 -120.5t72 -196.5q0 -132 -111 -210.5t-323 -78.5q-107 0 -227.5 25 t-188.5 67v220q81 -48 191 -78.5t208 -30.5t143.5 17.5t45.5 64.5q0 53 -52 81.5t-208 70.5q-92 27 -149.5 51.5t-102.5 60t-64.5 84t-19.5 115.5zM369 1251q0 57 40.5 97.5t96.5 40.5t95.5 -40.5t39.5 -97.5t-39.5 -96t-95.5 -39t-96.5 39.5t-40.5 95.5z" />
<glyph unicode="&#x1e62;" horiz-adv-x="1161" d="M82 55v224q205 -99 436 -99q137 0 209 51.5t72 141.5q0 28 -7 51.5t-17.5 42t-34 37t-43.5 32t-61 32t-72 31.5t-89 36q-201 81 -291 181.5t-90 250.5q0 177 139.5 286t366.5 109q230 0 406 -80v-217q-180 86 -361 86q-131 0 -202.5 -47.5t-71.5 -136.5q0 -47 13 -78.5 t61 -63.5t80 -47t131 -56q6 -3 10 -4.5t9.5 -4t10.5 -4.5q107 -45 175.5 -85t120.5 -91.5t74.5 -114.5t22.5 -147q0 -191 -136.5 -296.5t-405.5 -105.5q-127 0 -251.5 23.5t-203.5 62.5zM414 -231q0 57 40.5 97t96.5 40t95.5 -40t39.5 -97t-39.5 -96.5t-95.5 -39.5 t-96.5 39.5t-40.5 96.5z" />
<glyph unicode="&#x1e63;" horiz-adv-x="1021" d="M82 717q0 148 116.5 222.5t315.5 74.5q102 0 203.5 -20t159.5 -54v-211q-61 37 -150 59.5t-180 22.5q-100 0 -151.5 -19.5t-51.5 -74.5q0 -49 50 -74t186 -61q6 -1 9.5 -2t9 -2.5t9.5 -2.5q188 -50 260 -120.5t72 -196.5q0 -132 -111 -210.5t-323 -78.5q-107 0 -227.5 25 t-188.5 67v220q81 -48 191 -78.5t208 -30.5t143.5 17.5t45.5 64.5q0 53 -52 81.5t-208 70.5q-92 27 -149.5 51.5t-102.5 60t-64.5 84t-19.5 115.5zM362 -231q0 57 41 97t97 40t95.5 -40t39.5 -97t-39.5 -96.5t-95.5 -39.5t-97 40t-41 96z" />
<glyph unicode="&#x1e6c;" horiz-adv-x="1206" d="M41 1217v215h1124v-215h-432v-1217h-260v1217h-432zM467 -231q0 57 40.5 97t96.5 40t95.5 -40t39.5 -97t-39.5 -96.5t-95.5 -39.5t-96.5 39.5t-40.5 96.5z" />
<glyph unicode="&#x1e6d;" horiz-adv-x="794" d="M41 786v197h147v295h258v-295h236v-197h-236v-440q0 -93 35.5 -133.5t126.5 -40.5q62 0 125 29v-197q-87 -35 -215 -35q-161 0 -245.5 90t-84.5 254v473h-147zM334 -231q0 57 40.5 97t96.5 40t95.5 -40t39.5 -97t-39.5 -96.5t-95.5 -39.5t-96.5 39.5t-40.5 96.5z" />
<glyph unicode="&#x1e6e;" horiz-adv-x="1206" d="M41 1217v215h1124v-215h-432v-1217h-260v1217h-432zM272 -139h662v-170h-662v170z" />
<glyph unicode="&#x1e6f;" horiz-adv-x="817" d="M61 786v197h148v295h258v-295h235v-197h-235v-440q0 -93 35.5 -133.5t126.5 -40.5q62 0 125 29v-197q-87 -35 -215 -35q-161 0 -245.5 90t-84.5 254v473h-148zM94 -139h662v-170h-662v170z" />
<glyph unicode="&#x1e80;" horiz-adv-x="2060" d="M94 1432h271l284 -1012l281 1012h200l281 -1012l285 1012h270l-407 -1432h-242l-287 995l-287 -995h-241zM725 1876h272l142 -356h-238z" />
<glyph unicode="&#x1e81;" horiz-adv-x="1699" d="M82 983h258l201 -666l196 666h226l196 -666l201 666h258l-322 -983h-237l-209 668l-209 -668h-238zM541 1452h272l141 -356h-237z" />
<glyph unicode="&#x1e82;" horiz-adv-x="2060" d="M94 1432h271l284 -1012l281 1012h200l281 -1012l285 1012h270l-407 -1432h-242l-287 995l-287 -995h-241zM924 1520l141 356h272l-176 -356h-237z" />
<glyph unicode="&#x1e83;" horiz-adv-x="1699" d="M82 983h258l201 -666l196 666h226l196 -666l201 666h258l-322 -983h-237l-209 668l-209 -668h-238zM731 1096l141 356h273l-176 -356h-238z" />
<glyph unicode="&#x1e84;" horiz-adv-x="2060" d="M94 1432h271l284 -1012l281 1012h200l281 -1012l285 1012h270l-407 -1432h-242l-287 995l-287 -995h-241zM651 1675q0 57 40.5 97t96.5 40t96 -40t40 -97t-40 -96t-96 -39t-96.5 39.5t-40.5 95.5zM1137 1675q0 57 40.5 97t96.5 40t95.5 -40t39.5 -97t-39.5 -96t-95.5 -39 t-96.5 39.5t-40.5 95.5z" />
<glyph unicode="&#x1e85;" horiz-adv-x="1699" d="M82 983h258l201 -666l196 666h226l196 -666l201 666h258l-322 -983h-237l-209 668l-209 -668h-238zM471 1251q0 57 40.5 97.5t96.5 40.5t95.5 -40.5t39.5 -97.5t-39.5 -96t-95.5 -39t-96.5 39.5t-40.5 95.5zM956 1251q0 57 41 97.5t97 40.5t95.5 -40.5t39.5 -97.5 t-39.5 -96t-95.5 -39t-97 39.5t-41 95.5z" />
<glyph unicode="&#x1e8e;" horiz-adv-x="1486" d="M94 1432h277l368 -637l379 637h275l-531 -887v-545h-248v545zM604 1675q0 57 40.5 97t96.5 40t96 -40t40 -97t-40 -96t-96 -39t-96.5 39.5t-40.5 95.5z" />
<glyph unicode="&#x1e8f;" horiz-adv-x="1228" d="M82 983h260l303 -717l285 717h258l-430 -1071q-65 -163 -159 -240.5t-241 -77.5q-126 0 -202 27v197q54 -21 127 -21q78 0 116.5 34.5t67.5 111.5l39 102zM510 1251q0 57 40.5 97.5t96.5 40.5t95.5 -40.5t39.5 -97.5t-39.5 -96t-95.5 -39t-96.5 39.5t-40.5 95.5z" />
<glyph unicode="&#x1e92;" horiz-adv-x="1267" d="M82 0v170l749 1047h-731v215h1049v-170l-748 -1047h785v-215h-1104zM518 -231q0 57 40.5 97t96.5 40t96 -40t40 -97t-40 -96.5t-96 -39.5t-96.5 39.5t-40.5 96.5z" />
<glyph unicode="&#x1e93;" horiz-adv-x="1026" d="M82 0v162l522 624h-508v197h832v-162l-520 -624h536v-197h-862zM381 -231q0 57 40.5 97t96.5 40t95.5 -40t39.5 -97t-39.5 -96.5t-95.5 -39.5t-96.5 39.5t-40.5 96.5z" />
<glyph unicode="&#x1e97;" horiz-adv-x="794" d="M-53 1493q0 57 40.5 97t96.5 40t95.5 -40t39.5 -97t-39.5 -96t-95.5 -39t-96.5 39.5t-40.5 95.5zM41 786v197h147v295h258v-295h236v-197h-236v-440q0 -93 35.5 -133.5t126.5 -40.5q62 0 125 29v-197q-87 -35 -215 -35q-161 0 -245.5 90t-84.5 254v473h-147zM432 1493 q0 57 40.5 97t96.5 40t96 -40t40 -97t-40 -96t-96 -39t-96.5 39.5t-40.5 95.5z" />
<glyph unicode="&#x1e9e;" horiz-adv-x="1306" d="M113 0v940q0 248 126.5 385t378.5 137q118 0 214 -34.5t158 -94.5t96.5 -137.5t39.5 -167.5l-219 -225q166 -29 242 -127t76 -268q0 -199 -121.5 -319t-345.5 -120q-175 0 -266 39v240q82 -43 206 -43q128 0 196.5 54.5t68.5 160.5q0 120 -82 172.5t-217 52.5h-89v146 l275 282q-16 65 -78 108.5t-154 43.5q-115 0 -181 -71t-66 -206v-948h-258z" />
<glyph unicode="&#x1ea0;" horiz-adv-x="1560" d="M82 0l573 1432h252l572 -1432h-265l-131 330h-606l-129 -330h-266zM549 545h463l-232 608zM643 -231q0 57 40.5 97t96.5 40t95.5 -40t39.5 -97t-39.5 -96.5t-95.5 -39.5t-96.5 39.5t-40.5 96.5z" />
<glyph unicode="&#x1ea1;" horiz-adv-x="1181" d="M82 313q0 164 106.5 256.5t298.5 92.5q186 0 322 -76v26q0 104 -65 151.5t-207 47.5q-189 0 -334 -66v203q62 28 165 47t199 19q256 0 379 -110t123 -304v-600h-244v96q-63 -62 -144 -94.5t-198 -32.5q-176 0 -288.5 93.5t-112.5 250.5zM344 313q0 -77 52.5 -116 t150.5 -39q85 0 155 33.5t107 93.5v108q-115 80 -258 80q-207 0 -207 -160zM446 -231q0 57 41 97t97 40t95.5 -40t39.5 -97t-39.5 -96.5t-95.5 -39.5t-97 40t-41 96z" />
<glyph unicode="&#x1ea2;" horiz-adv-x="1560" d="M82 0l573 1432h252l572 -1432h-265l-131 330h-606l-129 -330h-266zM549 545h463l-232 608zM592 1823v135q97 29 201 29q140 0 213 -55.5t73 -149.5q0 -75 -48.5 -127.5t-137.5 -65.5v-69h-225v151q92 0 139 22.5t47 78.5q0 40 -29 57.5t-98 17.5q-26 0 -71 -7.5 t-64 -16.5z" />
<glyph unicode="&#x1ea3;" horiz-adv-x="1181" d="M82 313q0 164 106.5 256.5t298.5 92.5q186 0 322 -76v26q0 104 -65 151.5t-207 47.5q-189 0 -334 -66v203q62 28 165 47t199 19q256 0 379 -110t123 -304v-600h-244v96q-63 -62 -144 -94.5t-198 -32.5q-176 0 -288.5 93.5t-112.5 250.5zM344 313q0 -77 52.5 -116 t150.5 -39q85 0 155 33.5t107 93.5v108q-115 80 -258 80q-207 0 -207 -160zM426 1399v135q97 29 201 29q140 0 213 -55.5t73 -149.5q0 -75 -48.5 -127.5t-137.5 -65.5v-69h-225v151q92 0 139 22.5t47 78.5q0 40 -29 57.5t-98 17.5q-26 0 -71 -7.5t-64 -16.5z" />
<glyph unicode="&#x1ea4;" horiz-adv-x="1560" d="M82 0l573 1432h252l572 -1432h-265l-131 330h-606l-129 -330h-266zM387 1522l285 311h217l282 -311h-243l-148 172l-147 -172h-246zM549 545h463l-232 608zM1059 1724l125 263h239l-157 -263h-207z" />
<glyph unicode="&#x1ea5;" horiz-adv-x="1181" d="M82 313q0 164 106.5 256.5t298.5 92.5q186 0 322 -76v26q0 104 -65 151.5t-207 47.5q-189 0 -334 -66v203q62 28 165 47t199 19q256 0 379 -110t123 -304v-600h-244v96q-63 -62 -144 -94.5t-198 -32.5q-176 0 -288.5 93.5t-112.5 250.5zM236 1096l284 311h217l283 -311 h-244l-147 172l-148 -172h-245zM344 313q0 -77 52.5 -116t150.5 -39q85 0 155 33.5t107 93.5v108q-115 80 -258 80q-207 0 -207 -160zM907 1298l125 263h240l-158 -263h-207z" />
<glyph unicode="&#x1ea6;" horiz-adv-x="1560" d="M82 0l573 1432h252l572 -1432h-265l-131 330h-606l-129 -330h-266zM137 1985h240l125 -263h-207zM389 1520l283 311h217l285 -311h-246l-148 172l-147 -172h-244zM549 545h463l-232 608z" />
<glyph unicode="&#x1ea7;" horiz-adv-x="1181" d="M-31 1561h240l125 -263h-207zM82 313q0 164 106.5 256.5t298.5 92.5q186 0 322 -76v26q0 104 -65 151.5t-207 47.5q-189 0 -334 -66v203q62 28 165 47t199 19q256 0 379 -110t123 -304v-600h-244v96q-63 -62 -144 -94.5t-198 -32.5q-176 0 -288.5 93.5t-112.5 250.5z M221 1096l283 311h217l285 -311h-246l-148 172l-147 -172h-244zM344 313q0 -77 52.5 -116t150.5 -39q85 0 155 33.5t107 93.5v108q-115 80 -258 80q-207 0 -207 -160z" />
<glyph unicode="&#x1ea8;" horiz-adv-x="1560" d="M82 0l573 1432h252l572 -1432h-265l-131 330h-606l-129 -330h-266zM387 1522l285 311h217l282 -311h-243l-148 172l-147 -172h-246zM549 545h463l-232 608zM1006 1905v100q71 23 147 23q92 0 145.5 -39.5t53.5 -104.5q0 -52 -34.5 -87t-96.5 -46v-49h-162v102q61 0 89 14 t28 50q0 31 -20.5 42t-65.5 11q-52 0 -84 -16z" />
<glyph unicode="&#x1ea9;" horiz-adv-x="1181" d="M82 313q0 164 106.5 256.5t298.5 92.5q186 0 322 -76v26q0 104 -65 151.5t-207 47.5q-189 0 -334 -66v203q62 28 165 47t199 19q256 0 379 -110t123 -304v-600h-244v96q-63 -62 -144 -94.5t-198 -32.5q-176 0 -288.5 93.5t-112.5 250.5zM209 1096l285 311h217l282 -311 h-243l-148 172l-147 -172h-246zM344 313q0 -77 52.5 -116t150.5 -39q85 0 155 33.5t107 93.5v108q-115 80 -258 80q-207 0 -207 -160zM827 1479v100q71 23 148 23q92 0 145.5 -39.5t53.5 -104.5q0 -52 -35 -87t-97 -46v-49h-161v102q61 0 88.5 14t27.5 50q0 31 -20.5 42 t-65.5 11q-52 0 -84 -16z" />
<glyph unicode="&#x1eaa;" horiz-adv-x="1560" d="M82 0l573 1432h252l572 -1432h-265l-131 330h-606l-129 -330h-266zM389 1520l285 311h217l283 -311h-244l-148 172l-147 -172h-246zM471 1858v182q49 71 160 71q51 0 159 -44t156 -44q99 0 160 86v-184q-50 -70 -160 -70q-57 0 -163 44.5t-152 44.5q-96 0 -160 -86z M549 545h463l-232 608z" />
<glyph unicode="&#x1eab;" horiz-adv-x="1181" d="M82 313q0 164 106.5 256.5t298.5 92.5q186 0 322 -76v26q0 104 -65 151.5t-207 47.5q-189 0 -334 -66v203q62 28 165 47t199 19q256 0 379 -110t123 -304v-600h-244v96q-63 -62 -144 -94.5t-198 -32.5q-176 0 -288.5 93.5t-112.5 250.5zM219 1096l285 311h217l283 -311 h-244l-148 172l-147 -172h-246zM301 1434v182q49 72 160 72q51 0 159 -44.5t156 -44.5q98 0 160 87v-185q-49 -69 -160 -69q-57 0 -163 44t-152 44q-96 0 -160 -86zM344 313q0 -77 52.5 -116t150.5 -39q85 0 155 33.5t107 93.5v108q-115 80 -258 80q-207 0 -207 -160z" />
<glyph unicode="&#x1eac;" horiz-adv-x="1560" d="M82 0l573 1432h252l572 -1432h-265l-131 330h-606l-129 -330h-266zM367 1520l301 350h229l299 -350h-258l-156 202l-155 -202h-260zM549 545h463l-232 608zM645 -231q0 57 40.5 97t96.5 40t96 -40t40 -97t-40 -96.5t-96 -39.5t-96.5 39.5t-40.5 96.5z" />
<glyph unicode="&#x1ead;" horiz-adv-x="1181" d="M82 313q0 164 106.5 256.5t298.5 92.5q186 0 322 -76v26q0 104 -65 151.5t-207 47.5q-189 0 -334 -66v203q62 28 165 47t199 19q256 0 379 -110t123 -304v-600h-244v96q-63 -62 -144 -94.5t-198 -32.5q-176 0 -288.5 93.5t-112.5 250.5zM182 1096l301 350h230l299 -350 h-258l-156 202l-156 -202h-260zM344 313q0 -77 52.5 -116t150.5 -39q85 0 155 33.5t107 93.5v108q-115 80 -258 80q-207 0 -207 -160zM440 -231q0 57 41 97t97 40t95.5 -40t39.5 -97t-39.5 -96.5t-95.5 -39.5t-97 40t-41 96z" />
<glyph unicode="&#x1eae;" horiz-adv-x="1560" d="M82 0l573 1432h252l572 -1432h-265l-131 330h-606l-129 -330h-266zM461 1821h188q0 -65 33.5 -99t97.5 -34t97.5 34t33.5 99h189q0 -137 -85.5 -219t-234.5 -82t-234 82t-85 219zM549 545h463l-232 608zM690 1829l107 258h207l-138 -258h-176z" />
<glyph unicode="&#x1eaf;" horiz-adv-x="1181" d="M82 313q0 164 106.5 256.5t298.5 92.5q186 0 322 -76v26q0 104 -65 151.5t-207 47.5q-189 0 -334 -66v203q62 28 165 47t199 19q256 0 379 -110t123 -304v-600h-244v96q-63 -62 -144 -94.5t-198 -32.5q-176 0 -288.5 93.5t-112.5 250.5zM293 1397h188q0 -65 33.5 -99 t97.5 -34t97.5 34t33.5 99h189q0 -137 -85.5 -219t-234.5 -82t-234 82t-85 219zM344 313q0 -77 52.5 -116t150.5 -39q85 0 155 33.5t107 93.5v108q-115 80 -258 80q-207 0 -207 -160zM522 1405l107 258h207l-138 -258h-176z" />
<glyph unicode="&#x1eb0;" horiz-adv-x="1560" d="M82 0l573 1432h252l572 -1432h-265l-131 330h-606l-129 -330h-266zM461 1821h188q0 -65 33.5 -99t97.5 -34t97.5 34t33.5 99h189q0 -137 -85.5 -219t-234.5 -82t-234 82t-85 219zM549 545h463l-232 608zM557 2087h207l106 -258h-176z" />
<glyph unicode="&#x1eb1;" horiz-adv-x="1181" d="M82 313q0 164 106.5 256.5t298.5 92.5q186 0 322 -76v26q0 104 -65 151.5t-207 47.5q-189 0 -334 -66v203q62 28 165 47t199 19q256 0 379 -110t123 -304v-600h-244v96q-63 -62 -144 -94.5t-198 -32.5q-176 0 -288.5 93.5t-112.5 250.5zM283 1397h188q0 -65 33.5 -99 t97.5 -34t97.5 34t33.5 99h189q0 -137 -85.5 -219t-234.5 -82t-234 82t-85 219zM344 313q0 -77 52.5 -116t150.5 -39q85 0 155 33.5t107 93.5v108q-115 80 -258 80q-207 0 -207 -160zM379 1663h207l106 -258h-176z" />
<glyph unicode="&#x1eb2;" horiz-adv-x="1560" d="M82 0l573 1432h252l572 -1432h-265l-131 330h-606l-129 -330h-266zM461 1821h184q0 -66 36 -102t99 -36t99 36t36 102h185q0 -137 -85.5 -219t-234.5 -82t-234 82t-85 219zM549 545h463l-232 608zM649 2009v100q71 23 148 23q92 0 145 -39t53 -104q0 -52 -34.5 -87.5 t-96.5 -46.5v-49h-162v103q61 0 89 14t28 49q0 31 -20.5 42t-65.5 11q-52 0 -84 -16z" />
<glyph unicode="&#x1eb3;" horiz-adv-x="1181" d="M82 313q0 164 106.5 256.5t298.5 92.5q186 0 322 -76v26q0 104 -65 151.5t-207 47.5q-189 0 -334 -66v203q62 28 165 47t199 19q256 0 379 -110t123 -304v-600h-244v96q-63 -62 -144 -94.5t-198 -32.5q-176 0 -288.5 93.5t-112.5 250.5zM287 1386h184q0 -66 35.5 -101.5 t99.5 -35.5t99.5 35.5t35.5 101.5h185q0 -137 -85.5 -219t-234.5 -82t-234 82t-85 219zM344 313q0 -77 52.5 -116t150.5 -39q85 0 155 33.5t107 93.5v108q-115 80 -258 80q-207 0 -207 -160zM475 1575v100q71 23 148 23q91 0 144.5 -39.5t53.5 -104.5q0 -52 -34.5 -87 t-96.5 -46v-49h-162v103q61 0 89 14t28 49q0 31 -20.5 42t-65.5 11q-52 0 -84 -16z" />
<glyph unicode="&#x1eb4;" horiz-adv-x="1560" d="M82 0l573 1432h252l572 -1432h-265l-131 330h-606l-129 -330h-266zM461 1821h188q0 -65 33.5 -99t97.5 -34t97.5 34t33.5 99h189q0 -137 -85.5 -219t-234.5 -82t-234 82t-85 219zM465 1896v183q49 71 160 71q51 0 159 -44t156 -44q99 0 160 86v-184q-50 -70 -160 -70 q-57 0 -163 44t-152 44q-96 0 -160 -86zM549 545h463l-232 608z" />
<glyph unicode="&#x1eb5;" horiz-adv-x="1181" d="M82 313q0 164 106.5 256.5t298.5 92.5q186 0 322 -76v26q0 104 -65 151.5t-207 47.5q-189 0 -334 -66v203q62 28 165 47t199 19q256 0 379 -110t123 -304v-600h-244v96q-63 -62 -144 -94.5t-198 -32.5q-176 0 -288.5 93.5t-112.5 250.5zM324 1397h188q0 -65 34 -99 t97 -34t97 34t34 99h189q0 -137 -85.5 -219t-234.5 -82t-234 82t-85 219zM328 1473v182q49 71 159 71q51 0 159 -44t157 -44q99 0 160 86v-184q-50 -70 -160 -70q-57 0 -163.5 44.5t-152.5 44.5q-95 0 -159 -86zM344 313q0 -77 52.5 -116t150.5 -39q85 0 155 33.5t107 93.5 v108q-115 80 -258 80q-207 0 -207 -160z" />
<glyph unicode="&#x1eb6;" horiz-adv-x="1560" d="M82 0l573 1432h252l572 -1432h-265l-131 330h-606l-129 -330h-266zM451 1829h194q0 -67 35 -102t100 -35t100 35t35 102h195q0 -140 -88.5 -224.5t-241.5 -84.5t-241 84.5t-88 224.5zM549 545h463l-232 608zM645 -231q0 57 40.5 97t96.5 40t96 -40t40 -97t-40 -96.5 t-96 -39.5t-96.5 39.5t-40.5 96.5z" />
<glyph unicode="&#x1eb7;" horiz-adv-x="1181" d="M82 313q0 164 106.5 256.5t298.5 92.5q186 0 322 -76v26q0 104 -65 151.5t-207 47.5q-189 0 -334 -66v203q62 28 165 47t199 19q256 0 379 -110t123 -304v-600h-244v96q-63 -62 -144 -94.5t-198 -32.5q-176 0 -288.5 93.5t-112.5 250.5zM281 1405h194q0 -67 35 -102 t100 -35t100 35t35 102h195q0 -140 -88.5 -224.5t-241.5 -84.5t-241 84.5t-88 224.5zM344 313q0 -77 52.5 -116t150.5 -39q85 0 155 33.5t107 93.5v108q-115 80 -258 80q-207 0 -207 -160zM455 -231q0 57 40.5 97t96.5 40t95.5 -40t39.5 -97t-39.5 -96.5t-95.5 -39.5 t-96.5 39.5t-40.5 96.5z" />
<glyph unicode="&#x1eb8;" horiz-adv-x="1173" d="M123 0v1432h969v-215h-709v-394h526v-215h-526v-393h709v-215h-969zM463 -231q0 57 40.5 97t96.5 40t95.5 -40t39.5 -97t-39.5 -96.5t-95.5 -39.5t-96.5 39.5t-40.5 96.5z" />
<glyph unicode="&#x1eb9;" horiz-adv-x="1247" d="M82 489q0 241 141.5 383t403.5 142q130 0 233 -38.5t169 -107t101 -159.5t35 -199v-119h-837q25 -219 381 -219q206 0 364 61v-198q-69 -28 -179 -47t-218 -19q-275 0 -434.5 137t-159.5 383zM328 567h594q-4 118 -82.5 181t-216.5 63q-134 0 -212 -65.5t-83 -178.5z M524 -231q0 57 41 97t97 40t95.5 -40t39.5 -97t-39.5 -96.5t-95.5 -39.5t-97 40t-41 96z" />
<glyph unicode="&#x1eba;" horiz-adv-x="1173" d="M123 0v1432h969v-215h-709v-394h526v-215h-526v-393h709v-215h-969zM401 1823v135q97 29 201 29q141 0 214 -55.5t73 -149.5q0 -75 -49 -127.5t-138 -65.5v-69h-225v151q92 0 139.5 22.5t47.5 78.5q0 40 -29 57.5t-98 17.5q-26 0 -71.5 -7.5t-64.5 -16.5z" />
<glyph unicode="&#x1ebb;" horiz-adv-x="1247" d="M82 489q0 241 141.5 383t403.5 142q130 0 233 -38.5t169 -107t101 -159.5t35 -199v-119h-837q25 -219 381 -219q206 0 364 61v-198q-69 -28 -179 -47t-218 -19q-275 0 -434.5 137t-159.5 383zM328 567h594q-4 118 -82.5 181t-216.5 63q-134 0 -212 -65.5t-83 -178.5z M446 1399v135q97 29 201 29q141 0 214 -55.5t73 -149.5q0 -75 -48.5 -127.5t-137.5 -65.5v-69h-226v151q92 0 139.5 22.5t47.5 78.5q0 40 -29 57.5t-98 17.5q-26 0 -71.5 -7.5t-64.5 -16.5z" />
<glyph unicode="&#x1ebc;" horiz-adv-x="1173" d="M123 0v1432h969v-215h-709v-394h526v-215h-526v-393h709v-215h-969zM205 1520v211q66 88 205 88q70 0 195.5 -51.5t191.5 -51.5q127 0 204 105v-211q-64 -86 -204 -86q-63 0 -132.5 25.5t-135 51t-119.5 25.5q-124 0 -205 -106z" />
<glyph unicode="&#x1ebd;" horiz-adv-x="1247" d="M82 489q0 241 141.5 383t403.5 142q130 0 233 -38.5t169 -107t101 -159.5t35 -199v-119h-837q25 -219 381 -219q206 0 364 61v-198q-69 -28 -179 -47t-218 -19q-275 0 -434.5 137t-159.5 383zM254 1096v211q66 88 205 88q70 0 195.5 -51.5t191.5 -51.5q128 0 205 105 v-211q-64 -86 -205 -86q-63 0 -132.5 25.5t-135 51t-119.5 25.5q-124 0 -205 -106zM328 567h594q-4 118 -82.5 181t-216.5 63q-134 0 -212 -65.5t-83 -178.5z" />
<glyph unicode="&#x1ebe;" horiz-adv-x="1153" d="M123 0v1432h969v-215h-709v-394h526v-215h-526v-393h709v-215h-969zM176 1520l285 311h217l283 -311h-244l-148 172l-147 -172h-246zM848 1722l125 263h239l-157 -263h-207z" />
<glyph unicode="&#x1ebf;" horiz-adv-x="1247" d="M82 489q0 241 141.5 383t403.5 142q130 0 233 -38.5t169 -107t101 -159.5t35 -199v-119h-837q25 -219 381 -219q206 0 364 61v-198q-69 -28 -179 -47t-218 -19q-275 0 -434.5 137t-159.5 383zM248 1096l284 311h218l282 -311h-244l-147 172l-147 -172h-246zM328 567h594 q-4 118 -82.5 181t-216.5 63q-134 0 -212 -65.5t-83 -178.5zM920 1298l124 263h240l-158 -263h-206z" />
<glyph unicode="&#x1ec0;" horiz-adv-x="1153" d="M-31 1985h240l125 -263h-207zM123 0v1432h969v-215h-709v-394h526v-215h-526v-393h709v-215h-969zM221 1520l283 311h217l285 -311h-246l-148 172l-147 -172h-244z" />
<glyph unicode="&#x1ec1;" horiz-adv-x="1247" d="M6 1561h240l125 -263h-207zM82 489q0 241 141.5 383t403.5 142q130 0 233 -38.5t169 -107t101 -159.5t35 -199v-119h-837q25 -219 381 -219q206 0 364 61v-198q-69 -28 -179 -47t-218 -19q-275 0 -434.5 137t-159.5 383zM258 1096l283 311h217l284 -311h-245l-148 172 l-147 -172h-244zM328 567h594q-4 118 -82.5 181t-216.5 63q-134 0 -212 -65.5t-83 -178.5z" />
<glyph unicode="&#x1ec2;" horiz-adv-x="1153" d="M123 0v1432h969v-215h-709v-394h526v-215h-526v-393h709v-215h-969zM215 1520l285 311h217l282 -311h-243l-148 172l-147 -172h-246zM834 1903v100q68 22 147 22q92 0 145.5 -39t53.5 -104q0 -52 -34.5 -87t-96.5 -46v-49h-162v102q61 0 89 14t28 50q0 31 -20.5 42 t-65.5 11q-52 0 -84 -16z" />
<glyph unicode="&#x1ec3;" horiz-adv-x="1247" d="M82 489q0 241 141.5 383t403.5 142q130 0 233 -38.5t169 -107t101 -159.5t35 -199v-119h-837q25 -219 381 -219q206 0 364 61v-198q-69 -28 -179 -47t-218 -19q-275 0 -434.5 137t-159.5 383zM238 1096l284 311h217l283 -311h-244l-147 172l-148 -172h-245zM328 567h594 q-4 118 -82.5 181t-216.5 63q-134 0 -212 -65.5t-83 -178.5zM856 1479v100q71 23 148 23q91 0 144.5 -39.5t53.5 -104.5q0 -52 -34.5 -87t-96.5 -46v-49h-162v102q61 0 89 14t28 50q0 31 -20.5 42t-65.5 11q-52 0 -84 -16z" />
<glyph unicode="&#x1ec4;" horiz-adv-x="1173" d="M123 0v1432h969v-215h-709v-394h526v-215h-526v-393h709v-215h-969zM221 1520l285 311h217l283 -311h-244l-148 172l-147 -172h-246zM303 1858v182q49 71 160 71q51 0 159 -44t156 -44q99 0 160 86v-184q-50 -70 -160 -70q-57 0 -163 44.5t-152 44.5q-96 0 -160 -86z" />
<glyph unicode="&#x1ec5;" horiz-adv-x="1247" d="M82 489q0 241 141.5 383t403.5 142q130 0 233 -38.5t169 -107t101 -159.5t35 -199v-119h-837q25 -219 381 -219q206 0 364 61v-198q-69 -28 -179 -47t-218 -19q-275 0 -434.5 137t-159.5 383zM231 1096l285 311h217l283 -311h-244l-147 172l-148 -172h-246zM313 1434v182 q49 72 160 72q51 0 159 -44.5t156 -44.5q98 0 160 87v-185q-49 -69 -160 -69q-57 0 -163 44t-152 44q-96 0 -160 -86zM328 567h594q-4 118 -82.5 181t-216.5 63q-134 0 -212 -65.5t-83 -178.5z" />
<glyph unicode="&#x1ec6;" horiz-adv-x="1177" d="M127 0v1432h969v-215h-709v-394h526v-215h-526v-393h709v-215h-969zM184 1520l301 350h230l299 -350h-258l-156 202l-156 -202h-260zM465 -231q0 57 40.5 97t96.5 40t95.5 -40t39.5 -97t-39.5 -96.5t-95.5 -39.5t-96.5 39.5t-40.5 96.5z" />
<glyph unicode="&#x1ec7;" horiz-adv-x="1247" d="M82 489q0 241 141.5 383t403.5 142q130 0 233 -38.5t169 -107t101 -159.5t35 -199v-119h-837q25 -219 381 -219q206 0 364 61v-198q-69 -28 -179 -47t-218 -19q-275 0 -434.5 137t-159.5 383zM225 1096l301 350h230l299 -350h-258l-156 202l-156 -202h-260zM328 567h594 q-4 118 -82.5 181t-216.5 63q-134 0 -212 -65.5t-83 -178.5zM504 -231q0 57 40.5 97t96.5 40t95.5 -40t39.5 -97t-39.5 -96.5t-95.5 -39.5t-96.5 39.5t-40.5 96.5z" />
<glyph unicode="&#x1ec8;" horiz-adv-x="518" d="M68 1823v135q97 29 200 29q141 0 214 -55.5t73 -149.5q0 -75 -48.5 -127.5t-137.5 -65.5v-69h-226v151q92 0 139.5 22.5t47.5 78.5q0 40 -29 57.5t-98 17.5q-26 0 -71 -7.5t-64 -16.5zM129 0v1432h260v-1432h-260z" />
<glyph unicode="&#x1ec9;" horiz-adv-x="507" d="M66 1399v135q97 29 200 29q141 0 214 -55.5t73 -149.5q0 -75 -48.5 -127.5t-137.5 -65.5v-69h-226v151q92 0 139.5 22.5t47.5 78.5q0 40 -29 57.5t-98 17.5q-26 0 -71 -7.5t-64 -16.5zM123 0v983h262v-983h-262z" />
<glyph unicode="&#x1eca;" horiz-adv-x="518" d="M123 -231q0 57 40.5 97t96.5 40t95.5 -40t39.5 -97t-39.5 -96.5t-95.5 -39.5t-96.5 39.5t-40.5 96.5zM129 0v1432h260v-1432h-260z" />
<glyph unicode="&#x1ecb;" horiz-adv-x="538" d="M123 1298q0 62 42 104t103 42q62 0 105 -42.5t43 -103.5t-43 -102t-105 -41t-103.5 41t-41.5 102zM133 -231q0 57 40.5 97t96.5 40t96 -40t40 -97t-40 -96.5t-96 -39.5t-96.5 39.5t-40.5 96.5zM137 0v983h262v-983h-262z" />
<glyph unicode="&#x1ecc;" horiz-adv-x="1681" d="M82 715q0 165 58.5 305.5t160 237t241.5 150.5t300 54q213 0 385 -92t272 -263.5t100 -391.5q0 -219 -100 -390t-272 -263.5t-385 -92.5q-160 0 -300 54.5t-241.5 151t-160 236.5t-58.5 304zM344 715q0 -153 67.5 -270.5t180 -178.5t250.5 -61q137 0 248.5 61t179 178.5 t67.5 270.5q0 152 -66.5 269t-178.5 179t-250 62q-140 0 -252.5 -62t-179 -179t-66.5 -269zM705 -231q0 57 40.5 97t96.5 40t95.5 -40t39.5 -97t-39.5 -96.5t-95.5 -39.5t-96.5 39.5t-40.5 96.5z" />
<glyph unicode="&#x1ecd;" horiz-adv-x="1314" d="M82 492q0 238 157 380t418 142q260 0 418 -142.5t158 -379.5q0 -244 -157 -383.5t-419 -139.5t-418.5 139.5t-156.5 383.5zM348 492q0 -141 84 -230.5t225 -89.5t225.5 89.5t84.5 230.5q0 150 -83.5 234.5t-226.5 84.5t-226 -84.5t-83 -234.5zM522 -231q0 57 40.5 97 t96.5 40t96 -40t40 -97t-40 -96.5t-96 -39.5t-96.5 39.5t-40.5 96.5z" />
<glyph unicode="&#x1ece;" horiz-adv-x="1681" d="M82 715q0 165 58.5 305.5t160 237t241.5 150.5t300 54q213 0 385 -92t272 -263.5t100 -391.5q0 -219 -100 -390t-272 -263.5t-385 -92.5q-160 0 -300 54.5t-241.5 151t-160 236.5t-58.5 304zM344 715q0 -153 67.5 -270.5t180 -178.5t250.5 -61q137 0 248.5 61t179 178.5 t67.5 270.5q0 152 -66.5 269t-178.5 179t-250 62q-140 0 -252.5 -62t-179 -179t-66.5 -269zM643 1823v135q97 29 201 29q140 0 213 -55.5t73 -149.5q0 -75 -48.5 -127.5t-137.5 -65.5v-69h-225v151q92 0 139 22.5t47 78.5q0 40 -29 57.5t-98 17.5q-26 0 -71 -7.5t-64 -16.5z " />
<glyph unicode="&#x1ecf;" horiz-adv-x="1314" d="M82 492q0 238 157 380t418 142q260 0 418 -142.5t158 -379.5q0 -244 -157 -383.5t-419 -139.5t-418.5 139.5t-156.5 383.5zM348 492q0 -141 84 -230.5t225 -89.5t225.5 89.5t84.5 230.5q0 150 -83.5 234.5t-226.5 84.5t-226 -84.5t-83 -234.5zM475 1399v135q97 29 201 29 q141 0 214 -55.5t73 -149.5q0 -75 -49 -127.5t-138 -65.5v-69h-225v151q92 0 139 22.5t47 78.5q0 40 -29 57.5t-98 17.5q-26 0 -71 -7.5t-64 -16.5z" />
<glyph unicode="&#x1ed0;" horiz-adv-x="1681" d="M82 715q0 165 58.5 305.5t160 237t241.5 150.5t300 54q213 0 385 -92t272 -263.5t100 -391.5q0 -219 -100 -390t-272 -263.5t-385 -92.5q-160 0 -300 54.5t-241.5 151t-160 236.5t-58.5 304zM344 715q0 -153 67.5 -270.5t180 -178.5t250.5 -61q137 0 248.5 61t179 178.5 t67.5 270.5q0 152 -66.5 269t-178.5 179t-250 62q-140 0 -252.5 -62t-179 -179t-66.5 -269zM475 1520l285 311h217l283 -311h-244l-148 172l-147 -172h-246zM1147 1722l125 263h239l-157 -263h-207z" />
<glyph unicode="&#x1ed1;" horiz-adv-x="1314" d="M82 492q0 238 157 380t418 142q260 0 418 -142.5t158 -379.5q0 -244 -157 -383.5t-419 -139.5t-418.5 139.5t-156.5 383.5zM264 1096l285 311h217l283 -311h-244l-148 172l-147 -172h-246zM348 492q0 -141 84 -230.5t225 -89.5t225.5 89.5t84.5 230.5q0 150 -83.5 234.5 t-226.5 84.5t-226 -84.5t-83 -234.5zM936 1298l125 263h239l-157 -263h-207z" />
<glyph unicode="&#x1ed2;" horiz-adv-x="1681" d="M82 715q0 165 58.5 305.5t160 237t241.5 150.5t300 54q213 0 385 -92t272 -263.5t100 -391.5q0 -219 -100 -390t-272 -263.5t-385 -92.5q-160 0 -300 54.5t-241.5 151t-160 236.5t-58.5 304zM209 1985h240l124 -263h-206zM344 715q0 -153 67.5 -270.5t180 -178.5 t250.5 -61q137 0 248.5 61t179 178.5t67.5 270.5q0 152 -66.5 269t-178.5 179t-250 62q-140 0 -252.5 -62t-179 -179t-66.5 -269zM461 1520l282 311h218l284 -311h-246l-147 172l-147 -172h-244z" />
<glyph unicode="&#x1ed3;" horiz-adv-x="1314" d="M29 1561h239l125 -263h-207zM82 492q0 238 157 380t418 142q260 0 418 -142.5t158 -379.5q0 -244 -157 -383.5t-419 -139.5t-418.5 139.5t-156.5 383.5zM281 1096l282 311h217l285 -311h-246l-147 172l-148 -172h-243zM348 492q0 -141 84 -230.5t225 -89.5t225.5 89.5 t84.5 230.5q0 150 -83.5 234.5t-226.5 84.5t-226 -84.5t-83 -234.5z" />
<glyph unicode="&#x1ed4;" horiz-adv-x="1681" d="M82 715q0 165 58.5 305.5t160 237t241.5 150.5t300 54q213 0 385 -92t272 -263.5t100 -391.5q0 -219 -100 -390t-272 -263.5t-385 -92.5q-160 0 -300 54.5t-241.5 151t-160 236.5t-58.5 304zM344 715q0 -153 67.5 -270.5t180 -178.5t250.5 -61q137 0 248.5 61t179 178.5 t67.5 270.5q0 152 -66.5 269t-178.5 179t-250 62q-140 0 -252.5 -62t-179 -179t-66.5 -269zM475 1520l285 311h217l283 -311h-244l-148 172l-147 -172h-246zM1094 1903v100q68 22 147 22q92 0 145.5 -39t53.5 -104q0 -52 -34.5 -87t-96.5 -46v-49h-162v102q61 0 89 14t28 50 q0 31 -20.5 42t-65.5 11q-52 0 -84 -16z" />
<glyph unicode="&#x1ed5;" horiz-adv-x="1314" d="M82 492q0 238 157 380t418 142q260 0 418 -142.5t158 -379.5q0 -244 -157 -383.5t-419 -139.5t-418.5 139.5t-156.5 383.5zM266 1096l285 311h217l283 -311h-244l-148 172l-147 -172h-246zM348 492q0 -141 84 -230.5t225 -89.5t225.5 89.5t84.5 230.5q0 150 -83.5 234.5 t-226.5 84.5t-226 -84.5t-83 -234.5zM885 1479v100q71 23 147 23q92 0 145.5 -39.5t53.5 -104.5q0 -52 -34.5 -87t-96.5 -46v-49h-162v102q61 0 89 14t28 50q0 31 -20.5 42t-65.5 11q-52 0 -84 -16z" />
<glyph unicode="&#x1ed6;" horiz-adv-x="1681" d="M82 715q0 165 58.5 305.5t160 237t241.5 150.5t300 54q213 0 385 -92t272 -263.5t100 -391.5q0 -219 -100 -390t-272 -263.5t-385 -92.5q-160 0 -300 54.5t-241.5 151t-160 236.5t-58.5 304zM344 715q0 -153 67.5 -270.5t180 -178.5t250.5 -61q137 0 248.5 61t179 178.5 t67.5 270.5q0 152 -66.5 269t-178.5 179t-250 62q-140 0 -252.5 -62t-179 -179t-66.5 -269zM520 1821h189q0 -65 33.5 -99t97.5 -34t97.5 34t33.5 99h188q0 -137 -85 -219t-234 -82t-234.5 82t-85.5 219zM524 1896v183q49 71 160 71q52 0 159 -44t156 -44q99 0 160 86v-184 q-50 -70 -160 -70q-57 0 -163 44t-152 44q-96 0 -160 -86z" />
<glyph unicode="&#x1ed7;" horiz-adv-x="1314" d="M82 492q0 238 157 380t418 142q260 0 418 -142.5t158 -379.5q0 -244 -157 -383.5t-419 -139.5t-418.5 139.5t-156.5 383.5zM338 1397h188q0 -65 34 -99t97 -34t97 34t34 99h189q0 -137 -85.5 -219t-234.5 -82t-234 82t-85 219zM342 1473v182q49 71 160 71q52 0 159.5 -44 t155.5 -44q99 0 160 86v-184q-50 -70 -160 -70q-57 0 -163 44.5t-152 44.5q-96 0 -160 -86zM348 492q0 -141 84 -230.5t225 -89.5t225.5 89.5t84.5 230.5q0 150 -83.5 234.5t-226.5 84.5t-226 -84.5t-83 -234.5z" />
<glyph unicode="&#x1ed8;" horiz-adv-x="1681" d="M82 715q0 165 58.5 305.5t160 237t241.5 150.5t300 54q213 0 385 -92t272 -263.5t100 -391.5q0 -219 -100 -390t-272 -263.5t-385 -92.5q-160 0 -300 54.5t-241.5 151t-160 236.5t-58.5 304zM344 715q0 -153 67.5 -270.5t180 -178.5t250.5 -61q137 0 248.5 61t179 178.5 t67.5 270.5q0 152 -66.5 269t-178.5 179t-250 62q-140 0 -252.5 -62t-179 -179t-66.5 -269zM426 1520l301 350h229l299 -350h-258l-155 202l-156 -202h-260zM707 -231q0 57 40.5 97t96.5 40t95.5 -40t39.5 -97t-39.5 -96.5t-95.5 -39.5t-96.5 39.5t-40.5 96.5z" />
<glyph unicode="&#x1ed9;" horiz-adv-x="1314" d="M82 492q0 238 157 380t418 142q260 0 418 -142.5t158 -379.5q0 -244 -157 -383.5t-419 -139.5t-418.5 139.5t-156.5 383.5zM244 1096l301 350h229l299 -350h-258l-156 202l-155 -202h-260zM348 492q0 -141 84 -230.5t225 -89.5t225.5 89.5t84.5 230.5q0 150 -83.5 234.5 t-226.5 84.5t-226 -84.5t-83 -234.5zM522 -231q0 57 40.5 97t96.5 40t96 -40t40 -97t-40 -96.5t-96 -39.5t-96.5 39.5t-40.5 96.5z" />
<glyph unicode="&#x1eda;" horiz-adv-x="1785" d="M82 715q0 165 58.5 305.5t160 237t241.5 150.5t300 54q302 0 510 -180q101 1 137.5 38.5t36.5 137.5v72h239v-86q0 -128 -69 -225t-189 -129q92 -165 92 -375q0 -219 -100 -390t-272 -263.5t-385 -92.5q-160 0 -300 54.5t-241.5 151t-160 236.5t-58.5 304zM356 715 q0 -149 66 -264t175.5 -174.5t244.5 -59.5q134 0 243 59.5t174.5 174.5t65.5 264q0 148 -64.5 262.5t-174 174.5t-244.5 60q-208 0 -347 -137t-139 -360zM729 1520l141 356h273l-176 -356h-238z" />
<glyph unicode="&#x1edb;" horiz-adv-x="1413" d="M82 492q0 238 157 380t418 142q232 0 387 -117q140 25 140 174v72h209v-86q0 -109 -58 -193.5t-161 -120.5q59 -115 59 -251q0 -244 -157 -383.5t-419 -139.5t-418.5 139.5t-156.5 383.5zM348 492q0 -141 84 -230.5t225 -89.5t225.5 89.5t84.5 230.5q0 150 -83.5 234.5 t-226.5 84.5t-226 -84.5t-83 -234.5zM522 1096l142 356h272l-176 -356h-238z" />
<glyph unicode="&#x1edc;" horiz-adv-x="1785" d="M82 715q0 165 58.5 305.5t160 237t241.5 150.5t300 54q302 0 510 -180q101 1 137.5 38.5t36.5 137.5v72h239v-86q0 -128 -69 -225t-189 -129q92 -165 92 -375q0 -219 -100 -390t-272 -263.5t-385 -92.5q-160 0 -300 54.5t-241.5 151t-160 236.5t-58.5 304zM356 715 q0 -149 66 -264t175.5 -174.5t244.5 -59.5q134 0 243 59.5t174.5 174.5t65.5 264q0 148 -64.5 262.5t-174 174.5t-244.5 60q-208 0 -347 -137t-139 -360zM526 1876h273l141 -356h-238z" />
<glyph unicode="&#x1edd;" horiz-adv-x="1413" d="M82 492q0 238 157 380t418 142q232 0 387 -117q140 25 140 174v72h209v-86q0 -109 -58 -193.5t-161 -120.5q59 -115 59 -251q0 -244 -157 -383.5t-419 -139.5t-418.5 139.5t-156.5 383.5zM348 492q0 -141 84 -230.5t225 -89.5t225.5 89.5t84.5 230.5q0 150 -83.5 234.5 t-226.5 84.5t-226 -84.5t-83 -234.5zM352 1452h273l141 -356h-238z" />
<glyph unicode="&#x1ede;" horiz-adv-x="1785" d="M82 715q0 165 58.5 305.5t160 237t241.5 150.5t300 54q302 0 510 -180q101 1 137.5 38.5t36.5 137.5v72h239v-86q0 -128 -69 -225t-189 -129q92 -165 92 -375q0 -219 -100 -390t-272 -263.5t-385 -92.5q-160 0 -300 54.5t-241.5 151t-160 236.5t-58.5 304zM356 715 q0 -149 66 -264t175.5 -174.5t244.5 -59.5q134 0 243 59.5t174.5 174.5t65.5 264q0 148 -64.5 262.5t-174 174.5t-244.5 60q-208 0 -347 -137t-139 -360zM649 1823v135q97 29 201 29q141 0 214 -55.5t73 -149.5q0 -75 -49 -127.5t-138 -65.5v-69h-225v151q92 0 139 22.5 t47 78.5q0 40 -29 57.5t-98 17.5q-26 0 -71 -7.5t-64 -16.5z" />
<glyph unicode="&#x1edf;" horiz-adv-x="1413" d="M82 492q0 238 157 380t418 142q232 0 387 -117q140 25 140 174v72h209v-86q0 -109 -58 -193.5t-161 -120.5q59 -115 59 -251q0 -244 -157 -383.5t-419 -139.5t-418.5 139.5t-156.5 383.5zM348 492q0 -141 84 -230.5t225 -89.5t225.5 89.5t84.5 230.5q0 150 -83.5 234.5 t-226.5 84.5t-226 -84.5t-83 -234.5zM446 1399v135q97 29 201 29q141 0 214 -55.5t73 -149.5q0 -75 -48.5 -127.5t-137.5 -65.5v-69h-226v151q92 0 139.5 22.5t47.5 78.5q0 40 -29 57.5t-98 17.5q-26 0 -71.5 -7.5t-64.5 -16.5z" />
<glyph unicode="&#x1ee0;" horiz-adv-x="1785" d="M82 715q0 165 58.5 305.5t160 237t241.5 150.5t300 54q302 0 510 -180q101 1 137.5 38.5t36.5 137.5v72h239v-86q0 -128 -69 -225t-189 -129q92 -165 92 -375q0 -219 -100 -390t-272 -263.5t-385 -92.5q-160 0 -300 54.5t-241.5 151t-160 236.5t-58.5 304zM356 715 q0 -149 66 -264t175.5 -174.5t244.5 -59.5q134 0 243 59.5t174.5 174.5t65.5 264q0 148 -64.5 262.5t-174 174.5t-244.5 60q-208 0 -347 -137t-139 -360zM473 1520v211q66 88 205 88q70 0 195.5 -51.5t191.5 -51.5q128 0 205 105v-211q-64 -86 -205 -86q-63 0 -132.5 25.5 t-135 51t-119.5 25.5q-124 0 -205 -106z" />
<glyph unicode="&#x1ee1;" horiz-adv-x="1413" d="M82 492q0 238 157 380t418 142q232 0 387 -117q140 25 140 174v72h209v-86q0 -109 -58 -193.5t-161 -120.5q59 -115 59 -251q0 -244 -157 -383.5t-419 -139.5t-418.5 139.5t-156.5 383.5zM250 1122v211q66 88 205 88q70 0 195.5 -51t191.5 -51q129 0 205 104v-211 q-64 -86 -205 -86q-63 0 -132.5 26t-135 51.5t-119.5 25.5q-123 0 -205 -107zM348 492q0 -141 84 -230.5t225 -89.5t225.5 89.5t84.5 230.5q0 150 -83.5 234.5t-226.5 84.5t-226 -84.5t-83 -234.5z" />
<glyph unicode="&#x1ee2;" horiz-adv-x="1785" d="M82 715q0 165 58.5 305.5t160 237t241.5 150.5t300 54q302 0 510 -180q101 1 137.5 38.5t36.5 137.5v72h239v-86q0 -128 -69 -225t-189 -129q92 -165 92 -375q0 -219 -100 -390t-272 -263.5t-385 -92.5q-160 0 -300 54.5t-241.5 151t-160 236.5t-58.5 304zM356 715 q0 -149 66 -264t175.5 -174.5t244.5 -59.5q134 0 243 59.5t174.5 174.5t65.5 264q0 148 -64.5 262.5t-174 174.5t-244.5 60q-208 0 -347 -137t-139 -360zM692 -231q0 57 40.5 97t96.5 40t96 -40t40 -97t-40 -96.5t-96 -39.5t-96.5 39.5t-40.5 96.5z" />
<glyph unicode="&#x1ee3;" horiz-adv-x="1413" d="M82 492q0 238 157 380t418 142q232 0 387 -117q140 25 140 174v72h209v-86q0 -109 -58 -193.5t-161 -120.5q59 -115 59 -251q0 -244 -157 -383.5t-419 -139.5t-418.5 139.5t-156.5 383.5zM348 492q0 -141 84 -230.5t225 -89.5t225.5 89.5t84.5 230.5q0 150 -83.5 234.5 t-226.5 84.5t-226 -84.5t-83 -234.5zM510 -231q0 57 40.5 97t96.5 40t95.5 -40t39.5 -97t-39.5 -96.5t-95.5 -39.5t-96.5 39.5t-40.5 96.5z" />
<glyph unicode="&#x1ee4;" horiz-adv-x="1447" d="M113 557v875h260v-879q0 -169 95.5 -258.5t256.5 -89.5q160 0 255 89.5t95 258.5v879h260v-875q0 -271 -154 -429.5t-456 -158.5q-154 0 -271.5 42.5t-191.5 121t-111.5 185.5t-37.5 239zM588 -231q0 57 40.5 97t96.5 40t95.5 -40t39.5 -97t-39.5 -96.5t-95.5 -39.5 t-96.5 39.5t-40.5 96.5z" />
<glyph unicode="&#x1ee5;" horiz-adv-x="1249" d="M113 362v621h258v-596q0 -215 200 -215q87 0 165.5 42t131.5 126v643h258v-983h-249v133q-69 -84 -166 -124t-203 -40q-198 0 -296.5 107.5t-98.5 285.5zM475 -231q0 57 40.5 97t96.5 40t96 -40t40 -97t-40 -96.5t-96 -39.5t-96.5 39.5t-40.5 96.5z" />
<glyph unicode="&#x1ee6;" horiz-adv-x="1447" d="M113 557v875h260v-879q0 -169 95.5 -258.5t256.5 -89.5q160 0 255 89.5t95 258.5v879h260v-875q0 -271 -154 -429.5t-456 -158.5q-154 0 -271.5 42.5t-191.5 121t-111.5 185.5t-37.5 239zM514 1823v135q97 29 201 29q140 0 213 -55.5t73 -149.5q0 -75 -48.5 -127.5 t-137.5 -65.5v-69h-225v151q92 0 139 22.5t47 78.5q0 40 -29 57.5t-98 17.5q-26 0 -71 -7.5t-64 -16.5z" />
<glyph unicode="&#x1ee7;" horiz-adv-x="1249" d="M113 362v621h258v-596q0 -215 200 -215q87 0 165.5 42t131.5 126v643h258v-983h-249v133q-69 -84 -166 -124t-203 -40q-198 0 -296.5 107.5t-98.5 285.5zM410 1399v135q97 29 200 29q141 0 214 -55.5t73 -149.5q0 -75 -48.5 -127.5t-137.5 -65.5v-69h-226v151 q92 0 139.5 22.5t47.5 78.5q0 40 -29 57.5t-98 17.5q-26 0 -71 -7.5t-64 -16.5z" />
<glyph unicode="&#x1ee8;" horiz-adv-x="1765" d="M113 557v875h272v-879q0 -169 89.5 -252.5t250.5 -83.5q160 0 249 83.5t89 252.5v879h272v-152q100 0 135 38.5t35 139.5v72h240v-86q0 -78 -23 -143t-70.5 -115.5t-128.5 -79t-188 -29.5v-520q0 -271 -154 -429.5t-456 -158.5q-154 0 -271.5 42.5t-191.5 121 t-111.5 185.5t-37.5 239zM586 1520l141 356h272l-176 -356h-237z" />
<glyph unicode="&#x1ee9;" horiz-adv-x="1511" d="M113 362v621h258v-596q0 -215 200 -215q87 0 165.5 42t131.5 126v643h258v-92q77 7 116.5 51.5t39.5 120.5v80h209v-86q0 -142 -95.5 -235.5t-269.5 -100.5v-721h-249v133q-69 -84 -166 -124t-203 -40q-198 0 -296.5 107.5t-98.5 285.5zM479 1096l142 356h272l-176 -356 h-238z" />
<glyph unicode="&#x1eea;" horiz-adv-x="1765" d="M113 557v875h272v-879q0 -169 89.5 -252.5t250.5 -83.5q160 0 249 83.5t89 252.5v879h272v-152q100 0 135 38.5t35 139.5v72h240v-86q0 -78 -23 -143t-70.5 -115.5t-128.5 -79t-188 -29.5v-520q0 -271 -154 -429.5t-456 -158.5q-154 0 -271.5 42.5t-191.5 121 t-111.5 185.5t-37.5 239zM434 1876h273l141 -356h-238z" />
<glyph unicode="&#x1eeb;" horiz-adv-x="1511" d="M113 362v621h258v-596q0 -215 200 -215q87 0 165.5 42t131.5 126v643h258v-92q77 7 116.5 51.5t39.5 120.5v80h209v-86q0 -142 -95.5 -235.5t-269.5 -100.5v-721h-249v133q-69 -84 -166 -124t-203 -40q-198 0 -296.5 107.5t-98.5 285.5zM317 1452h273l141 -356h-237z" />
<glyph unicode="&#x1eec;" horiz-adv-x="1765" d="M113 557v875h272v-879q0 -169 89.5 -252.5t250.5 -83.5q160 0 249 83.5t89 252.5v879h272v-152q100 0 135 38.5t35 139.5v72h240v-86q0 -78 -23 -143t-70.5 -115.5t-128.5 -79t-188 -29.5v-520q0 -271 -154 -429.5t-456 -158.5q-154 0 -271.5 42.5t-191.5 121 t-111.5 185.5t-37.5 239zM526 1823v135q97 29 201 29q141 0 214 -55.5t73 -149.5q0 -75 -49 -127.5t-138 -65.5v-69h-225v151q92 0 139 22.5t47 78.5q0 40 -29 57.5t-97 17.5q-26 0 -71.5 -7.5t-64.5 -16.5z" />
<glyph unicode="&#x1eed;" horiz-adv-x="1511" d="M113 362v621h258v-596q0 -215 200 -215q87 0 165.5 42t131.5 126v643h258v-92q77 7 116.5 51.5t39.5 120.5v80h209v-86q0 -142 -95.5 -235.5t-269.5 -100.5v-721h-249v133q-69 -84 -166 -124t-203 -40q-198 0 -296.5 107.5t-98.5 285.5zM408 1399v135q97 29 200 29 q141 0 214 -55.5t73 -149.5q0 -75 -48.5 -127.5t-137.5 -65.5v-69h-226v151q92 0 139.5 22.5t47.5 78.5q0 40 -29 57.5t-98 17.5q-26 0 -71 -7.5t-64 -16.5z" />
<glyph unicode="&#x1eee;" horiz-adv-x="1765" d="M113 557v875h272v-879q0 -169 89.5 -252.5t250.5 -83.5q160 0 249 83.5t89 252.5v879h272v-152q100 0 135 38.5t35 139.5v72h240v-86q0 -78 -23 -143t-70.5 -115.5t-128.5 -79t-188 -29.5v-520q0 -271 -154 -429.5t-456 -158.5q-154 0 -271.5 42.5t-191.5 121 t-111.5 185.5t-37.5 239zM348 1520v211q66 88 205 88q70 0 195.5 -51.5t191.5 -51.5q128 0 205 105v-211q-64 -86 -205 -86q-63 0 -132.5 25.5t-135 51t-119.5 25.5q-124 0 -205 -106z" />
<glyph unicode="&#x1eef;" horiz-adv-x="1511" d="M113 362v621h258v-596q0 -215 200 -215q87 0 165.5 42t131.5 126v643h258v-92q77 7 116.5 51.5t39.5 120.5v80h209v-86q0 -142 -95.5 -235.5t-269.5 -100.5v-721h-249v133q-69 -84 -166 -124t-203 -40q-198 0 -296.5 107.5t-98.5 285.5zM229 1096v211q66 88 205 88 q70 0 195.5 -51.5t191.5 -51.5q128 0 205 105v-211q-64 -86 -205 -86q-63 0 -132.5 25.5t-135 51t-119.5 25.5q-124 0 -205 -106z" />
<glyph unicode="&#x1ef0;" horiz-adv-x="1765" d="M113 557v875h272v-879q0 -169 89.5 -252.5t250.5 -83.5q160 0 249 83.5t89 252.5v879h272v-152q100 0 135 38.5t35 139.5v72h240v-86q0 -78 -23 -143t-70.5 -115.5t-128.5 -79t-188 -29.5v-520q0 -271 -154 -429.5t-456 -158.5q-154 0 -271.5 42.5t-191.5 121 t-111.5 185.5t-37.5 239zM582 -231q0 57 40.5 97t96.5 40t95.5 -40t39.5 -97t-39.5 -96.5t-95.5 -39.5t-96.5 39.5t-40.5 96.5z" />
<glyph unicode="&#x1ef1;" horiz-adv-x="1511" d="M113 362v621h258v-596q0 -215 200 -215q87 0 165.5 42t131.5 126v643h258v-92q77 7 116.5 51.5t39.5 120.5v80h209v-86q0 -142 -95.5 -235.5t-269.5 -100.5v-721h-249v133q-69 -84 -166 -124t-203 -40q-198 0 -296.5 107.5t-98.5 285.5zM475 -231q0 57 40.5 97t96.5 40 t96 -40t40 -97t-40 -96.5t-96 -39.5t-96.5 39.5t-40.5 96.5z" />
<glyph unicode="&#x1ef2;" horiz-adv-x="1486" d="M94 1432h277l368 -637l379 637h275l-531 -887v-545h-248v545zM463 1876h272l142 -356h-238z" />
<glyph unicode="&#x1ef3;" horiz-adv-x="1228" d="M82 983h260l303 -717l285 717h258l-430 -1071q-65 -163 -159 -240.5t-241 -77.5q-126 0 -202 27v197q54 -21 127 -21q78 0 116.5 34.5t67.5 111.5l39 102zM352 1452h273l141 -356h-238z" />
<glyph unicode="&#x1ef4;" horiz-adv-x="1486" d="M94 1432h277l368 -637l379 637h275l-531 -887v-545h-248v545zM604 -231q0 57 40.5 97t96.5 40t96 -40t40 -97t-40 -96.5t-96 -39.5t-96.5 39.5t-40.5 96.5z" />
<glyph unicode="&#x1ef5;" horiz-adv-x="1228" d="M82 983h260l303 -717l285 717h258l-430 -1071q-65 -163 -159 -240.5t-241 -77.5q-126 0 -202 27v197q54 -21 127 -21q78 0 116.5 34.5t67.5 111.5l39 102zM805 -221q0 57 40.5 97t96.5 40t95.5 -40t39.5 -97t-39.5 -96t-95.5 -39t-96.5 39.5t-40.5 95.5z" />
<glyph unicode="&#x1ef6;" horiz-adv-x="1486" d="M94 1432h277l368 -637l379 637h275l-531 -887v-545h-248v545zM543 1823v135q97 29 200 29q141 0 214 -55.5t73 -149.5q0 -75 -48.5 -127.5t-137.5 -65.5v-69h-226v151q92 0 139.5 22.5t47.5 78.5q0 40 -29 57.5t-98 17.5q-26 0 -71 -7.5t-64 -16.5z" />
<glyph unicode="&#x1ef7;" horiz-adv-x="1228" d="M82 983h260l303 -717l285 717h258l-430 -1071q-65 -163 -159 -240.5t-241 -77.5q-126 0 -202 27v197q54 -21 127 -21q78 0 116.5 34.5t67.5 111.5l39 102zM438 1399v135q97 29 201 29q141 0 214 -55.5t73 -149.5q0 -75 -49 -127.5t-138 -65.5v-69h-225v151q92 0 139 22.5 t47 78.5q0 40 -29 57.5t-98 17.5q-26 0 -71 -7.5t-64 -16.5z" />
<glyph unicode="&#x1ef8;" horiz-adv-x="1486" d="M94 1432h277l368 -637l379 637h275l-531 -887v-545h-248v545zM342 1520v211q66 88 205 88q70 0 195.5 -51.5t191.5 -51.5q128 0 205 105v-211q-64 -86 -205 -86q-63 0 -132.5 25.5t-135 51t-119.5 25.5q-124 0 -205 -106z" />
<glyph unicode="&#x1ef9;" horiz-adv-x="1228" d="M82 983h260l303 -717l285 717h258l-430 -1071q-65 -163 -159 -240.5t-241 -77.5q-126 0 -202 27v197q54 -21 127 -21q78 0 116.5 34.5t67.5 111.5l39 102zM248 1096v211q66 88 205 88q70 0 195.5 -51.5t191.5 -51.5q127 0 204 105v-211q-64 -86 -204 -86 q-63 0 -132.5 25.5t-135 51t-119.5 25.5q-124 0 -205 -106z" />
<glyph unicode="&#x2000;" horiz-adv-x="1089" />
<glyph unicode="&#x2001;" horiz-adv-x="2179" />
<glyph unicode="&#x2002;" horiz-adv-x="1089" />
<glyph unicode="&#x2003;" horiz-adv-x="2179" />
<glyph unicode="&#x2004;" horiz-adv-x="726" />
<glyph unicode="&#x2005;" horiz-adv-x="544" />
<glyph unicode="&#x2006;" horiz-adv-x="363" />
<glyph unicode="&#x2007;" />
<glyph unicode="&#x2008;" horiz-adv-x="272" />
<glyph unicode="&#x2009;" horiz-adv-x="435" />
<glyph unicode="&#x200a;" horiz-adv-x="121" />
<glyph unicode="&#x2010;" horiz-adv-x="905" d="M82 489v207h741v-207h-741z" />
<glyph unicode="&#x2011;" horiz-adv-x="843" d="M82 510v207h680v-207h-680z" />
<glyph unicode="&#x2012;" horiz-adv-x="1409" d="M82 489v207h1245v-207h-1245z" />
<glyph unicode="&#x2013;" horiz-adv-x="1339" d="M82 510v207h1175v-207h-1175z" />
<glyph unicode="&#x2014;" horiz-adv-x="1630" d="M82 510v207h1466v-207h-1466z" />
<glyph unicode="&#x2015;" horiz-adv-x="2058" d="M82 489v207h1894v-207h-1894z" />
<glyph unicode="&#x2018;" horiz-adv-x="542" d="M82 1061l164 401h215l-133 -401h-246z" />
<glyph unicode="&#x2019;" horiz-adv-x="548" d="M82 1061l135 401h250l-164 -401h-221z" />
<glyph unicode="&#x201a;" horiz-adv-x="548" d="M82 -256l135 401h250l-164 -401h-221z" />
<glyph unicode="&#x201c;" horiz-adv-x="872" d="M82 1061l164 401h200l-135 -401h-229zM428 1061l164 401h199l-134 -401h-229z" />
<glyph unicode="&#x201d;" horiz-adv-x="872" d="M82 1061l135 401h229l-163 -401h-201zM428 1061l133 401h230l-164 -401h-199z" />
<glyph unicode="&#x201e;" horiz-adv-x="872" d="M82 -256l135 401h229l-163 -401h-201zM428 -256l133 401h230l-164 -401h-199z" />
<glyph unicode="&#x2020;" horiz-adv-x="1107" d="M82 860v215h342v357h260v-357h342v-215h-342v-1003h-260v1003h-342z" />
<glyph unicode="&#x2021;" horiz-adv-x="1105" d="M82 322v217h342v356h-342v217h342v320h258v-320h342v-217h-342v-356h342v-217h-342v-322h-258v322h-342z" />
<glyph unicode="&#x2022;" horiz-adv-x="544" d="M82 610q0 80 55.5 135.5t134.5 55.5q80 0 135.5 -55.5t55.5 -135.5q0 -79 -55.5 -134.5t-135.5 -55.5t-135 55t-55 135z" />
<glyph unicode="&#x2026;" horiz-adv-x="1193" d="M82 102q0 44 30.5 75.5t73.5 31.5t74 -31.5t31 -75.5q0 -42 -31 -72t-74 -30t-73.5 29.5t-30.5 72.5zM494 102q0 44 29.5 75.5t72.5 31.5q44 0 75 -31.5t31 -75.5q0 -43 -31 -72.5t-75 -29.5q-43 0 -72.5 29.5t-29.5 72.5zM903 102q0 44 31 75.5t74 31.5t73.5 -31.5 t30.5 -75.5q0 -43 -30.5 -72.5t-73.5 -29.5t-74 30t-31 72z" />
<glyph unicode="&#x202f;" horiz-adv-x="435" />
<glyph unicode="&#x2030;" horiz-adv-x="2641" d="M82 1085q0 157 109 267t266 110t267 -110t110 -267q0 -156 -110 -265t-267 -109t-266 108.5t-109 265.5zM268 1081q0 -79 54.5 -133.5t134.5 -54.5q81 0 135.5 54t54.5 134q0 82 -54 136.5t-136 54.5q-80 0 -134.5 -55t-54.5 -136zM385 0l793 1432h252l-793 -1432h-252z M979 344q0 157 109 267t266 110t267 -110t110 -267t-110 -266t-267 -109t-266 109t-109 266zM1163 340q0 -79 54.5 -133.5t134.5 -54.5q81 0 135.5 54t54.5 134q0 82 -54 136t-136 54q-80 0 -134.5 -54.5t-54.5 -135.5zM1808 344q0 157 109 267t266 110t267 -110t110 -267 t-110 -266t-267 -109t-266 109t-109 266zM1993 340q0 -80 54.5 -134t133.5 -54q82 0 136.5 54t54.5 134q0 82 -54.5 136t-136.5 54q-80 0 -134 -54.5t-54 -135.5z" />
<glyph unicode="&#x2032;" horiz-adv-x="358" d="M82 1036v396h194v-396h-194z" />
<glyph unicode="&#x2033;" horiz-adv-x="714" d="M82 1036v396h194v-396h-194zM438 1036v396h195v-396h-195z" />
<glyph unicode="&#x2039;" horiz-adv-x="778" d="M82 631v65l485 422l129 -162l-346 -292l346 -291l-129 -162z" />
<glyph unicode="&#x203a;" horiz-adv-x="778" d="M82 373l346 291l-346 292l129 162l485 -422v-65l-485 -420z" />
<glyph unicode="&#x2044;" horiz-adv-x="479" d="M-287 -31l789 1493h264l-789 -1493h-264z" />
<glyph unicode="&#x205f;" horiz-adv-x="544" />
<glyph unicode="&#x2070;" horiz-adv-x="825" d="M82 1094q0 166 88.5 262t243.5 96q153 0 241 -96t88 -262t-88 -262.5t-241 -96.5q-155 0 -243.5 96.5t-88.5 262.5zM254 1094q0 -100 43 -149.5t117 -49.5q72 0 113.5 49t41.5 150q0 100 -41.5 149t-113.5 49q-74 0 -117 -49t-43 -149z" />
<glyph unicode="&#x2074;" horiz-adv-x="684" d="M41 897v131l301 404h207v-396h94v-139h-94v-139h-193v139h-315zM221 1036h164v215z" />
<glyph unicode="&#x2075;" horiz-adv-x="710" d="M82 782v160q82 -49 197 -49q82 0 121.5 27.5t39.5 66.5q0 49 -37 70.5t-118 21.5q-78 0 -142 -22l-51 30l27 345h463v-148h-295l-6 -84q59 12 114 12q114 0 174 -57.5t60 -165.5q0 -114 -88 -183t-234 -69q-62 0 -124.5 12.5t-100.5 32.5z" />
<glyph unicode="&#x2076;" horiz-adv-x="755" d="M82 1049q0 194 98 298.5t260 104.5q95 0 138 -16v-131q-36 16 -121 16q-164 0 -195 -150q55 52 164 52q120 0 184 -64.5t64 -175.5q0 -108 -74.5 -177t-216.5 -69q-139 0 -220 82.5t-81 229.5zM266 979q0 -53 32 -85t85 -32q56 0 86.5 31.5t30.5 85.5t-30.5 85.5 t-86.5 31.5q-52 0 -84.5 -33t-32.5 -84z" />
<glyph unicode="&#x2077;" horiz-adv-x="653" d="M61 1284v148h531v-107l-258 -567h-191l240 526h-322z" />
<glyph unicode="&#x2078;" horiz-adv-x="753" d="M82 942q0 63 33.5 107.5t85.5 58.5q-95 47 -95 149q0 92 73 143.5t198 51.5t197.5 -51t72.5 -144q0 -103 -94 -149q52 -14 85.5 -58.5t33.5 -107.5q0 -97 -76.5 -151t-218.5 -54t-218.5 54t-76.5 151zM266 952q0 -43 30.5 -68.5t80.5 -25.5t80 25.5t30 68.5 q0 45 -29.5 72t-80.5 27t-81 -27t-30 -72zM283 1247q0 -37 26 -61.5t68 -24.5t68 24.5t26 61.5q0 36 -27 60t-67 24t-67 -24t-27 -60z" />
<glyph unicode="&#x2079;" horiz-adv-x="755" d="M82 1206q0 108 74.5 177t216.5 69q139 0 220 -82t81 -229q0 -194 -98.5 -299t-260.5 -105q-91 0 -137 17v131q38 -17 121 -17q164 0 195 150q-54 -51 -164 -51q-121 0 -184.5 64t-63.5 175zM256 1210q0 -53 30.5 -84.5t86.5 -31.5q52 0 84 32.5t32 83.5q0 53 -32 85 t-84 32q-56 0 -86.5 -31.5t-30.5 -85.5z" />
<glyph unicode="&#x207d;" horiz-adv-x="479" d="M82 1094q0 218 115 358h200q-118 -148 -118 -358q0 -209 118 -357h-200q-55 66 -85 159t-30 198z" />
<glyph unicode="&#x207e;" horiz-adv-x="479" d="M82 737q119 150 119 357q0 208 -119 358h201q114 -139 114 -358q0 -221 -114 -357h-201z" />
<glyph unicode="&#x207f;" horiz-adv-x="917" d="M92 737v695h189v-86q99 116 264 116q147 0 219 -73.5t72 -200.5v-451h-195v418q0 75 -34.5 114.5t-114.5 39.5q-130 0 -205 -119v-453h-195z" />
<glyph unicode="&#x2080;" horiz-adv-x="825" d="M82 10q0 166 88.5 262.5t243.5 96.5q153 0 241 -96.5t88 -262.5t-88 -262t-241 -96q-155 0 -243.5 96t-88.5 262zM254 10q0 -100 43 -149t117 -49q72 0 113.5 49t41.5 149q0 101 -41.5 150t-113.5 49q-74 0 -117 -49.5t-43 -149.5z" />
<glyph unicode="&#x2081;" horiz-adv-x="483" d="M82 33v176l186 137h174v-674h-192v482z" />
<glyph unicode="&#x2082;" horiz-adv-x="700" d="M82 -209l135 113q125 102 156 136q45 50 45 93q0 72 -92 72q-49 0 -112.5 -19.5t-102.5 -46.5v166q39 25 104 42.5t123 17.5q136 0 204 -63t68 -159q0 -31 -8.5 -58t-17 -44t-37 -45.5t-42 -40.5t-59.5 -51l-102 -86h274v-148h-536v121z" />
<glyph unicode="&#x2083;" horiz-adv-x="710" d="M82 -164q85 -43 211 -43q135 0 135 76q0 39 -31 56.5t-102 17.5h-100v139h98q117 0 117 68q0 34 -33 53.5t-94 19.5q-95 0 -187 -53v145q96 52 244 52q128 0 199 -52.5t71 -144.5q0 -110 -102 -158q121 -33 121 -157q0 -94 -77.5 -148.5t-217.5 -54.5q-161 0 -252 39v145 z" />
<glyph unicode="&#x2084;" horiz-adv-x="684" d="M41 -57l301 403h207v-395h94v-139h-94v-140h-193v140h-315v131zM221 -49h164v215z" />
<glyph unicode="&#x2085;" horiz-adv-x="712" d="M82 -141q82 -49 197 -49q81 0 120 27t39 67q0 49 -36 68.5t-117 19.5q-75 0 -142 -23l-51 31l27 346h463v-147h-295l-6 -84q59 12 114 12q114 0 175 -58t61 -165q0 -114 -89 -183t-235 -69q-62 0 -124.5 12.5t-100.5 32.5v162z" />
<glyph unicode="&#x2086;" horiz-adv-x="755" d="M82 -37q0 194 98 299t260 105q92 0 138 -17v-131q-38 17 -121 17q-164 0 -195 -150q54 51 164 51q121 0 184.5 -64t63.5 -175q0 -108 -74.5 -177t-216.5 -69q-139 0 -220 82t-81 229zM266 -106q0 -52 32 -84.5t85 -32.5q56 0 86.5 31.5t30.5 85.5q0 53 -30.5 84.5 t-86.5 31.5q-52 0 -84.5 -32.5t-32.5 -83.5z" />
<glyph unicode="&#x2087;" horiz-adv-x="653" d="M61 199v147h531v-106l-258 -568h-191l240 527h-322z" />
<glyph unicode="&#x2088;" horiz-adv-x="753" d="M82 -143q0 63 33.5 107.5t85.5 58.5q-95 47 -95 149q0 92 73 143.5t198 51.5t197.5 -51t72.5 -144q0 -103 -94 -149q52 -14 85.5 -58.5t33.5 -107.5q0 -97 -76.5 -151t-218.5 -54t-218.5 54t-76.5 151zM266 -133q0 -43 30.5 -68.5t80.5 -25.5t80 25.5t30 68.5 q0 45 -29.5 71.5t-80.5 26.5t-81 -27t-30 -71zM283 162q0 -37 26 -61.5t68 -24.5t68 24.5t26 61.5q0 36 -27 60t-67 24t-67 -24t-27 -60z" />
<glyph unicode="&#x2089;" horiz-adv-x="755" d="M82 121q0 108 74.5 177t216.5 69q139 0 220 -82.5t81 -229.5q0 -194 -98.5 -298.5t-260.5 -104.5q-94 0 -137 16v131q36 -16 121 -16q165 0 195 149q-54 -51 -164 -51q-120 0 -184 64.5t-64 175.5zM256 125q0 -54 30.5 -85.5t86.5 -31.5q52 0 84 33t32 84q0 53 -32 85 t-84 32q-56 0 -86.5 -31.5t-30.5 -85.5z" />
<glyph unicode="&#x208d;" horiz-adv-x="479" d="M82 -12q0 218 115 358h200q-118 -148 -118 -358q0 -209 118 -357h-200q-55 66 -85 159t-30 198z" />
<glyph unicode="&#x208e;" horiz-adv-x="479" d="M82 346h201q114 -139 114 -358q0 -221 -114 -357h-201q119 150 119 357q0 208 -119 358z" />
<glyph unicode="&#x20a1;" horiz-adv-x="1441" d="M82 715q0 314 183.5 513.5t486.5 227.5l55 150h221l-55 -150q32 -4 100 -16l62 166h221l-88 -240q25 -13 75 -45v-248q-59 51 -149 92l-352 -960h28q151 0 270 38t220 122v-248q-189 -148 -512 -148q-32 0 -90 4l-47 -127h-222l62 170q-20 6 -92 39l-76 -209h-221 l123 334q-203 203 -203 535zM344 715q0 -136 47 -242l262 717q-146 -52 -227.5 -174t-81.5 -301zM547 293q46 -31 88 -47l356 973q-3 0 -102 6z" />
<glyph unicode="&#x20a4;" horiz-adv-x="1007" d="M82 0v215h162v129h-152v215h152v131h-152v215h152v166q0 125 58.5 215t153.5 133t214 43q99 0 172 -28v-209q-56 24 -121 24q-100 0 -158.5 -50.5t-58.5 -145.5v-148h334v-215h-334v-131h334v-215h-334v-129h422v-215h-844z" />
<glyph unicode="&#x20a6;" horiz-adv-x="1464" d="M82 395v199h141v246h-141v207h141v385h246l512 -971v971h260v-385h141v-207h-141v-246h141v-199h-141v-395h-246l-512 973v-973h-260v395h-141z" />
<glyph unicode="&#x20a7;" horiz-adv-x="2691" d="M123 0v1432h465q240 0 372 -112t132 -337h122v295h259v-295h215v-197h-215v-440q0 -94 35 -134t126 -40q33 0 78.5 15t75.5 38q161 -53 371 -53q98 0 143 17.5t45 64.5q0 52 -51 79.5t-209 72.5q-180 50 -258 117t-78 194q0 148 116.5 222.5t315.5 74.5q102 0 203.5 -20 t159.5 -54v-211q-61 37 -150 59.5t-180 22.5q-100 0 -151.5 -19.5t-51.5 -74.5q0 -49 50 -74t186 -61q6 -1 9.5 -2t9 -2.5t9.5 -2.5q188 -50 260 -120.5t72 -196.5q0 -132 -111 -210.5t-323 -78.5q-95 0 -202.5 15t-184.5 45q-42 -26 -108.5 -43t-135.5 -17 q-161 0 -245.5 90t-84.5 254v473h-157q-97 -243 -469 -243h-205v-543h-260zM383 737h166q63 0 111.5 11.5t88.5 38.5t61 76.5t21 119.5q0 64 -17.5 110.5t-46 73t-73 42.5t-88.5 21t-102 5h-121v-498z" />
<glyph unicode="&#x20ab;" horiz-adv-x="1382" d="M82 489q0 233 145 379t373 146q242 0 381 -127v260h-373v194h373v172h258v-172h102v-194h-102v-1147h-250v115q-85 -78 -175 -112t-214 -34q-228 0 -373 143t-145 377zM254 -178h983v-195h-983v195zM344 489q0 -141 90.5 -229t229.5 -88q110 0 196 59.5t121 159.5v199 q-32 100 -119.5 160.5t-197.5 60.5q-139 0 -229.5 -90t-90.5 -232z" />
<glyph unicode="&#x20ac;" horiz-adv-x="1380" d="M61 426v197h127q-4 29 -4 92q0 61 4 92h-127v197h168q72 215 247 336.5t413 121.5q133 0 232 -29.5t182 -91.5v-247q-84 70 -177 100.5t-215 30.5q-293 0 -407 -221h317v-197h-370q-5 -39 -5 -92q0 -19 5 -92h370v-197h-317q113 -221 407 -221q131 0 223.5 30t184.5 109 v-248q-79 -70 -181 -98.5t-249 -28.5q-238 0 -413 121t-247 336h-168z" />
<glyph unicode="&#x20b1;" horiz-adv-x="1323" d="M41 776v154h82v69h-82v156h82v277h573q177 0 304.5 -72.5t181.5 -204.5h100v-156h-68q3 -18 3 -34q0 -20 -3 -35h68v-154h-98q-53 -134 -180 -203t-310 -69h-311v-504h-260v776h-82zM383 711h281q150 0 223 65h-504v-65zM383 930h580q0 5 1 17t1 18q0 22 -2 34h-580v-69z M383 1155h506q-79 70 -225 70h-281v-70z" />
<glyph unicode="&#x20b2;" horiz-adv-x="1460" d="M82 715q0 298 166 494t446 241v192h221v-182q252 -12 426 -135v-248q-160 137 -426 146v-439h463v-667q-172 -134 -463 -146v-182h-221v193q-280 43 -446 238.5t-166 494.5zM344 715q0 -188 94.5 -317.5t255.5 -174.5v975q-159 -47 -254.5 -174t-95.5 -309zM915 205 q124 10 203 51v322h-203v-373z" />
<glyph unicode="&#x20b5;" horiz-adv-x="1441" d="M82 715q0 308 176.5 505.5t470.5 233.5v188h221v-184q224 -20 393 -137v-248q-156 133 -393 148v-1014q240 18 410 158v-248q-158 -125 -410 -144v-184h-221v188q-294 34 -470.5 231.5t-176.5 506.5zM344 715q0 -196 103.5 -326.5t281.5 -169.5v991q-179 -39 -282 -169 t-103 -326z" />
<glyph unicode="&#x20b9;" horiz-adv-x="1017" d="M82 543v194h227q183 0 213 121h-440v215h440q-25 74 -69.5 109t-130.5 35h-240v215h854v-215h-258q30 -20 51.5 -62t28.5 -82h178v-215h-178q-23 -136 -126 -219t-290 -90l320 -549h-267z" />
<glyph unicode="&#x20ba;" horiz-adv-x="1273" d="M82 596v197l172 55v104l-172 -55v197l172 55v283h260v-193l342 115v-197l-342 -115v-104l342 115v-197l-342 -115v-524q219 9 318.5 100.5t99.5 276.5v74h260v-76q0 -275 -192.5 -433.5t-514.5 -158.5h-231v651z" />
<glyph unicode="&#x20bd;" horiz-adv-x="1323" d="M82 182v205h113v111h-113v215h113v719h567q235 0 377.5 -124.5t142.5 -342.5q0 -225 -141.5 -346t-380.5 -121h-305v-111h215v-205h-215v-182h-260v182h-113zM455 713h274q63 0 113 12.5t92 40.5t65 78.5t23 120.5q0 252 -293 252h-274v-504z" />
<glyph unicode="&#x210a;" horiz-adv-x="1361" d="M82 494q0 234 145 377t373 143q124 0 214 -34t175 -112v115h250v-924q0 -254 -146.5 -392t-449.5 -138q-98 0 -196 18t-164 50v204q160 -69 360 -69q181 0 259.5 75t78.5 226v63q-139 -127 -373 -127q-229 0 -377.5 146.5t-148.5 378.5zM344 494q0 -142 90.5 -232 t229.5 -90q110 0 197.5 60.5t119.5 160.5v199q-35 100 -121 159.5t-196 59.5q-139 0 -229.5 -88t-90.5 -229z" />
<glyph unicode="&#x2113;" horiz-adv-x="935" d="M41 528v234q123 31 158 53v350q0 167 95 269t255 102q93 0 161 -28.5t107.5 -81t58.5 -120t19 -151.5q0 -167 -116.5 -293.5t-321.5 -204.5v-319q0 -80 22.5 -112.5t77.5 -32.5q54 0 78 36.5t24 110.5h232q0 -80 -17.5 -144t-56 -116.5t-108.5 -81.5t-166 -29 q-154 0 -249 102t-95 253v256q-60 -25 -158 -52zM449 885q105 41 157.5 113t52.5 159q0 150 -106 150q-49 0 -76.5 -37.5t-27.5 -100.5v-284z" />
<glyph unicode="&#x2117;" horiz-adv-x="1673" d="M82 715q0 219 101.5 391t273 264t381.5 92q156 0 294.5 -54t239.5 -150.5t160 -237t59 -305.5q0 -218 -100.5 -389.5t-272 -264t-380.5 -92.5t-381 92.5t-273.5 264t-101.5 389.5zM313 715q0 -245 148.5 -387t376.5 -142t376 142t148 387q0 162 -69 283t-187 183t-268 62 q-231 0 -378 -142t-147 -386zM569 274v875h359q148 0 236.5 -72.5t88.5 -204.5q0 -123 -88 -194.5t-237 -71.5h-152v-332h-207zM776 764h144q78 0 112.5 26t34.5 82q0 65 -34 92t-113 27h-144v-227z" />
<glyph unicode="&#x2120;" horiz-adv-x="1546" d="M82 1262q0 95 75.5 143.5t204.5 48.5q67 0 133 -13t105 -36v-135q-87 51 -215 51q-64 0 -98.5 -12.5t-34.5 -46.5q0 -36 50 -56q26 -11 124 -37q122 -33 168.5 -79t46.5 -129q0 -86 -73 -137.5t-210 -51.5q-70 0 -149 17t-121 45v141q53 -30 124.5 -50t135.5 -20 q63 0 93 11.5t30 41.5q0 34 -34.5 52.5t-135.5 46.5q-61 17 -98.5 33.5t-66.5 39.5t-41.5 55t-12.5 77zM729 788v644h160l207 -400l207 400h161v-644h-159v349l-181 -349h-57l-180 349v-349h-158z" />
<glyph unicode="&#x2122;" horiz-adv-x="1538" d="M82 1278v154h596v-154h-209v-490h-178v490h-209zM721 788v644h160l206 -400l207 400h162v-644h-160v349l-180 -349h-57l-180 349v-349h-158z" />
<glyph unicode="&#x2126;" horiz-adv-x="1675" d="M82 0v215h252q-111 88 -180.5 224t-69.5 292q0 161 54 296.5t151.5 231.5t238.5 149.5t310 53.5t310 -53.5t238 -149.5t151 -231.5t54 -296.5q0 -156 -69.5 -292t-180.5 -224h252v-215h-606v195q342 190 342 536q0 223 -138 358.5t-353 135.5t-353.5 -135.5 t-138.5 -358.5q0 -346 342 -536v-195h-606z" />
<glyph unicode="&#x212e;" horiz-adv-x="1673" d="M82 715q0 142 40.5 264t111 210t166 150t207 92.5t231.5 30.5q148 0 285 -52.5t240.5 -144t165.5 -225t62 -286.5v-39h-1198v-512q63 -78 197 -131.5t278 -53.5q204 0 342 66.5t240 224.5h63q-119 -190 -269 -265t-376 -75q-214 0 -394.5 98.5t-286 270.5t-105.5 377z M393 766h889v494q-69 69 -184 111t-260 42q-283 0 -445 -149v-498z" />
<glyph unicode="&#x2153;" horiz-adv-x="1558" d="M82 1118v176l186 138h174v-674h-192v481zM207 0l792 1432h265l-793 -1432h-264zM926 18v146q85 -43 211 -43q135 0 135 76q0 39 -31 56t-102 17h-101v140h99q116 0 116 67q0 34 -33 54t-94 20q-94 0 -186 -53v145q94 51 244 51q128 0 201 -52.5t73 -143.5 q0 -110 -102 -158q121 -33 121 -158q0 -93 -79 -147.5t-220 -54.5q-163 0 -252 38z" />
<glyph unicode="&#x2154;" horiz-adv-x="1636" d="M82 758v121l135 112q126 103 158 139q43 49 43 91q0 71 -92 71q-49 0 -113 -19.5t-102 -45.5v166q38 25 103.5 42t123.5 17q136 0 204 -63t68 -158q0 -26 -3.5 -47t-16.5 -42.5t-21 -34.5t-34.5 -38t-38.5 -35.5t-50 -42.5l-102 -86h274v-147h-536zM285 0l792 1432h264 l-792 -1432h-264zM1004 18v146q85 -43 210 -43q136 0 136 76q0 39 -31 56t-102 17h-101v140h98q117 0 117 67q0 34 -33 54t-94 20q-94 0 -186 -53v145q94 51 244 51q128 0 201 -52.5t73 -143.5q0 -110 -102 -158q120 -33 120 -158q0 -93 -79 -147.5t-220 -54.5 q-162 0 -251 38z" />
<glyph unicode="&#x215b;" horiz-adv-x="1554" d="M82 1118v176l186 138h174v-674h-192v481zM207 0l792 1432h265l-793 -1432h-264zM883 184q0 63 33 107.5t85 58.5q-94 46 -94 150q0 92 73 143t198 51t197.5 -51t72.5 -143q0 -104 -94 -150q52 -14 85.5 -58.5t33.5 -107.5q0 -97 -76.5 -150.5t-218.5 -53.5t-218.5 53.5 t-76.5 150.5zM1067 195q0 -43 30.5 -69t80.5 -26t80 26t30 69q0 45 -29.5 71.5t-80.5 26.5t-81 -27t-30 -71zM1083 489q0 -37 26.5 -61.5t68.5 -24.5t68 24.5t26 61.5q0 36 -27 60t-67 24t-67.5 -24t-27.5 -60z" />
<glyph unicode="&#x215c;" horiz-adv-x="1597" d="M82 776v146q85 -43 211 -43q64 0 99.5 16.5t35.5 58.5q0 39 -31 56.5t-102 17.5h-100v139h98q117 0 117 68q0 34 -33 54t-94 20q-94 0 -187 -54v146q94 51 244 51q128 0 199 -52.5t71 -144.5q0 -109 -102 -157q121 -33 121 -158q0 -94 -77.5 -148.5t-217.5 -54.5 q-161 0 -252 39zM250 0l792 1432h265l-793 -1432h-264zM926 184q0 63 33 107.5t85 58.5q-94 46 -94 150q0 92 73 143t198 51t197.5 -51t72.5 -143q0 -104 -94 -150q52 -14 85.5 -58.5t33.5 -107.5q0 -97 -76.5 -150.5t-218.5 -53.5t-218.5 53.5t-76.5 150.5zM1110 195 q0 -43 30.5 -69t80.5 -26q49 0 79.5 26t30.5 69q0 45 -29.5 71.5t-80.5 26.5t-81 -27t-30 -71zM1126 489q0 -37 26.5 -61.5t68.5 -24.5t68 24.5t26 61.5q0 36 -27 60t-67 24t-67.5 -24t-27.5 -60z" />
<glyph unicode="&#x215d;" horiz-adv-x="1574" d="M82 782v160q82 -49 197 -49q82 0 121.5 27.5t39.5 66.5q0 49 -37 70.5t-118 21.5q-78 0 -142 -22l-51 30l27 345h463v-148h-295l-6 -84q59 12 114 12q114 0 174 -57.5t60 -165.5q0 -114 -88 -183t-234 -69q-62 0 -124.5 12.5t-100.5 32.5zM227 0l793 1432h264l-792 -1432 h-265zM903 184q0 63 33.5 107.5t85.5 58.5q-94 46 -94 150q0 92 72.5 143t197.5 51t197.5 -51t72.5 -143q0 -104 -94 -150q52 -14 85.5 -58.5t33.5 -107.5q0 -97 -76.5 -150.5t-218.5 -53.5t-218.5 53.5t-76.5 150.5zM1087 195q0 -43 30.5 -69t80.5 -26t80.5 26t30.5 69 q0 44 -30 71t-81 27t-81 -27t-30 -71zM1104 489q0 -37 26 -61.5t68 -24.5t68 24.5t26 61.5q0 36 -27 60t-67 24t-67 -24t-27 -60z" />
<glyph unicode="&#x215e;" horiz-adv-x="1533" d="M82 1284v148h530v-107l-258 -567h-190l239 526h-321zM186 0l793 1432h264l-792 -1432h-265zM862 184q0 63 33.5 107.5t85.5 58.5q-94 46 -94 150q0 92 72.5 143t197.5 51t197.5 -51t72.5 -143q0 -104 -94 -150q52 -14 85.5 -58.5t33.5 -107.5q0 -97 -76.5 -150.5 t-218.5 -53.5t-218.5 53.5t-76.5 150.5zM1047 195q0 -43 30.5 -69t79.5 -26q50 0 80.5 26t30.5 69q0 44 -30 71t-81 27t-80.5 -26.5t-29.5 -71.5zM1063 489q0 -37 26 -61.5t68 -24.5t68 24.5t26 61.5q0 36 -27 60t-67 24t-67 -24t-27 -60z" />
<glyph unicode="&#x2190;" horiz-adv-x="1642" d="M82 559l530 455l111 -135l-260 -230h1098v-182h-1094l256 -227l-111 -134z" />
<glyph unicode="&#x2191;" horiz-adv-x="1071" d="M82 768l453 530l454 -530l-135 -111l-229 261v-1098h-183v1093l-227 -256z" />
<glyph unicode="&#x2192;" horiz-adv-x="1642" d="M82 467v182h1098l-260 230l110 135l531 -455l-531 -453l-110 134l256 227h-1094z" />
<glyph unicode="&#x2193;" horiz-adv-x="1071" d="M82 350l133 111l227 -256v1093h183v-1097l229 260l135 -111l-454 -530z" />
<glyph unicode="&#x2202;" horiz-adv-x="1343" d="M96 463q32 149 119 256.5t207.5 161t261.5 53.5q120 0 206 -41t118 -113q30 242 -48 362t-284 120q-135 0 -221 -37l47 209q103 28 227 28q330 0 458 -232.5t38 -643.5q-64 -293 -249 -455t-446 -162q-249 0 -364 139t-70 355zM350 451q-28 -128 33 -203.5t197 -75.5 q129 0 218 80.5t115 198.5q26 129 -33.5 204.5t-181.5 75.5q-127 0 -223.5 -77t-124.5 -203z" />
<glyph unicode="&#x220f;" horiz-adv-x="1511" d="M123 -518v1980h1266v-1980h-261v1765h-745v-1765h-260z" />
<glyph unicode="&#x2211;" horiz-adv-x="1288" d="M82 -139l541 700l-541 701v170h1124v-215h-800l507 -656l-507 -655h800v-215h-1124v170z" />
<glyph unicode="&#x2212;" horiz-adv-x="823" d="M82 489v207h659v-207h-659z" />
<glyph unicode="&#x2215;" horiz-adv-x="1204" d="M82 -31l788 1493h252l-788 -1493h-252z" />
<glyph unicode="&#x2219;" horiz-adv-x="372" d="M82 606q0 43 30.5 74t73.5 31t74 -31t31 -74t-31 -73.5t-74 -30.5t-73.5 30.5t-30.5 73.5z" />
<glyph unicode="&#x221a;" horiz-adv-x="1538" d="M82 729v184h410l210 -606l515 1397h239l-639 -1704h-231l-269 729h-235z" />
<glyph unicode="&#x221e;" horiz-adv-x="1599" d="M82 700q0 155 95 256t259 101q227 0 365 -195q138 195 364 195q164 0 258.5 -100.5t94.5 -256.5q0 -157 -94 -256.5t-259 -99.5q-227 0 -364 193q-137 -193 -365 -193q-165 0 -259.5 99.5t-94.5 256.5zM285 700q0 -76 45.5 -124t128.5 -48q87 0 144 43.5t104 128.5 q-47 84 -104 127t-144 43q-83 0 -128.5 -47.5t-45.5 -122.5zM895 700q45 -85 102.5 -128.5t145.5 -43.5q82 0 127 48t45 124q0 75 -45 122.5t-127 47.5q-88 0 -145.5 -43t-102.5 -127z" />
<glyph unicode="&#x222b;" horiz-adv-x="901" d="M41 -113q63 -24 121 -24q87 0 123.5 46.5t36.5 141.5v1092q0 183 98 282t268 99q96 0 172 -29v-209q-58 25 -121 25q-87 0 -123 -46.5t-36 -140.5v-1091q0 -184 -98 -282.5t-269 -98.5q-96 0 -172 26v209z" />
<glyph unicode="&#x2248;" horiz-adv-x="1085" d="M82 344v209q32 50 92.5 76t138.5 26q71 0 153.5 -30t162 -60t145.5 -30q146 0 230 118v-209q-32 -50 -92.5 -76t-137.5 -26q-57 0 -121.5 19t-112.5 41.5t-110.5 41.5t-116.5 19q-146 0 -231 -119zM82 754v209q32 50 92.5 76t138.5 26q57 0 121.5 -19t113.5 -41.5 t111 -41.5t115 -19q145 0 230 119v-209q-32 -50 -92.5 -76t-137.5 -26q-57 0 -121.5 19t-112.5 41t-110.5 41t-116.5 19q-147 0 -231 -118z" />
<glyph unicode="&#x2260;" horiz-adv-x="1093" d="M82 375v203h305l98 247h-403v203h485l95 236h202l-94 -236h242v-203h-324l-98 -247h422v-203h-504l-88 -223h-203l88 223h-223z" />
<glyph unicode="&#x2264;" horiz-adv-x="1112" d="M82 0v215h948v-215h-948zM82 737v183l948 464v-256l-633 -301l633 -301v-256z" />
<glyph unicode="&#x2265;" horiz-adv-x="1112" d="M82 0v215h948v-215h-948zM82 270v256l633 301l-633 301v256l948 -464v-183z" />
<glyph unicode="&#x25a0;" horiz-adv-x="888" d="M82 313v725h725v-725h-725z" />
<glyph unicode="&#x25b2;" horiz-adv-x="1327" d="M82 0l582 1126l581 -1126h-1163z" />
<glyph unicode="&#x25b3;" horiz-adv-x="1327" d="M82 0l582 1126l581 -1126h-1163zM360 166h607l-303 590z" />
<glyph unicode="&#x25b6;" horiz-adv-x="1290" d="M82 2v1163l1126 -581z" />
<glyph unicode="&#x25b7;" horiz-adv-x="1290" d="M82 2v1163l1126 -581zM250 281l588 303l-588 303v-606z" />
<glyph unicode="&#x25bc;" horiz-adv-x="1327" d="M82 1126h1163l-581 -1126z" />
<glyph unicode="&#x25bd;" horiz-adv-x="1327" d="M82 1126h1163l-581 -1126zM360 958l304 -587l303 587h-607z" />
<glyph unicode="&#x25c0;" horiz-adv-x="1290" d="M82 584l1126 581v-1163z" />
<glyph unicode="&#x25c1;" horiz-adv-x="1290" d="M82 584l1126 581v-1163zM453 584l589 -303v606z" />
<glyph unicode="&#x25c6;" horiz-adv-x="1191" d="M82 676l514 514l514 -514l-514 -514z" />
</font>
</defs>
</svg>
